RedRose-Bold.ufo
<glyph name="exclam" format="2">
  <advance width="322"/>
  <unicode hex="0021"/>
  <outline>
    <contour>
      <point x="160" y="202" type="curve" smooth="yes"/>
      <point x="184" y="202"/>
      <point x="241" y="437"/>
      <point x="241" y="549" type="curve" smooth="yes"/>
      <point x="241" y="600"/>
      <point x="218" y="610"/>
      <point x="162" y="610" type="curve" smooth="yes"/>
      <point x="106" y="610"/>
      <point x="82" y="600"/>
      <point x="82" y="550" type="curve" smooth="yes"/>
      <point x="82" y="437"/>
      <point x="136" y="202"/>
    </contour>
    <component base="period" xOffset="30"/>
  </outline>
</glyph>
<glyph name="numbersign" format="2">
  <advance width="733"/>
  <unicode hex="0023"/>
  <outline>
    <contour>
      <point x="248" y="0" type="curve" smooth="yes"/>
      <point x="412" y="0" type="line" smooth="yes"/>
      <point x="404" y="0"/>
      <point x="401" y="17"/>
      <point x="421" y="60" type="curve" smooth="yes"/>
      <point x="448" y="119"/>
      <point x="594" y="483"/>
      <point x="621" y="539" type="curve" smooth="yes"/>
      <point x="642" y="583"/>
      <point x="669" y="600"/>
      <point x="683" y="600" type="curve" smooth="yes"/>
      <point x="518" y="600" type="line" smooth="yes"/>
      <point x="525" y="600"/>
      <point x="528" y="583"/>
      <point x="509" y="540" type="curve" smooth="yes"/>
      <point x="483" y="481"/>
      <point x="338" y="121"/>
      <point x="309" y="60" type="curve" smooth="yes"/>
      <point x="288" y="15"/>
      <point x="262" y="0"/>
    </contour>
    <contour>
      <point x="73" y="148" type="curve"/>
      <point x="82" y="152"/>
      <point x="120" y="158"/>
      <point x="193" y="158" type="curve" smooth="yes"/>
      <point x="579" y="158" type="line"/>
      <point x="579" y="186"/>
      <point x="590" y="231"/>
      <point x="599" y="258" type="curve"/>
      <point x="596" y="254"/>
      <point x="567" y="248"/>
      <point x="499" y="248" type="curve" smooth="yes"/>
      <point x="224" y="248" type="line"/>
      <point x="93" y="248" type="line"/>
      <point x="93" y="222"/>
      <point x="82" y="176"/>
    </contour>
    <contour>
      <point x="50" y="0" type="curve" smooth="yes"/>
      <point x="214" y="0" type="line" smooth="yes"/>
      <point x="206" y="0"/>
      <point x="203" y="17"/>
      <point x="223" y="60" type="curve" smooth="yes"/>
      <point x="250" y="119"/>
      <point x="396" y="483"/>
      <point x="423" y="539" type="curve" smooth="yes"/>
      <point x="444" y="583"/>
      <point x="471" y="600"/>
      <point x="485" y="600" type="curve" smooth="yes"/>
      <point x="320" y="600" type="line" smooth="yes"/>
      <point x="327" y="600"/>
      <point x="330" y="583"/>
      <point x="311" y="540" type="curve" smooth="yes"/>
      <point x="285" y="481"/>
      <point x="140" y="121"/>
      <point x="111" y="60" type="curve" smooth="yes"/>
      <point x="90" y="15"/>
      <point x="64" y="0"/>
    </contour>
    <contour>
      <point x="133" y="328" type="curve"/>
      <point x="142" y="332"/>
      <point x="180" y="338"/>
      <point x="253" y="338" type="curve" smooth="yes"/>
      <point x="639" y="338" type="line"/>
      <point x="639" y="366"/>
      <point x="650" y="411"/>
      <point x="659" y="438" type="curve"/>
      <point x="656" y="434"/>
      <point x="627" y="428"/>
      <point x="559" y="428" type="curve" smooth="yes"/>
      <point x="284" y="428" type="line"/>
      <point x="153" y="428" type="line"/>
      <point x="153" y="402"/>
      <point x="142" y="356"/>
    </contour>
  </outline>
</glyph>
<glyph name="dollar" format="2">
  <advance width="647"/>
  <unicode hex="0024"/>
  <outline>
    <contour>
      <point x="328" y="-11" type="curve" smooth="yes"/>
      <point x="536" y="-11"/>
      <point x="607" y="73"/>
      <point x="607" y="181" type="curve" smooth="yes"/>
      <point x="607" y="313"/>
      <point x="522" y="361"/>
      <point x="364" y="361" type="curve" smooth="yes"/>
      <point x="293" y="361" type="line" smooth="yes"/>
      <point x="232" y="361"/>
      <point x="183" y="375"/>
      <point x="183" y="432" type="curve" smooth="yes"/>
      <point x="183" y="489"/>
      <point x="238" y="499"/>
      <point x="328" y="499" type="curve" smooth="yes"/>
      <point x="464" y="499"/>
      <point x="544" y="441"/>
      <point x="567" y="397" type="curve"/>
      <point x="567" y="426" type="line"/>
      <point x="587" y="546" type="line"/>
      <point x="553" y="573"/>
      <point x="459" y="609"/>
      <point x="328" y="609" type="curve" smooth="yes"/>
      <point x="125" y="609"/>
      <point x="50" y="533"/>
      <point x="50" y="422" type="curve" smooth="yes"/>
      <point x="50" y="302"/>
      <point x="124" y="246"/>
      <point x="293" y="246" type="curve" smooth="yes"/>
      <point x="364" y="246" type="line" smooth="yes"/>
      <point x="428" y="246"/>
      <point x="474" y="227"/>
      <point x="474" y="176" type="curve" smooth="yes"/>
      <point x="474" y="107"/>
      <point x="414" y="99"/>
      <point x="328" y="99" type="curve" smooth="yes"/>
      <point x="173" y="99"/>
      <point x="84" y="173"/>
      <point x="60" y="228" type="curve"/>
      <point x="60" y="197" type="line"/>
      <point x="40" y="62" type="line"/>
      <point x="68" y="31"/>
      <point x="164" y="-11"/>
    </contour>
    <contour>
      <point x="260" y="-60" type="curve"/>
      <point x="383" y="-60" type="line"/>
      <point x="378" y="-55"/>
      <point x="372" y="-36"/>
      <point x="372" y="0" type="curve" smooth="yes"/>
      <point x="372" y="599" type="line" smooth="yes"/>
      <point x="372" y="636"/>
      <point x="384" y="656"/>
      <point x="393" y="660" type="curve"/>
      <point x="270" y="660" type="line"/>
      <point x="274" y="655"/>
      <point x="280" y="636"/>
      <point x="280" y="600" type="curve" smooth="yes"/>
      <point x="280" y="0" type="line" smooth="yes"/>
      <point x="280" y="-37"/>
      <point x="269" y="-56"/>
    </contour>
  </outline>
</glyph>
<glyph name="percent" format="2">
  <advance width="680"/>
  <unicode hex="0025"/>
  <outline>
    <contour>
      <point x="60" y="1" type="curve"/>
      <point x="204" y="1" type="line"/>
      <point x="192" y="4"/>
      <point x="186" y="22"/>
      <point x="213" y="61" type="curve" smooth="yes"/>
      <point x="253" y="118"/>
      <point x="515" y="476"/>
      <point x="559" y="540" type="curve" smooth="yes"/>
      <point x="590" y="584"/>
      <point x="612" y="601"/>
      <point x="621" y="601" type="curve" smooth="yes"/>
      <point x="476" y="601" type="line" smooth="yes"/>
      <point x="487" y="601"/>
      <point x="492" y="584"/>
      <point x="467" y="541" type="curve" smooth="yes"/>
      <point x="435" y="485"/>
      <point x="161" y="115"/>
      <point x="121" y="61" type="curve" smooth="yes"/>
      <point x="90" y="19"/>
      <point x="68" y="2"/>
    </contour>
    <contour>
      <point x="492" y="-10" type="curve" smooth="yes"/>
      <point x="588" y="-10"/>
      <point x="632" y="44"/>
      <point x="632" y="110" type="curve" smooth="yes"/>
      <point x="632" y="176"/>
      <point x="588" y="230"/>
      <point x="492" y="230" type="curve" smooth="yes"/>
      <point x="394" y="230"/>
      <point x="352" y="176"/>
      <point x="352" y="110" type="curve" smooth="yes"/>
      <point x="352" y="44"/>
      <point x="394" y="-10"/>
    </contour>
    <contour>
      <point x="492" y="70" type="curve" smooth="yes"/>
      <point x="456" y="70"/>
      <point x="452" y="95"/>
      <point x="452" y="110" type="curve" smooth="yes"/>
      <point x="452" y="125"/>
      <point x="456" y="150"/>
      <point x="492" y="150" type="curve" smooth="yes"/>
      <point x="526" y="150"/>
      <point x="532" y="125"/>
      <point x="532" y="110" type="curve" smooth="yes"/>
      <point x="532" y="95"/>
      <point x="526" y="70"/>
    </contour>
    <contour>
      <point x="192" y="369" type="curve" smooth="yes"/>
      <point x="288" y="369"/>
      <point x="332" y="423"/>
      <point x="332" y="489" type="curve" smooth="yes"/>
      <point x="332" y="555"/>
      <point x="288" y="609"/>
      <point x="192" y="609" type="curve" smooth="yes"/>
      <point x="94" y="609"/>
      <point x="52" y="555"/>
      <point x="52" y="489" type="curve" smooth="yes"/>
      <point x="52" y="423"/>
      <point x="94" y="369"/>
    </contour>
    <contour>
      <point x="192" y="449" type="curve" smooth="yes"/>
      <point x="156" y="449"/>
      <point x="152" y="474"/>
      <point x="152" y="489" type="curve" smooth="yes"/>
      <point x="152" y="504"/>
      <point x="156" y="529"/>
      <point x="192" y="529" type="curve" smooth="yes"/>
      <point x="226" y="529"/>
      <point x="232" y="504"/>
      <point x="232" y="489" type="curve" smooth="yes"/>
      <point x="232" y="474"/>
      <point x="226" y="449"/>
    </contour>
  </outline>
</glyph>
<glyph name="ampersand" format="2">
  <advance width="807"/>
  <unicode hex="0026"/>
  <outline>
    <contour>
      <point x="269" y="-10" type="curve" smooth="yes"/>
      <point x="420" y="-10"/>
      <point x="494" y="45"/>
      <point x="520" y="60" type="curve"/>
      <point x="543" y="40"/>
      <point x="551" y="14"/>
      <point x="551" y="0" type="curve"/>
      <point x="797" y="0" type="line"/>
      <point x="782" y="2"/>
      <point x="744" y="22"/>
      <point x="691" y="70" type="curve" smooth="yes"/>
      <point x="662" y="96"/>
      <point x="644" y="115"/>
      <point x="618" y="138" type="curve"/>
      <point x="654" y="173"/>
      <point x="683" y="222"/>
      <point x="710" y="287" type="curve" smooth="yes"/>
      <point x="728" y="331"/>
      <point x="746" y="347"/>
      <point x="755" y="347" type="curve" smooth="yes"/>
      <point x="524" y="347" type="line"/>
      <point x="533" y="346"/>
      <point x="545" y="330"/>
      <point x="545" y="291" type="curve" smooth="yes"/>
      <point x="545" y="245"/>
      <point x="527" y="222"/>
      <point x="522" y="215" type="curve"/>
      <point x="474" y="256"/>
      <point x="430" y="286"/>
      <point x="391" y="321" type="curve"/>
      <point x="451" y="350"/>
      <point x="496" y="399"/>
      <point x="496" y="474" type="curve" smooth="yes"/>
      <point x="496" y="560"/>
      <point x="440" y="610"/>
      <point x="322" y="610" type="curve" smooth="yes"/>
      <point x="192" y="610"/>
      <point x="140" y="538"/>
      <point x="140" y="464" type="curve" smooth="yes"/>
      <point x="140" y="405"/>
      <point x="167" y="368"/>
      <point x="199" y="339" type="curve"/>
      <point x="198" y="337" type="line"/>
      <point x="168" y="325"/>
      <point x="40" y="276"/>
      <point x="40" y="150" type="curve" smooth="yes"/>
      <point x="40" y="29"/>
      <point x="133" y="-10"/>
    </contour>
    <contour>
      <point x="281" y="90" type="curve" smooth="yes"/>
      <point x="218" y="90"/>
      <point x="188" y="111"/>
      <point x="188" y="155" type="curve" smooth="yes"/>
      <point x="188" y="216"/>
      <point x="250" y="249"/>
      <point x="283" y="264" type="curve"/>
      <point x="336" y="219"/>
      <point x="397" y="177"/>
      <point x="437" y="139" type="curve"/>
      <point x="421" y="125"/>
      <point x="371" y="90"/>
    </contour>
    <contour>
      <point x="322" y="387" type="curve"/>
      <point x="314" y="392"/>
      <point x="290" y="419"/>
      <point x="290" y="459" type="curve" smooth="yes"/>
      <point x="290" y="487"/>
      <point x="302" y="510"/>
      <point x="326" y="510" type="curve" smooth="yes"/>
      <point x="350" y="510"/>
      <point x="363" y="491"/>
      <point x="363" y="469" type="curve" smooth="yes"/>
      <point x="363" y="422"/>
      <point x="340" y="395"/>
    </contour>
  </outline>
</glyph>
<glyph name="quotesingle" format="2">
  <advance width="180"/>
  <unicode hex="0027"/>
  <outline>
    <contour>
      <point x="90" y="400" type="curve" smooth="yes"/>
      <point x="122" y="400"/>
      <point x="150" y="525"/>
      <point x="150" y="562" type="curve" smooth="yes"/>
      <point x="150" y="576"/>
      <point x="141" y="590"/>
      <point x="120" y="590" type="curve" smooth="yes"/>
      <point x="61" y="590" type="line" smooth="yes"/>
      <point x="39" y="590"/>
      <point x="30" y="580"/>
      <point x="30" y="561" type="curve" smooth="yes"/>
      <point x="30" y="513"/>
      <point x="58" y="400"/>
    </contour>
  </outline>
</glyph>
<glyph name="parenleft" format="2">
  <advance width="333"/>
  <unicode hex="0028"/>
  <outline>
    <contour>
      <point x="283" y="-80" type="curve"/>
      <point x="234" y="-80"/>
      <point x="30" y="19"/>
      <point x="30" y="309" type="curve" smooth="yes"/>
      <point x="30" y="599"/>
      <point x="234" y="689"/>
      <point x="283" y="689" type="curve"/>
      <point x="283" y="672"/>
      <point x="294" y="651"/>
      <point x="302" y="639" type="curve"/>
      <point x="292" y="639" type="line" smooth="yes"/>
      <point x="239" y="639"/>
      <point x="139" y="561"/>
      <point x="139" y="309" type="curve" smooth="yes"/>
      <point x="139" y="57"/>
      <point x="239" y="-30"/>
      <point x="292" y="-30" type="curve" smooth="yes"/>
      <point x="302" y="-30" type="line"/>
      <point x="294" y="-42"/>
      <point x="283" y="-65"/>
    </contour>
  </outline>
</glyph>
<glyph name="asterisk" format="2">
  <advance width="360"/>
  <unicode hex="002A"/>
  <outline>
    <contour>
      <point x="150" y="414" type="line"/>
      <point x="147" y="417"/>
      <point x="148" y="428"/>
      <point x="164" y="450" type="curve" smooth="yes"/>
      <point x="176" y="467"/>
      <point x="175" y="487"/>
      <point x="182" y="500" type="curve"/>
      <point x="188" y="488"/>
      <point x="187" y="467"/>
      <point x="199" y="451" type="curve" smooth="yes"/>
      <point x="215" y="430"/>
      <point x="216" y="418"/>
      <point x="213" y="415" type="curve"/>
      <point x="312" y="486" type="line" smooth="yes"/>
      <point x="309" y="484"/>
      <point x="298" y="489"/>
      <point x="282" y="510" type="curve" smooth="yes"/>
      <point x="271" y="526"/>
      <point x="251" y="532"/>
      <point x="242" y="541" type="curve"/>
      <point x="255" y="544"/>
      <point x="274" y="537"/>
      <point x="292" y="543" type="curve" smooth="yes"/>
      <point x="317" y="551"/>
      <point x="328" y="548"/>
      <point x="330" y="544" type="curve"/>
      <point x="292" y="661" type="line" smooth="yes"/>
      <point x="293" y="657"/>
      <point x="286" y="648"/>
      <point x="260" y="640" type="curve" smooth="yes"/>
      <point x="240" y="633"/>
      <point x="228" y="616"/>
      <point x="216" y="610" type="curve"/>
      <point x="218" y="623"/>
      <point x="229" y="640"/>
      <point x="229" y="661" type="curve" smooth="yes"/>
      <point x="229" y="687"/>
      <point x="235" y="698"/>
      <point x="239" y="698" type="curve" smooth="yes"/>
      <point x="119" y="698" type="line" smooth="yes"/>
      <point x="123" y="698"/>
      <point x="129" y="688"/>
      <point x="129" y="661" type="curve" smooth="yes"/>
      <point x="129" y="641"/>
      <point x="140" y="624"/>
      <point x="142" y="611" type="curve"/>
      <point x="131" y="617"/>
      <point x="119" y="633"/>
      <point x="100" y="639" type="curve" smooth="yes"/>
      <point x="75" y="647"/>
      <point x="67" y="656"/>
      <point x="68" y="660" type="curve" smooth="yes"/>
      <point x="30" y="545" type="line" smooth="yes"/>
      <point x="31" y="549"/>
      <point x="42" y="552"/>
      <point x="68" y="543" type="curve" smooth="yes"/>
      <point x="88" y="537"/>
      <point x="108" y="543"/>
      <point x="121" y="541" type="curve"/>
      <point x="112" y="531"/>
      <point x="92" y="526"/>
      <point x="81" y="510" type="curve" smooth="yes"/>
      <point x="66" y="489"/>
      <point x="55" y="484"/>
      <point x="51" y="486" type="curve"/>
    </contour>
  </outline>
</glyph>
<glyph name="plus" format="2">
  <advance width="400"/>
  <unicode hex="002B"/>
  <outline>
    <contour>
      <point x="150" y="130" type="line"/>
      <point x="250" y="130" type="line"/>
      <point x="250" y="470" type="line"/>
      <point x="150" y="470" type="line"/>
    </contour>
    <contour>
      <point x="30" y="250" type="line"/>
      <point x="370" y="250" type="line"/>
      <point x="370" y="350" type="line"/>
      <point x="30" y="350" type="line"/>
    </contour>
  </outline>
</glyph>
<glyph name="comma" format="2">
  <advance width="281"/>
  <unicode hex="002C"/>
  <outline>
    <contour>
      <point x="92" y="-134" type="line"/>
      <point x="165" y="-127"/>
      <point x="231" y="-71"/>
      <point x="231" y="10" type="curve" smooth="yes"/>
      <point x="231" y="72"/>
      <point x="197" y="116"/>
      <point x="131" y="116" type="curve" smooth="yes"/>
      <point x="78" y="116"/>
      <point x="50" y="84"/>
      <point x="50" y="41" type="curve" smooth="yes"/>
      <point x="50" y="5"/>
      <point x="75" y="-14"/>
      <point x="110" y="-14" type="curve" smooth="yes"/>
      <point x="133" y="-14"/>
      <point x="148" y="-6"/>
      <point x="156" y="0" type="curve"/>
      <point x="156" y="-49"/>
      <point x="116" y="-77"/>
      <point x="60" y="-82" type="curve"/>
    </contour>
  </outline>
</glyph>
<glyph name="hyphen" format="2">
  <advance width="376"/>
  <unicode hex="002D"/>
  <outline>
    <contour>
      <point x="30" y="180" type="curve"/>
      <point x="39" y="184"/>
      <point x="77" y="190"/>
      <point x="150" y="190" type="curve" smooth="yes"/>
      <point x="326" y="190" type="line"/>
      <point x="326" y="232"/>
      <point x="337" y="278"/>
      <point x="346" y="300" type="curve"/>
      <point x="343" y="296"/>
      <point x="314" y="290"/>
      <point x="246" y="290" type="curve" smooth="yes"/>
      <point x="50" y="290" type="line"/>
      <point x="50" y="264"/>
      <point x="39" y="212"/>
    </contour>
  </outline>
</glyph>
<glyph name="period" format="2">
  <advance width="262"/>
  <unicode hex="002E"/>
  <outline>
    <contour>
      <point x="131" y="-10" type="curve" smooth="yes"/>
      <point x="181" y="-10"/>
      <point x="212" y="8"/>
      <point x="212" y="55" type="curve" smooth="yes"/>
      <point x="212" y="102"/>
      <point x="182" y="120"/>
      <point x="131" y="120" type="curve" smooth="yes"/>
      <point x="80" y="120"/>
      <point x="50" y="102"/>
      <point x="50" y="55" type="curve" smooth="yes"/>
      <point x="50" y="8"/>
      <point x="81" y="-10"/>
    </contour>
  </outline>
</glyph>
<glyph name="slash" format="2">
  <advance width="445"/>
  <unicode hex="002F"/>
  <outline>
    <contour>
      <point x="30" y="-60" type="line"/>
      <point x="150" y="-60" type="line"/>
      <point x="415" y="688" type="line"/>
      <point x="294" y="688" type="line"/>
    </contour>
  </outline>
</glyph>
<glyph name="one" format="2">
  <advance width="375"/>
  <unicode hex="0031"/>
  <outline>
    <contour>
      <point x="120" y="0" type="curve" smooth="yes"/>
      <point x="315" y="0" type="line" smooth="yes"/>
      <point x="306" y="0"/>
      <point x="294" y="17"/>
      <point x="294" y="60" type="curve" smooth="yes"/>
      <point x="294" y="610" type="line"/>
      <point x="233" y="593"/>
      <point x="122" y="570"/>
      <point x="40" y="570" type="curve"/>
      <point x="40" y="448" type="line"/>
      <point x="140" y="468" type="line"/>
      <point x="140" y="60" type="line" smooth="yes"/>
      <point x="140" y="17"/>
      <point x="129" y="0"/>
    </contour>
  </outline>
</glyph>
<glyph name="two" format="2">
  <advance width="566"/>
  <unicode hex="0032"/>
  <outline>
    <contour>
      <point x="30" y="0" type="line"/>
      <point x="516" y="0" type="line"/>
      <point x="516" y="31" type="line"/>
      <point x="536" y="141" type="line"/>
      <point x="519" y="128"/>
      <point x="466" y="111"/>
      <point x="386" y="111" type="curve" smooth="yes"/>
      <point x="198" y="111" type="line"/>
      <point x="198" y="114" type="line"/>
      <point x="220" y="120"/>
      <point x="274" y="149"/>
      <point x="343" y="209" type="curve" smooth="yes"/>
      <point x="442" y="296"/>
      <point x="496" y="358"/>
      <point x="496" y="464" type="curve" smooth="yes"/>
      <point x="496" y="538"/>
      <point x="444" y="610"/>
      <point x="283" y="610" type="curve" smooth="yes"/>
      <point x="160" y="610"/>
      <point x="78" y="576"/>
      <point x="50" y="550" type="curve"/>
      <point x="70" y="437" type="line"/>
      <point x="70" y="407" type="line"/>
      <point x="112" y="447"/>
      <point x="199" y="500"/>
      <point x="285" y="500" type="curve" smooth="yes"/>
      <point x="334" y="500"/>
      <point x="354" y="483"/>
      <point x="354" y="449" type="curve" smooth="yes"/>
      <point x="354" y="366"/>
      <point x="251" y="305"/>
      <point x="155" y="205" type="curve" smooth="yes"/>
      <point x="64" y="111"/>
      <point x="30" y="39"/>
      <point x="30" y="11" type="curve" smooth="yes"/>
    </contour>
  </outline>
</glyph>
<glyph name="four" format="2">
  <advance width="698"/>
  <unicode hex="0034"/>
  <outline>
    <contour>
      <point x="365" y="0" type="curve" smooth="yes"/>
      <point x="558" y="0" type="line" smooth="yes"/>
      <point x="549" y="0"/>
      <point x="537" y="17"/>
      <point x="537" y="60" type="curve" smooth="yes"/>
      <point x="537" y="95" type="line"/>
      <point x="668" y="95" type="line"/>
      <point x="668" y="125" type="line"/>
      <point x="688" y="226" type="line"/>
      <point x="674" y="217"/>
      <point x="626" y="205"/>
      <point x="548" y="205" type="curve" smooth="yes"/>
      <point x="537" y="205" type="line"/>
      <point x="538" y="539" type="line" smooth="yes"/>
      <point x="538" y="583"/>
      <point x="549" y="600"/>
      <point x="558" y="600" type="curve" smooth="yes"/>
      <point x="322" y="600" type="line"/>
      <point x="329" y="598"/>
      <point x="323" y="572"/>
      <point x="281" y="507" type="curve" smooth="yes"/>
      <point x="210" y="396"/>
      <point x="109" y="237"/>
      <point x="61" y="171" type="curve" smooth="yes"/>
      <point x="42" y="145"/>
      <point x="21" y="112"/>
      <point x="10" y="95" type="curve"/>
      <point x="385" y="95" type="line"/>
      <point x="385" y="60" type="line" smooth="yes"/>
      <point x="385" y="17"/>
      <point x="374" y="0"/>
    </contour>
    <contour>
      <point x="238" y="205" type="line"/>
      <point x="238" y="208" type="line"/>
      <point x="284" y="259"/>
      <point x="357" y="384"/>
      <point x="383" y="459" type="curve"/>
      <point x="385" y="459" type="line"/>
      <point x="385" y="205" type="line"/>
    </contour>
  </outline>
</glyph>
<glyph name="five" format="2">
  <advance width="616"/>
  <unicode hex="0035"/>
  <outline>
    <contour>
      <point x="324" y="-10" type="curve" smooth="yes"/>
      <point x="499" y="-10"/>
      <point x="576" y="68"/>
      <point x="576" y="189" type="curve" smooth="yes"/>
      <point x="576" y="322"/>
      <point x="499" y="385"/>
      <point x="344" y="385" type="curve" smooth="yes"/>
      <point x="272" y="385" type="line" smooth="yes"/>
      <point x="232" y="385"/>
      <point x="232" y="385"/>
      <point x="232" y="415" type="curve" smooth="yes"/>
      <point x="232" y="490" type="line"/>
      <point x="344" y="490" type="line" smooth="yes"/>
      <point x="462" y="490"/>
      <point x="527" y="479"/>
      <point x="542" y="470" type="curve"/>
      <point x="522" y="570" type="line"/>
      <point x="522" y="600" type="line"/>
      <point x="80" y="600" type="line"/>
      <point x="80" y="258" type="line"/>
      <point x="111" y="267"/>
      <point x="190" y="278"/>
      <point x="295" y="278" type="curve" smooth="yes"/>
      <point x="396" y="278"/>
      <point x="424" y="247"/>
      <point x="424" y="192" type="curve" smooth="yes"/>
      <point x="424" y="139"/>
      <point x="400" y="100"/>
      <point x="306" y="100" type="curve" smooth="yes"/>
      <point x="197" y="100"/>
      <point x="101" y="144"/>
      <point x="60" y="177" type="curve"/>
      <point x="60" y="147" type="line"/>
      <point x="40" y="30" type="line"/>
      <point x="80" y="13"/>
      <point x="185" y="-10"/>
    </contour>
  </outline>
</glyph>
<glyph name="six" format="2">
  <advance width="616"/>
  <unicode hex="0036"/>
  <outline>
    <contour>
      <point x="323" y="-10" type="curve" smooth="yes"/>
      <point x="344" y="-10" type="line" smooth="yes"/>
      <point x="519" y="-10"/>
      <point x="576" y="93"/>
      <point x="576" y="193" type="curve" smooth="yes"/>
      <point x="576" y="330"/>
      <point x="505" y="395"/>
      <point x="354" y="395" type="curve" smooth="yes"/>
      <point x="251" y="395"/>
      <point x="206" y="339"/>
      <point x="194" y="320" type="curve"/>
      <point x="192" y="321" type="line"/>
      <point x="192" y="436"/>
      <point x="236" y="498"/>
      <point x="342" y="498" type="curve" smooth="yes"/>
      <point x="433" y="498"/>
      <point x="510" y="464"/>
      <point x="543" y="438" type="curve"/>
      <point x="543" y="468" type="line"/>
      <point x="563" y="568" type="line"/>
      <point x="534" y="586"/>
      <point x="454" y="610"/>
      <point x="343" y="610" type="curve" smooth="yes"/>
      <point x="152" y="610"/>
      <point x="40" y="503"/>
      <point x="40" y="314" type="curve" smooth="yes"/>
      <point x="40" y="92"/>
      <point x="152" y="-10"/>
    </contour>
    <contour>
      <point x="316" y="101" type="curve" smooth="yes"/>
      <point x="259" y="101"/>
      <point x="214" y="125"/>
      <point x="214" y="191" type="curve" smooth="yes"/>
      <point x="214" y="252"/>
      <point x="255" y="285"/>
      <point x="325" y="285" type="curve" smooth="yes"/>
      <point x="386" y="285"/>
      <point x="424" y="267"/>
      <point x="424" y="198" type="curve" smooth="yes"/>
      <point x="424" y="131"/>
      <point x="391" y="101"/>
    </contour>
  </outline>
</glyph>
<glyph name="seven" format="2">
  <advance width="575"/>
  <unicode hex="0037"/>
  <outline>
    <contour>
      <point x="117" y="0" type="curve"/>
      <point x="337" y="0" type="line"/>
      <point x="333" y="2"/>
      <point x="330" y="20"/>
      <point x="337" y="63" type="curve" smooth="yes"/>
      <point x="351" y="142"/>
      <point x="472" y="457"/>
      <point x="511" y="524" type="curve" smooth="yes"/>
      <point x="533" y="561"/>
      <point x="555" y="589"/>
      <point x="565" y="600" type="curve"/>
      <point x="30" y="600" type="line"/>
      <point x="30" y="448" type="line" smooth="yes"/>
      <point x="30" y="465"/>
      <point x="63" y="488"/>
      <point x="150" y="488" type="curve" smooth="yes"/>
      <point x="366" y="488" type="line"/>
      <point x="366" y="486" type="line"/>
      <point x="332" y="450"/>
      <point x="297" y="407"/>
      <point x="257" y="302" type="curve" smooth="yes"/>
      <point x="225" y="217"/>
      <point x="210" y="166"/>
      <point x="178" y="96" type="curve" smooth="yes"/>
      <point x="147" y="27"/>
      <point x="125" y="1"/>
    </contour>
  </outline>
</glyph>
<glyph name="eight" format="2">
  <advance width="596"/>
  <unicode hex="0038"/>
  <outline>
    <contour>
      <point x="283" y="-10" type="curve" smooth="yes"/>
      <point x="314" y="-10" type="line" smooth="yes"/>
      <point x="481" y="-10"/>
      <point x="566" y="72"/>
      <point x="566" y="172" type="curve" smooth="yes"/>
      <point x="566" y="249"/>
      <point x="530" y="299"/>
      <point x="464" y="326" type="curve"/>
      <point x="464" y="328" type="line"/>
      <point x="502" y="349"/>
      <point x="526" y="398"/>
      <point x="526" y="449" type="curve" smooth="yes"/>
      <point x="526" y="530"/>
      <point x="463" y="609"/>
      <point x="314" y="609" type="curve" smooth="yes"/>
      <point x="283" y="609" type="line" smooth="yes"/>
      <point x="133" y="609"/>
      <point x="70" y="530"/>
      <point x="70" y="449" type="curve" smooth="yes"/>
      <point x="70" y="398"/>
      <point x="90" y="353"/>
      <point x="129" y="327" type="curve"/>
      <point x="129" y="325" type="line"/>
      <point x="66" y="299"/>
      <point x="30" y="250"/>
      <point x="30" y="172" type="curve" smooth="yes"/>
      <point x="30" y="69"/>
      <point x="110" y="-10"/>
    </contour>
    <contour>
      <point x="295" y="101" type="line" smooth="yes"/>
      <point x="225" y="101"/>
      <point x="182" y="117"/>
      <point x="182" y="173" type="curve" smooth="yes"/>
      <point x="182" y="224"/>
      <point x="219" y="254"/>
      <point x="295" y="254" type="curve" smooth="yes"/>
      <point x="306" y="254" type="line" smooth="yes"/>
      <point x="378" y="254"/>
      <point x="414" y="225"/>
      <point x="414" y="173" type="curve" smooth="yes"/>
      <point x="414" y="124"/>
      <point x="379" y="101"/>
      <point x="306" y="101" type="curve" smooth="yes"/>
    </contour>
    <contour>
      <point x="295" y="374" type="line" smooth="yes"/>
      <point x="251" y="374"/>
      <point x="222" y="382"/>
      <point x="222" y="438" type="curve" smooth="yes"/>
      <point x="222" y="481"/>
      <point x="245" y="499"/>
      <point x="295" y="499" type="curve" smooth="yes"/>
      <point x="306" y="499" type="line" smooth="yes"/>
      <point x="353" y="499"/>
      <point x="374" y="479"/>
      <point x="374" y="438" type="curve" smooth="yes"/>
      <point x="374" y="386"/>
      <point x="349" y="374"/>
      <point x="306" y="374" type="curve" smooth="yes"/>
    </contour>
  </outline>
</glyph>
<glyph name="nine" format="2">
  <advance width="616"/>
  <unicode hex="0039"/>
  <outline>
    <contour>
      <point x="282" y="-10" type="curve" smooth="yes"/>
      <point x="464" y="-10"/>
      <point x="576" y="78"/>
      <point x="576" y="304" type="curve" smooth="yes"/>
      <point x="576" y="513"/>
      <point x="489" y="608"/>
      <point x="303" y="608" type="curve" smooth="yes"/>
      <point x="282" y="608" type="line" smooth="yes"/>
      <point x="91" y="608"/>
      <point x="40" y="502"/>
      <point x="40" y="405" type="curve" smooth="yes"/>
      <point x="40" y="286"/>
      <point x="105" y="203"/>
      <point x="272" y="203" type="curve" smooth="yes"/>
      <point x="377" y="203"/>
      <point x="413" y="244"/>
      <point x="423" y="261" type="curve"/>
      <point x="425" y="260" type="line"/>
      <point x="425" y="159"/>
      <point x="376" y="103"/>
      <point x="263" y="103" type="curve" smooth="yes"/>
      <point x="147" y="103"/>
      <point x="73" y="161"/>
      <point x="70" y="162" type="curve"/>
      <point x="70" y="132" type="line"/>
      <point x="50" y="30" type="line"/>
      <point x="82" y="13"/>
      <point x="167" y="-10"/>
    </contour>
    <contour>
      <point x="305" y="313" type="curve" smooth="yes"/>
      <point x="220" y="313"/>
      <point x="192" y="348"/>
      <point x="192" y="399" type="curve" smooth="yes"/>
      <point x="192" y="473"/>
      <point x="228" y="497"/>
      <point x="300" y="497" type="curve" smooth="yes"/>
      <point x="381" y="497"/>
      <point x="412" y="471"/>
      <point x="412" y="403" type="curve" smooth="yes"/>
      <point x="412" y="334"/>
      <point x="368" y="313"/>
    </contour>
  </outline>
</glyph>
<glyph name="question" format="2">
  <advance width="526"/>
  <unicode hex="003F"/>
  <outline>
    <contour>
      <point x="213" y="181" type="curve" smooth="yes"/>
      <point x="228" y="181"/>
      <point x="263" y="275"/>
      <point x="263" y="290" type="curve"/>
      <point x="362" y="318"/>
      <point x="446" y="381"/>
      <point x="446" y="473" type="curve" smooth="yes"/>
      <point x="446" y="541"/>
      <point x="389" y="609"/>
      <point x="253" y="609" type="curve" smooth="yes"/>
      <point x="157" y="609"/>
      <point x="98" y="592"/>
      <point x="80" y="579" type="curve"/>
      <point x="100" y="475" type="line"/>
      <point x="100" y="445" type="line"/>
      <point x="124" y="472"/>
      <point x="178" y="508"/>
      <point x="238" y="508" type="curve" smooth="yes"/>
      <point x="283" y="508"/>
      <point x="294" y="488"/>
      <point x="294" y="458" type="curve" smooth="yes"/>
      <point x="294" y="409"/>
      <point x="240" y="359"/>
      <point x="172" y="340" type="curve"/>
      <point x="172" y="243"/>
      <point x="200" y="181"/>
    </contour>
    <component base="period" xOffset="86"/>
  </outline>
</glyph>
<glyph name="B" format="2">
  <advance width="705"/>
  <unicode hex="0042"/>
  <outline>
    <contour>
      <point x="50" y="0" type="curve" smooth="yes"/>
      <point x="464" y="0" type="line" smooth="yes"/>
      <point x="635" y="0"/>
      <point x="675" y="88"/>
      <point x="675" y="174" type="curve" smooth="yes"/>
      <point x="675" y="259"/>
      <point x="630" y="310"/>
      <point x="544" y="330" type="curve"/>
      <point x="544" y="332" type="line"/>
      <point x="582" y="345"/>
      <point x="626" y="379"/>
      <point x="626" y="452" type="curve" smooth="yes"/>
      <point x="626" y="542"/>
      <point x="580" y="600"/>
      <point x="424" y="600" type="curve" smooth="yes"/>
      <point x="50" y="600" type="line"/>
      <point x="59" y="599"/>
      <point x="71" y="582"/>
      <point x="71" y="540" type="curve" smooth="yes"/>
      <point x="71" y="60" type="line" smooth="yes"/>
      <point x="71" y="17"/>
      <point x="59" y="0"/>
    </contour>
    <contour>
      <point x="265" y="111" type="line" smooth="yes"/>
      <point x="226" y="111"/>
      <point x="225" y="111"/>
      <point x="225" y="141" type="curve" smooth="yes"/>
      <point x="225" y="224" type="line" smooth="yes"/>
      <point x="225" y="255"/>
      <point x="226" y="255"/>
      <point x="266" y="255" type="curve" smooth="yes"/>
      <point x="405" y="255" type="line" smooth="yes"/>
      <point x="487" y="255"/>
      <point x="521" y="228"/>
      <point x="521" y="181" type="curve" smooth="yes"/>
      <point x="521" y="132"/>
      <point x="491" y="111"/>
      <point x="415" y="111" type="curve" smooth="yes"/>
    </contour>
    <contour>
      <point x="266" y="357" type="line" smooth="yes"/>
      <point x="226" y="357"/>
      <point x="225" y="357"/>
      <point x="225" y="387" type="curve" smooth="yes"/>
      <point x="225" y="458" type="line" smooth="yes"/>
      <point x="225" y="488"/>
      <point x="225" y="488"/>
      <point x="265" y="488" type="curve" smooth="yes"/>
      <point x="385" y="488" type="line" smooth="yes"/>
      <point x="450" y="488"/>
      <point x="473" y="467"/>
      <point x="473" y="423" type="curve" smooth="yes"/>
      <point x="473" y="379"/>
      <point x="448" y="357"/>
      <point x="384" y="357" type="curve" smooth="yes"/>
    </contour>
  </outline>
</glyph>
<glyph name="C" format="2">
  <advance width="686"/>
  <unicode hex="0043"/>
  <anchor x="385" y="0" name="bottom"/>
  <anchor x="385" y="600" name="top"/>
  <outline>
    <contour>
      <point x="383" y="-10" type="curve" smooth="yes"/>
      <point x="536" y="-10"/>
      <point x="623" y="19"/>
      <point x="646" y="40" type="curve"/>
      <point x="636" y="141" type="line"/>
      <point x="636" y="171" type="line"/>
      <point x="608" y="141"/>
      <point x="528" y="101"/>
      <point x="414" y="101" type="curve" smooth="yes"/>
      <point x="242" y="101"/>
      <point x="192" y="166"/>
      <point x="192" y="300" type="curve" smooth="yes"/>
      <point x="192" y="434"/>
      <point x="247" y="500"/>
      <point x="385" y="500" type="curve" smooth="yes"/>
      <point x="511" y="500"/>
      <point x="608" y="466"/>
      <point x="646" y="440" type="curve"/>
      <point x="626" y="550" type="line"/>
      <point x="626" y="580" type="line"/>
      <point x="596" y="593"/>
      <point x="510" y="610"/>
      <point x="383" y="610" type="curve" smooth="yes"/>
      <point x="140" y="610"/>
      <point x="40" y="485"/>
      <point x="40" y="300" type="curve" smooth="yes"/>
      <point x="40" y="85"/>
      <point x="153" y="-10"/>
    </contour>
  </outline>
</glyph>
<glyph name="D" format="2">
  <advance width="736"/>
  <unicode hex="0044"/>
  <anchor x="363" y="0" name="bottom"/>
  <anchor x="163" y="300" name="center"/>
  <anchor x="363" y="600" name="top"/>
  <outline>
    <contour>
      <point x="50" y="0" type="curve" smooth="yes"/>
      <point x="364" y="0" type="line" smooth="yes"/>
      <point x="657" y="0"/>
      <point x="696" y="164"/>
      <point x="696" y="299" type="curve" smooth="yes"/>
      <point x="696" y="445"/>
      <point x="659" y="600"/>
      <point x="364" y="600" type="curve" smooth="yes"/>
      <point x="50" y="600" type="line"/>
      <point x="59" y="599"/>
      <point x="71" y="582"/>
      <point x="71" y="540" type="curve" smooth="yes"/>
      <point x="71" y="60" type="line" smooth="yes"/>
      <point x="71" y="17"/>
      <point x="59" y="0"/>
    </contour>
    <contour>
      <point x="265" y="111" type="line" smooth="yes"/>
      <point x="226" y="111"/>
      <point x="225" y="111"/>
      <point x="225" y="141" type="curve" smooth="yes"/>
      <point x="225" y="459" type="line" smooth="yes"/>
      <point x="225" y="487"/>
      <point x="226" y="487"/>
      <point x="265" y="487" type="curve" smooth="yes"/>
      <point x="306" y="487" type="line" smooth="yes"/>
      <point x="485" y="487"/>
      <point x="544" y="465"/>
      <point x="544" y="310" type="curve" smooth="yes"/>
      <point x="544" y="292" type="line" smooth="yes"/>
      <point x="544" y="144"/>
      <point x="477" y="111"/>
      <point x="306" y="111" type="curve" smooth="yes"/>
    </contour>
  </outline>
</glyph>
<glyph name="E" format="2">
  <advance width="695"/>
  <unicode hex="0045"/>
  <anchor x="364" y="0" name="bottom"/>
  <anchor x="634" y="10" name="ogonek"/>
  <anchor x="364" y="600" name="top"/>
  <anchor x="80" y="600" name="topleft"/>
  <outline>
    <contour>
      <point x="50" y="0" type="curve" smooth="yes"/>
      <point x="655" y="0" type="line"/>
      <point x="655" y="31" type="line"/>
      <point x="675" y="151" type="line"/>
      <point x="660" y="134"/>
      <point x="612" y="111"/>
      <point x="535" y="111" type="curve" smooth="yes"/>
      <point x="265" y="111" type="line" smooth="yes"/>
      <point x="225" y="111"/>
      <point x="225" y="111"/>
      <point x="225" y="142" type="curve" smooth="yes"/>
      <point x="225" y="216" type="line" smooth="yes"/>
      <point x="225" y="246"/>
      <point x="226" y="246"/>
      <point x="265" y="246" type="curve" smooth="yes"/>
      <point x="529" y="246" type="line"/>
      <point x="529" y="275"/>
      <point x="540" y="337"/>
      <point x="549" y="376" type="curve"/>
      <point x="534" y="367"/>
      <point x="486" y="356"/>
      <point x="409" y="356" type="curve" smooth="yes"/>
      <point x="265" y="356" type="line" smooth="yes"/>
      <point x="226" y="356"/>
      <point x="225" y="356"/>
      <point x="225" y="386" type="curve" smooth="yes"/>
      <point x="225" y="460" type="line" smooth="yes"/>
      <point x="225" y="488"/>
      <point x="226" y="490"/>
      <point x="266" y="490" type="curve" smooth="yes"/>
      <point x="414" y="490" type="line" smooth="yes"/>
      <point x="532" y="490"/>
      <point x="620" y="469"/>
      <point x="654" y="454" type="curve"/>
      <point x="634" y="570" type="line"/>
      <point x="634" y="600" type="line"/>
      <point x="50" y="600" type="line"/>
      <point x="59" y="599"/>
      <point x="71" y="582"/>
      <point x="71" y="540" type="curve" smooth="yes"/>
      <point x="71" y="60" type="line" smooth="yes"/>
      <point x="71" y="17"/>
      <point x="59" y="0"/>
    </contour>
  </outline>
</glyph>
<glyph name="F" format="2">
  <advance width="674"/>
  <unicode hex="0046"/>
  <outline>
    <contour>
      <point x="50" y="0" type="curve" smooth="yes"/>
      <point x="246" y="0" type="line" smooth="yes"/>
      <point x="237" y="0"/>
      <point x="225" y="16"/>
      <point x="225" y="60" type="curve" smooth="yes"/>
      <point x="225" y="216" type="line" smooth="yes"/>
      <point x="225" y="246"/>
      <point x="226" y="246"/>
      <point x="265" y="246" type="curve" smooth="yes"/>
      <point x="529" y="246" type="line"/>
      <point x="529" y="275"/>
      <point x="540" y="337"/>
      <point x="549" y="376" type="curve"/>
      <point x="534" y="367"/>
      <point x="486" y="356"/>
      <point x="409" y="356" type="curve" smooth="yes"/>
      <point x="265" y="356" type="line" smooth="yes"/>
      <point x="226" y="356"/>
      <point x="225" y="356"/>
      <point x="225" y="386" type="curve" smooth="yes"/>
      <point x="225" y="460" type="line" smooth="yes"/>
      <point x="225" y="488"/>
      <point x="226" y="490"/>
      <point x="266" y="490" type="curve" smooth="yes"/>
      <point x="414" y="490" type="line" smooth="yes"/>
      <point x="532" y="490"/>
      <point x="620" y="469"/>
      <point x="654" y="454" type="curve"/>
      <point x="634" y="570" type="line"/>
      <point x="634" y="600" type="line"/>
      <point x="50" y="600" type="line"/>
      <point x="59" y="599"/>
      <point x="71" y="582"/>
      <point x="71" y="540" type="curve" smooth="yes"/>
      <point x="71" y="60" type="line" smooth="yes"/>
      <point x="71" y="17"/>
      <point x="59" y="0"/>
    </contour>
  </outline>
</glyph>
<glyph name="G" format="2">
  <advance width="737"/>
  <unicode hex="0047"/>
  <anchor x="379" y="0" name="bottom"/>
  <anchor x="379" y="600" name="top"/>
  <outline>
    <contour>
      <point x="333" y="-10" type="curve" smooth="yes"/>
      <point x="450" y="-10"/>
      <point x="502" y="22"/>
      <point x="516" y="43" type="curve"/>
      <point x="518" y="41" type="line"/>
      <point x="516" y="13" type="line"/>
      <point x="516" y="0" type="line"/>
      <point x="687" y="0" type="line" smooth="yes"/>
      <point x="678" y="0"/>
      <point x="667" y="17"/>
      <point x="667" y="60" type="curve" smooth="yes"/>
      <point x="667" y="276" type="line" smooth="yes"/>
      <point x="667" y="318"/>
      <point x="678" y="335"/>
      <point x="687" y="336" type="curve"/>
      <point x="372" y="336" type="line"/>
      <point x="372" y="306" type="line"/>
      <point x="362" y="207" type="line"/>
      <point x="375" y="216"/>
      <point x="409" y="228"/>
      <point x="454" y="228" type="curve" smooth="yes"/>
      <point x="486" y="228" type="line" smooth="yes"/>
      <point x="516" y="228"/>
      <point x="516" y="228"/>
      <point x="516" y="198" type="curve" smooth="yes"/>
      <point x="516" y="182" type="line" smooth="yes"/>
      <point x="516" y="135"/>
      <point x="473" y="101"/>
      <point x="374" y="101" type="curve" smooth="yes"/>
      <point x="241" y="101"/>
      <point x="192" y="153"/>
      <point x="192" y="298" type="curve" smooth="yes"/>
      <point x="192" y="432"/>
      <point x="250" y="500"/>
      <point x="385" y="500" type="curve" smooth="yes"/>
      <point x="515" y="500"/>
      <point x="610" y="466"/>
      <point x="646" y="440" type="curve"/>
      <point x="626" y="550" type="line"/>
      <point x="626" y="580" type="line"/>
      <point x="595" y="593"/>
      <point x="509" y="610"/>
      <point x="383" y="610" type="curve" smooth="yes"/>
      <point x="140" y="610"/>
      <point x="40" y="482"/>
      <point x="40" y="298" type="curve" smooth="yes"/>
      <point x="40" y="88"/>
      <point x="152" y="-10"/>
    </contour>
  </outline>
</glyph>
<glyph name="H" format="2">
  <advance width="788"/>
  <unicode hex="0048"/>
  <anchor x="395" y="0" name="bottom"/>
  <anchor x="395" y="460" name="center"/>
  <anchor x="395" y="600" name="top"/>
  <anchor x="20" y="600" name="topleft"/>
  <outline>
    <contour>
      <point x="50" y="0" type="curve" smooth="yes"/>
      <point x="246" y="0" type="line" smooth="yes"/>
      <point x="237" y="0"/>
      <point x="225" y="17"/>
      <point x="225" y="60" type="curve" smooth="yes"/>
      <point x="225" y="216" type="line" smooth="yes"/>
      <point x="225" y="245"/>
      <point x="226" y="246"/>
      <point x="266" y="246" type="curve" smooth="yes"/>
      <point x="523" y="246" type="line" smooth="yes"/>
      <point x="562" y="246"/>
      <point x="563" y="246"/>
      <point x="563" y="216" type="curve" smooth="yes"/>
      <point x="563" y="60" type="line" smooth="yes"/>
      <point x="563" y="17"/>
      <point x="551" y="0"/>
      <point x="542" y="0" type="curve" smooth="yes"/>
      <point x="738" y="0" type="line" smooth="yes"/>
      <point x="729" y="0"/>
      <point x="717" y="17"/>
      <point x="717" y="60" type="curve" smooth="yes"/>
      <point x="717" y="539" type="line" smooth="yes"/>
      <point x="717" y="583"/>
      <point x="729" y="600"/>
      <point x="738" y="600" type="curve" smooth="yes"/>
      <point x="542" y="600" type="line"/>
      <point x="551" y="599"/>
      <point x="563" y="582"/>
      <point x="563" y="540" type="curve" smooth="yes"/>
      <point x="563" y="386" type="line" smooth="yes"/>
      <point x="563" y="355"/>
      <point x="563" y="356"/>
      <point x="523" y="356" type="curve" smooth="yes"/>
      <point x="266" y="356" type="line" smooth="yes"/>
      <point x="226" y="356"/>
      <point x="225" y="357"/>
      <point x="225" y="386" type="curve" smooth="yes"/>
      <point x="225" y="539" type="line" smooth="yes"/>
      <point x="225" y="583"/>
      <point x="237" y="600"/>
      <point x="246" y="600" type="curve" smooth="yes"/>
      <point x="50" y="600" type="line"/>
      <point x="59" y="599"/>
      <point x="71" y="582"/>
      <point x="71" y="540" type="curve" smooth="yes"/>
      <point x="71" y="60" type="line" smooth="yes"/>
      <point x="71" y="17"/>
      <point x="59" y="0"/>
    </contour>
  </outline>
</glyph>
<glyph name="I" format="2">
  <advance width="293"/>
  <unicode hex="0049"/>
  <anchor x="147" y="0" name="bottom"/>
  <anchor x="195" y="10" name="ogonek"/>
  <anchor x="147" y="600" name="top"/>
  <anchor x="20" y="600" name="topleft"/>
  <outline>
    <contour>
      <point x="50" y="0" type="curve" smooth="yes"/>
      <point x="243" y="0" type="line" smooth="yes"/>
      <point x="234" y="0"/>
      <point x="222" y="17"/>
      <point x="222" y="60" type="curve" smooth="yes"/>
      <point x="222" y="539" type="line" smooth="yes"/>
      <point x="222" y="584"/>
      <point x="234" y="600"/>
      <point x="243" y="600" type="curve" smooth="yes"/>
      <point x="50" y="600" type="line" smooth="yes"/>
      <point x="59" y="600"/>
      <point x="70" y="583"/>
      <point x="70" y="540" type="curve" smooth="yes"/>
      <point x="70" y="60" type="line" smooth="yes"/>
      <point x="70" y="16"/>
      <point x="59" y="0"/>
    </contour>
  </outline>
</glyph>
<glyph name="J" format="2">
  <advance width="551"/>
  <unicode hex="004A"/>
  <anchor x="270" y="0" name="bottom"/>
  <anchor x="410" y="600" name="top"/>
  <outline>
    <contour>
      <point x="263" y="-10" type="curve" smooth="yes"/>
      <point x="400" y="-10"/>
      <point x="488" y="34"/>
      <point x="488" y="210" type="curve" smooth="yes"/>
      <point x="488" y="539" type="line" smooth="yes"/>
      <point x="488" y="583"/>
      <point x="500" y="600"/>
      <point x="509" y="600" type="curve" smooth="yes"/>
      <point x="313" y="600" type="line"/>
      <point x="322" y="599"/>
      <point x="334" y="582"/>
      <point x="334" y="540" type="curve" smooth="yes"/>
      <point x="334" y="210" type="line" smooth="yes"/>
      <point x="334" y="130"/>
      <point x="303" y="100"/>
      <point x="245" y="100" type="curve" smooth="yes"/>
      <point x="156" y="100"/>
      <point x="76" y="157"/>
      <point x="40" y="200" type="curve"/>
      <point x="40" y="170" type="line"/>
      <point x="20" y="37" type="line"/>
      <point x="58" y="17"/>
      <point x="150" y="-10"/>
    </contour>
  </outline>
</glyph>
<glyph name="K" format="2">
  <advance width="745"/>
  <unicode hex="004B"/>
  <anchor x="358" y="0" name="bottom"/>
  <anchor x="338" y="600" name="top"/>
  <outline>
    <contour>
      <point x="50" y="0" type="curve" smooth="yes"/>
      <point x="246" y="0" type="line" smooth="yes"/>
      <point x="237" y="0"/>
      <point x="225" y="17"/>
      <point x="225" y="60" type="curve" smooth="yes"/>
      <point x="225" y="212" type="line" smooth="yes"/>
      <point x="225" y="244"/>
      <point x="225" y="245"/>
      <point x="266" y="245" type="curve" smooth="yes"/>
      <point x="277" y="245" type="line" smooth="yes"/>
      <point x="384" y="245"/>
      <point x="463" y="176"/>
      <point x="507" y="55" type="curve" smooth="yes"/>
      <point x="522" y="16"/>
      <point x="508" y="0"/>
      <point x="493" y="0" type="curve" smooth="yes"/>
      <point x="745" y="0" type="line" smooth="yes"/>
      <point x="732" y="0"/>
      <point x="704" y="20"/>
      <point x="674" y="70" type="curve" smooth="yes"/>
      <point x="629" y="145"/>
      <point x="593" y="206"/>
      <point x="527" y="259" type="curve" smooth="yes"/>
      <point x="477" y="299"/>
      <point x="440" y="313"/>
      <point x="408" y="320" type="curve"/>
      <point x="408" y="323" type="line"/>
      <point x="431" y="331"/>
      <point x="461" y="349"/>
      <point x="497" y="383" type="curve" smooth="yes"/>
      <point x="538" y="422"/>
      <point x="566" y="456"/>
      <point x="619" y="539" type="curve" smooth="yes"/>
      <point x="647" y="583"/>
      <point x="676" y="600"/>
      <point x="690" y="600" type="curve" smooth="yes"/>
      <point x="435" y="600" type="line" smooth="yes"/>
      <point x="444" y="600"/>
      <point x="453" y="583"/>
      <point x="445" y="539" type="curve" smooth="yes"/>
      <point x="423" y="415"/>
      <point x="334" y="356"/>
      <point x="276" y="356" type="curve" smooth="yes"/>
      <point x="266" y="356" type="line" smooth="yes"/>
      <point x="227" y="356"/>
      <point x="225" y="356"/>
      <point x="225" y="386" type="curve" smooth="yes"/>
      <point x="225" y="539" type="line" smooth="yes"/>
      <point x="225" y="583"/>
      <point x="237" y="600"/>
      <point x="246" y="600" type="curve" smooth="yes"/>
      <point x="50" y="600" type="line"/>
      <point x="59" y="599"/>
      <point x="71" y="582"/>
      <point x="71" y="540" type="curve" smooth="yes"/>
      <point x="71" y="60" type="line" smooth="yes"/>
      <point x="71" y="17"/>
      <point x="59" y="0"/>
    </contour>
  </outline>
</glyph>
<glyph name="L" format="2">
  <advance width="657"/>
  <unicode hex="004C"/>
  <anchor x="314" y="0" name="bottom"/>
  <anchor x="154" y="300" name="center"/>
  <anchor x="334" y="600" name="top"/>
  <anchor x="607" y="600" name="topright"/>
  <outline>
    <contour>
      <point x="50" y="0" type="curve" smooth="yes"/>
      <point x="617" y="0" type="line"/>
      <point x="617" y="31" type="line"/>
      <point x="647" y="151" type="line"/>
      <point x="632" y="134"/>
      <point x="584" y="111"/>
      <point x="507" y="111" type="curve" smooth="yes"/>
      <point x="266" y="111" type="line" smooth="yes"/>
      <point x="226" y="111"/>
      <point x="225" y="112"/>
      <point x="225" y="142" type="curve" smooth="yes"/>
      <point x="225" y="539" type="line" smooth="yes"/>
      <point x="225" y="583"/>
      <point x="237" y="600"/>
      <point x="246" y="600" type="curve" smooth="yes"/>
      <point x="50" y="600" type="line"/>
      <point x="59" y="599"/>
      <point x="71" y="582"/>
      <point x="71" y="540" type="curve" smooth="yes"/>
      <point x="71" y="60" type="line" smooth="yes"/>
      <point x="71" y="17"/>
      <point x="59" y="0"/>
    </contour>
  </outline>
</glyph>
<glyph name="M" format="2">
  <advance width="927"/>
  <unicode hex="004D"/>
  <outline>
    <contour>
      <point x="50" y="0" type="curve" smooth="yes"/>
      <point x="246" y="0" type="line" smooth="yes"/>
      <point x="237" y="0"/>
      <point x="225" y="17"/>
      <point x="225" y="60" type="curve" smooth="yes"/>
      <point x="225" y="384" type="line"/>
      <point x="228" y="384" type="line"/>
      <point x="278" y="280"/>
      <point x="355" y="121"/>
      <point x="382" y="60" type="curve" smooth="yes"/>
      <point x="401" y="18"/>
      <point x="399" y="1"/>
      <point x="392" y="0" type="curve"/>
      <point x="532" y="0" type="line"/>
      <point x="525" y="1"/>
      <point x="523" y="18"/>
      <point x="542" y="60" type="curve" smooth="yes"/>
      <point x="571" y="126"/>
      <point x="650" y="283"/>
      <point x="702" y="384" type="curve"/>
      <point x="704" y="384" type="line"/>
      <point x="704" y="60" type="line" smooth="yes"/>
      <point x="704" y="17"/>
      <point x="693" y="0"/>
      <point x="684" y="0" type="curve" smooth="yes"/>
      <point x="877" y="0" type="line" smooth="yes"/>
      <point x="868" y="0"/>
      <point x="856" y="17"/>
      <point x="856" y="60" type="curve" smooth="yes"/>
      <point x="856" y="539" type="line" smooth="yes"/>
      <point x="856" y="583"/>
      <point x="868" y="600"/>
      <point x="877" y="600" type="curve" smooth="yes"/>
      <point x="641" y="600" type="line" smooth="yes"/>
      <point x="647" y="600"/>
      <point x="648" y="583"/>
      <point x="630" y="540" type="curve" smooth="yes"/>
      <point x="610" y="492"/>
      <point x="523" y="312"/>
      <point x="463" y="190" type="curve"/>
      <point x="462" y="190" type="line"/>
      <point x="404" y="314"/>
      <point x="320" y="494"/>
      <point x="297" y="538" type="curve" smooth="yes"/>
      <point x="275" y="581"/>
      <point x="278" y="599"/>
      <point x="286" y="600" type="curve"/>
      <point x="50" y="600" type="line"/>
      <point x="59" y="599"/>
      <point x="71" y="582"/>
      <point x="71" y="540" type="curve" smooth="yes"/>
      <point x="71" y="60" type="line" smooth="yes"/>
      <point x="71" y="17"/>
      <point x="59" y="0"/>
    </contour>
  </outline>
</glyph>
<glyph name="N" format="2">
  <advance width="746"/>
  <unicode hex="004E"/>
  <anchor x="365" y="0" name="bottom"/>
  <anchor x="365" y="600" name="top"/>
  <outline>
    <contour>
      <point x="50" y="0" type="curve" smooth="yes"/>
      <point x="246" y="0" type="line" smooth="yes"/>
      <point x="237" y="0"/>
      <point x="225" y="17"/>
      <point x="225" y="60" type="curve" smooth="yes"/>
      <point x="225" y="387" type="line"/>
      <point x="228" y="387" type="line"/>
      <point x="315" y="283"/>
      <point x="447" y="122"/>
      <point x="494" y="62" type="curve" smooth="yes"/>
      <point x="530" y="16"/>
      <point x="532" y="0"/>
      <point x="524" y="0" type="curve" smooth="yes"/>
      <point x="696" y="0" type="line" smooth="yes"/>
      <point x="687" y="0"/>
      <point x="675" y="17"/>
      <point x="675" y="60" type="curve" smooth="yes"/>
      <point x="675" y="539" type="line" smooth="yes"/>
      <point x="675" y="583"/>
      <point x="687" y="600"/>
      <point x="696" y="600" type="curve" smooth="yes"/>
      <point x="500" y="600" type="line"/>
      <point x="509" y="599"/>
      <point x="521" y="582"/>
      <point x="521" y="540" type="curve" smooth="yes"/>
      <point x="521" y="255" type="line"/>
      <point x="519" y="255" type="line"/>
      <point x="429" y="360"/>
      <point x="300" y="510"/>
      <point x="275" y="538" type="curve" smooth="yes"/>
      <point x="236" y="583"/>
      <point x="236" y="600"/>
      <point x="246" y="600" type="curve" smooth="yes"/>
      <point x="50" y="600" type="line"/>
      <point x="59" y="599"/>
      <point x="71" y="582"/>
      <point x="71" y="540" type="curve" smooth="yes"/>
      <point x="71" y="60" type="line" smooth="yes"/>
      <point x="71" y="17"/>
      <point x="59" y="0"/>
    </contour>
  </outline>
</glyph>
<glyph name="O" format="2">
  <advance width="756"/>
  <unicode hex="004F"/>
  <anchor x="378" y="0" name="bottom"/>
  <anchor x="378" y="300" name="center"/>
  <anchor x="432" y="0" name="ogonek"/>
  <anchor x="378" y="600" name="top"/>
  <anchor x="30" y="600" name="topleft"/>
  <anchor x="726" y="510" name="topright"/>
  <outline>
    <contour>
      <point x="365" y="-10" type="curve" smooth="yes"/>
      <point x="396" y="-10" type="line" smooth="yes"/>
      <point x="620" y="-10"/>
      <point x="716" y="105"/>
      <point x="716" y="303" type="curve" smooth="yes"/>
      <point x="716" y="493"/>
      <point x="621" y="610"/>
      <point x="396" y="610" type="curve" smooth="yes"/>
      <point x="365" y="610" type="line" smooth="yes"/>
      <point x="135" y="610"/>
      <point x="40" y="492"/>
      <point x="40" y="303" type="curve" smooth="yes"/>
      <point x="40" y="106"/>
      <point x="136" y="-10"/>
    </contour>
    <contour>
      <point x="375" y="101" type="line" smooth="yes"/>
      <point x="253" y="101"/>
      <point x="192" y="156"/>
      <point x="192" y="303" type="curve" smooth="yes"/>
      <point x="192" y="442"/>
      <point x="250" y="500"/>
      <point x="375" y="500" type="curve" smooth="yes"/>
      <point x="386" y="500" type="line" smooth="yes"/>
      <point x="506" y="500"/>
      <point x="564" y="445"/>
      <point x="564" y="303" type="curve" smooth="yes"/>
      <point x="564" y="156"/>
      <point x="508" y="101"/>
      <point x="386" y="101" type="curve" smooth="yes"/>
    </contour>
  </outline>
</glyph>
<glyph name="P" format="2">
  <advance width="653"/>
  <unicode hex="0050"/>
  <outline>
    <contour>
      <point x="51" y="0" type="curve" smooth="yes"/>
      <point x="246" y="0" type="line" smooth="yes"/>
      <point x="237" y="0"/>
      <point x="225" y="17"/>
      <point x="225" y="60" type="curve" smooth="yes"/>
      <point x="225" y="191" type="line"/>
      <point x="378" y="191" type="line" smooth="yes"/>
      <point x="547" y="191"/>
      <point x="618" y="268"/>
      <point x="618" y="397" type="curve" smooth="yes"/>
      <point x="618" y="523"/>
      <point x="547" y="600"/>
      <point x="378" y="600" type="curve" smooth="yes"/>
      <point x="50" y="600" type="line"/>
      <point x="59" y="599"/>
      <point x="71" y="582"/>
      <point x="71" y="540" type="curve" smooth="yes"/>
      <point x="71" y="60" type="line" smooth="yes"/>
      <point x="71" y="17"/>
      <point x="60" y="0"/>
    </contour>
    <contour>
      <point x="266" y="301" type="line" smooth="yes"/>
      <point x="225" y="301"/>
      <point x="225" y="302"/>
      <point x="225" y="329" type="curve" smooth="yes"/>
      <point x="225" y="460" type="line" smooth="yes"/>
      <point x="225" y="487"/>
      <point x="225" y="487"/>
      <point x="266" y="487" type="curve" smooth="yes"/>
      <point x="326" y="487" type="line" smooth="yes"/>
      <point x="430" y="487"/>
      <point x="466" y="463"/>
      <point x="466" y="397" type="curve" smooth="yes"/>
      <point x="466" y="329"/>
      <point x="434" y="301"/>
      <point x="316" y="301" type="curve" smooth="yes"/>
    </contour>
  </outline>
</glyph>
<glyph name="R" format="2">
  <advance width="725"/>
  <unicode hex="0052"/>
  <anchor x="343" y="0" name="bottom"/>
  <anchor x="323" y="600" name="top"/>
  <outline>
    <contour>
      <point x="51" y="0" type="curve" smooth="yes"/>
      <point x="245" y="0" type="line" smooth="yes"/>
      <point x="236" y="0"/>
      <point x="224" y="17"/>
      <point x="224" y="60" type="curve" smooth="yes"/>
      <point x="224" y="180" type="line" smooth="yes"/>
      <point x="224" y="207"/>
      <point x="224" y="210"/>
      <point x="265" y="210" type="curve" smooth="yes"/>
      <point x="276" y="210" type="line" smooth="yes"/>
      <point x="377" y="210"/>
      <point x="445" y="151"/>
      <point x="487" y="55" type="curve" smooth="yes"/>
      <point x="504" y="16"/>
      <point x="489" y="1"/>
      <point x="473" y="0" type="curve"/>
      <point x="725" y="0" type="line"/>
      <point x="712" y="1"/>
      <point x="684" y="21"/>
      <point x="654" y="70" type="curve" smooth="yes"/>
      <point x="607" y="146"/>
      <point x="544" y="215"/>
      <point x="491" y="236" type="curve"/>
      <point x="491" y="239" type="line"/>
      <point x="563" y="258"/>
      <point x="618" y="317"/>
      <point x="618" y="408" type="curve" smooth="yes"/>
      <point x="618" y="533"/>
      <point x="553" y="600"/>
      <point x="378" y="600" type="curve" smooth="yes"/>
      <point x="50" y="600" type="line"/>
      <point x="59" y="599"/>
      <point x="71" y="582"/>
      <point x="71" y="540" type="curve" smooth="yes"/>
      <point x="71" y="60" type="line" smooth="yes"/>
      <point x="71" y="17"/>
      <point x="60" y="0"/>
    </contour>
    <contour>
      <point x="265" y="311" type="line" smooth="yes"/>
      <point x="224" y="311"/>
      <point x="224" y="311"/>
      <point x="224" y="338" type="curve" smooth="yes"/>
      <point x="224" y="461" type="line" smooth="yes"/>
      <point x="224" y="487"/>
      <point x="224" y="487"/>
      <point x="265" y="487" type="curve" smooth="yes"/>
      <point x="357" y="487" type="line" smooth="yes"/>
      <point x="441" y="487"/>
      <point x="466" y="454"/>
      <point x="466" y="408" type="curve" smooth="yes"/>
      <point x="466" y="339"/>
      <point x="431" y="311"/>
      <point x="347" y="311" type="curve" smooth="yes"/>
    </contour>
  </outline>
</glyph>
<glyph name="S" format="2">
  <advance width="706"/>
  <unicode hex="0053"/>
  <anchor x="348" y="0" name="bottom"/>
  <anchor x="348" y="600" name="top"/>
  <outline>
    <contour>
      <point x="374" y="-10" type="curve" smooth="yes"/>
      <point x="577" y="-10"/>
      <point x="666" y="47"/>
      <point x="666" y="171" type="curve" smooth="yes"/>
      <point x="666" y="276"/>
      <point x="612" y="335"/>
      <point x="394" y="359" type="curve" smooth="yes"/>
      <point x="252" y="375"/>
      <point x="202" y="389"/>
      <point x="202" y="438" type="curve" smooth="yes"/>
      <point x="202" y="477"/>
      <point x="228" y="500"/>
      <point x="318" y="500" type="curve" smooth="yes"/>
      <point x="461" y="500"/>
      <point x="582" y="466"/>
      <point x="633" y="440" type="curve"/>
      <point x="603" y="550" type="line"/>
      <point x="603" y="580" type="line"/>
      <point x="565" y="593"/>
      <point x="462" y="610"/>
      <point x="323" y="610" type="curve" smooth="yes"/>
      <point x="124" y="610"/>
      <point x="50" y="539"/>
      <point x="50" y="436" type="curve" smooth="yes"/>
      <point x="50" y="307"/>
      <point x="140" y="265"/>
      <point x="323" y="241" type="curve" smooth="yes"/>
      <point x="475" y="221"/>
      <point x="514" y="210"/>
      <point x="514" y="162" type="curve" smooth="yes"/>
      <point x="514" y="123"/>
      <point x="488" y="100"/>
      <point x="376" y="100" type="curve" smooth="yes"/>
      <point x="193" y="100"/>
      <point x="77" y="144"/>
      <point x="40" y="177" type="curve"/>
      <point x="60" y="50" type="line"/>
      <point x="60" y="20" type="line"/>
      <point x="109" y="7"/>
      <point x="228" y="-10"/>
    </contour>
  </outline>
</glyph>
<glyph name="T" format="2">
  <advance width="680"/>
  <unicode hex="0054"/>
  <anchor x="339" y="0" name="bottom"/>
  <anchor x="339" y="300" name="center"/>
  <anchor x="339" y="600" name="top"/>
  <outline>
    <contour>
      <point x="242" y="0" type="curve" smooth="yes"/>
      <point x="438" y="0" type="line" smooth="yes"/>
      <point x="429" y="0"/>
      <point x="417" y="17"/>
      <point x="417" y="60" type="curve" smooth="yes"/>
      <point x="417" y="460" type="line" smooth="yes"/>
      <point x="417" y="489"/>
      <point x="417" y="490"/>
      <point x="458" y="490" type="curve" smooth="yes"/>
      <point x="530" y="490" type="line" smooth="yes"/>
      <point x="607" y="490"/>
      <point x="655" y="469"/>
      <point x="670" y="454" type="curve"/>
      <point x="650" y="570" type="line"/>
      <point x="650" y="600" type="line"/>
      <point x="30" y="600" type="line"/>
      <point x="30" y="570" type="line"/>
      <point x="10" y="454" type="line"/>
      <point x="25" y="469"/>
      <point x="73" y="490"/>
      <point x="150" y="490" type="curve" smooth="yes"/>
      <point x="223" y="490" type="line" smooth="yes"/>
      <point x="263" y="490"/>
      <point x="263" y="489"/>
      <point x="263" y="460" type="curve" smooth="yes"/>
      <point x="263" y="60" type="line" smooth="yes"/>
      <point x="263" y="17"/>
      <point x="251" y="0"/>
    </contour>
  </outline>
</glyph>
<glyph name="U" format="2">
  <advance width="735"/>
  <unicode hex="0055"/>
  <anchor x="368" y="0" name="bottom"/>
  <anchor x="431" y="2" name="ogonek"/>
  <anchor x="368" y="600" name="top"/>
  <anchor x="725" y="600" name="topright"/>
  <outline>
    <contour>
      <point x="363" y="-10" type="curve" smooth="yes"/>
      <point x="373" y="-10" type="line" smooth="yes"/>
      <point x="572" y="-10"/>
      <point x="665" y="91"/>
      <point x="665" y="259" type="curve" smooth="yes"/>
      <point x="665" y="540" type="line" smooth="yes"/>
      <point x="665" y="582"/>
      <point x="676" y="599"/>
      <point x="685" y="600" type="curve"/>
      <point x="493" y="600" type="line" smooth="yes"/>
      <point x="502" y="600"/>
      <point x="513" y="583"/>
      <point x="513" y="541" type="curve" smooth="yes"/>
      <point x="513" y="261" type="line" smooth="yes"/>
      <point x="513" y="130"/>
      <point x="462" y="101"/>
      <point x="375" y="101" type="curve" smooth="yes"/>
      <point x="364" y="101" type="line" smooth="yes"/>
      <point x="279" y="101"/>
      <point x="222" y="132"/>
      <point x="222" y="261" type="curve" smooth="yes"/>
      <point x="222" y="541" type="line" smooth="yes"/>
      <point x="222" y="583"/>
      <point x="233" y="599"/>
      <point x="242" y="600" type="curve"/>
      <point x="50" y="600" type="line" smooth="yes"/>
      <point x="59" y="600"/>
      <point x="70" y="584"/>
      <point x="70" y="541" type="curve" smooth="yes"/>
      <point x="70" y="259" type="line" smooth="yes"/>
      <point x="70" y="91"/>
      <point x="160" y="-10"/>
    </contour>
  </outline>
</glyph>
<glyph name="V" format="2">
  <advance width="779"/>
  <unicode hex="0056"/>
  <outline>
    <contour>
      <point x="279" y="0" type="curve"/>
      <point x="503" y="0" type="line"/>
      <point x="492" y="1"/>
      <point x="485" y="18"/>
      <point x="503" y="61" type="curve" smooth="yes"/>
      <point x="527" y="118"/>
      <point x="693" y="483"/>
      <point x="722" y="541" type="curve" smooth="yes"/>
      <point x="743" y="583"/>
      <point x="761" y="600"/>
      <point x="769" y="600" type="curve" smooth="yes"/>
      <point x="549" y="600" type="line" smooth="yes"/>
      <point x="558" y="600"/>
      <point x="564" y="584"/>
      <point x="549" y="540" type="curve" smooth="yes"/>
      <point x="534" y="495"/>
      <point x="450" y="280"/>
      <point x="392" y="130" type="curve"/>
      <point x="391" y="130" type="line"/>
      <point x="333" y="278"/>
      <point x="252" y="491"/>
      <point x="237" y="538" type="curve" smooth="yes"/>
      <point x="223" y="583"/>
      <point x="229" y="600"/>
      <point x="237" y="600" type="curve" smooth="yes"/>
      <point x="10" y="600" type="line"/>
      <point x="19" y="599"/>
      <point x="38" y="581"/>
      <point x="61" y="538" type="curve" smooth="yes"/>
      <point x="94" y="477"/>
      <point x="258" y="111"/>
      <point x="279" y="61" type="curve" smooth="yes"/>
      <point x="297" y="18"/>
      <point x="290" y="1"/>
    </contour>
  </outline>
</glyph>
<glyph name="X" format="2">
  <advance width="763"/>
  <unicode hex="0058"/>
  <outline>
    <contour>
      <point x="10" y="0" type="curve" smooth="yes"/>
      <point x="249" y="0" type="line" smooth="yes"/>
      <point x="238" y="0"/>
      <point x="236" y="16"/>
      <point x="270" y="60" type="curve" smooth="yes"/>
      <point x="312" y="115"/>
      <point x="370" y="188"/>
      <point x="381" y="203" type="curve"/>
      <point x="383" y="203" type="line"/>
      <point x="395" y="187"/>
      <point x="461" y="109"/>
      <point x="496" y="62" type="curve" smooth="yes"/>
      <point x="529" y="17"/>
      <point x="527" y="0"/>
      <point x="516" y="0" type="curve" smooth="yes"/>
      <point x="753" y="0" type="line" smooth="yes"/>
      <point x="746" y="0"/>
      <point x="722" y="17"/>
      <point x="681" y="62" type="curve" smooth="yes"/>
      <point x="643" y="103"/>
      <point x="540" y="222"/>
      <point x="472" y="301" type="curve"/>
      <point x="541" y="378"/>
      <point x="646" y="496"/>
      <point x="685" y="541" type="curve" smooth="yes"/>
      <point x="723" y="584"/>
      <point x="746" y="600"/>
      <point x="752" y="600" type="curve" smooth="yes"/>
      <point x="512" y="600" type="line" smooth="yes"/>
      <point x="519" y="600"/>
      <point x="519" y="584"/>
      <point x="492" y="540" type="curve" smooth="yes"/>
      <point x="455" y="482"/>
      <point x="395" y="408"/>
      <point x="384" y="393" type="curve"/>
      <point x="382" y="393" type="line"/>
      <point x="370" y="409"/>
      <point x="308" y="486"/>
      <point x="277" y="538" type="curve" smooth="yes"/>
      <point x="251" y="583"/>
      <point x="250" y="600"/>
      <point x="256" y="600" type="curve" smooth="yes"/>
      <point x="10" y="600" type="line" smooth="yes"/>
      <point x="18" y="600"/>
      <point x="43" y="583"/>
      <point x="82" y="538" type="curve" smooth="yes"/>
      <point x="119" y="496"/>
      <point x="223" y="378"/>
      <point x="292" y="301" type="curve"/>
      <point x="223" y="222"/>
      <point x="117" y="102"/>
      <point x="77" y="59" type="curve" smooth="yes"/>
      <point x="37" y="17"/>
      <point x="15" y="0"/>
    </contour>
  </outline>
</glyph>
<glyph name="Y" format="2">
  <advance width="743"/>
  <unicode hex="0059"/>
  <anchor x="371" y="0" name="bottom"/>
  <anchor x="371" y="600" name="top"/>
  <anchor x="10" y="600" name="topleft"/>
  <outline>
    <contour>
      <point x="270" y="0" type="curve" smooth="yes"/>
      <point x="469" y="0" type="line" smooth="yes"/>
      <point x="460" y="0"/>
      <point x="449" y="16"/>
      <point x="449" y="60" type="curve" smooth="yes"/>
      <point x="449" y="266" type="line"/>
      <point x="524" y="358"/>
      <point x="637" y="496"/>
      <point x="676" y="541" type="curve" smooth="yes"/>
      <point x="712" y="583"/>
      <point x="735" y="599"/>
      <point x="743" y="600" type="curve"/>
      <point x="513" y="600" type="line" smooth="yes"/>
      <point x="522" y="600"/>
      <point x="523" y="585"/>
      <point x="493" y="540" type="curve" smooth="yes"/>
      <point x="453" y="481"/>
      <point x="413" y="421"/>
      <point x="373" y="362" type="curve"/>
      <point x="372" y="362" type="line"/>
      <point x="338" y="414"/>
      <point x="284" y="499"/>
      <point x="256" y="538" type="curve" smooth="yes"/>
      <point x="225" y="582"/>
      <point x="227" y="599"/>
      <point x="236" y="600" type="curve"/>
      <point x="0" y="600" type="line" smooth="yes"/>
      <point x="9" y="600"/>
      <point x="34" y="583"/>
      <point x="72" y="538" type="curve" smooth="yes"/>
      <point x="108" y="495"/>
      <point x="220" y="358"/>
      <point x="295" y="266" type="curve"/>
      <point x="296" y="60" type="line" smooth="yes"/>
      <point x="296" y="16"/>
      <point x="281" y="0"/>
    </contour>
  </outline>
</glyph>
<glyph name="Z" format="2">
  <advance width="676"/>
  <unicode hex="005A"/>
  <anchor x="333" y="0" name="bottom"/>
  <anchor x="333" y="600" name="top"/>
  <outline>
    <contour>
      <point x="10" y="0" type="curve"/>
      <point x="646" y="0" type="line"/>
      <point x="646" y="31" type="line"/>
      <point x="666" y="153" type="line"/>
      <point x="655" y="135"/>
      <point x="612" y="112"/>
      <point x="536" y="112" type="curve" smooth="yes"/>
      <point x="268" y="112" type="line"/>
      <point x="268" y="115" type="line"/>
      <point x="378" y="258"/>
      <point x="488" y="401"/>
      <point x="598" y="544" type="curve" smooth="yes"/>
      <point x="620" y="572"/>
      <point x="633" y="593"/>
      <point x="636" y="600" type="curve"/>
      <point x="40" y="600" type="line"/>
      <point x="40" y="448" type="line"/>
      <point x="45" y="465"/>
      <point x="83" y="488"/>
      <point x="170" y="488" type="curve" smooth="yes"/>
      <point x="369" y="488" type="line"/>
      <point x="369" y="486" type="line"/>
      <point x="269" y="354"/>
      <point x="111" y="146"/>
      <point x="45" y="58" type="curve" smooth="yes"/>
      <point x="21" y="26"/>
      <point x="11" y="6"/>
    </contour>
  </outline>
</glyph>
<glyph name="bracketleft" format="2">
  <advance width="250"/>
  <unicode hex="005B"/>
  <outline>
    <contour>
      <point x="210" y="-80" type="curve"/>
      <point x="30" y="-80" type="line" smooth="yes"/>
      <point x="34" y="-80"/>
      <point x="40" y="-63"/>
      <point x="40" y="-20" type="curve" smooth="yes"/>
      <point x="40" y="628" type="line" smooth="yes"/>
      <point x="40" y="672"/>
      <point x="34" y="689"/>
      <point x="30" y="689" type="curve" smooth="yes"/>
      <point x="210" y="689" type="line"/>
      <point x="210" y="666"/>
      <point x="216" y="641"/>
      <point x="220" y="629" type="curve"/>
      <point x="139" y="639" type="line"/>
      <point x="139" y="-30" type="line"/>
      <point x="220" y="-20" type="line"/>
      <point x="216" y="-32"/>
      <point x="210" y="-57"/>
    </contour>
  </outline>
</glyph>
<glyph name="bracketright" format="2">
  <advance width="250"/>
  <unicode hex="005D"/>
  <outline>
    <contour>
      <point x="40" y="-80" type="curve"/>
      <point x="220" y="-80" type="line" smooth="yes"/>
      <point x="216" y="-80"/>
      <point x="210" y="-63"/>
      <point x="210" y="-20" type="curve" smooth="yes"/>
      <point x="210" y="628" type="line" smooth="yes"/>
      <point x="210" y="672"/>
      <point x="216" y="689"/>
      <point x="220" y="689" type="curve" smooth="yes"/>
      <point x="40" y="689" type="line"/>
      <point x="40" y="666"/>
      <point x="34" y="641"/>
      <point x="30" y="629" type="curve"/>
      <point x="111" y="639" type="line"/>
      <point x="111" y="-30" type="line"/>
      <point x="30" y="-20" type="line"/>
      <point x="34" y="-32"/>
      <point x="40" y="-57"/>
    </contour>
  </outline>
</glyph>
<glyph name="asciicircum" format="2">
  <advance width="382"/>
  <unicode hex="005E"/>
  <outline>
    <contour>
      <point x="30" y="340" type="curve"/>
      <point x="110" y="340" type="line"/>
      <point x="194" y="508" type="line"/>
      <point x="271" y="340" type="line"/>
      <point x="352" y="340" type="line"/>
      <point x="312" y="426"/>
      <point x="255" y="544"/>
      <point x="247" y="559" type="curve" smooth="yes"/>
      <point x="240" y="573"/>
      <point x="241" y="579"/>
      <point x="244" y="580" type="curve"/>
      <point x="143" y="580" type="line" smooth="yes"/>
      <point x="146" y="580"/>
      <point x="146" y="574"/>
      <point x="139" y="559" type="curve" smooth="yes"/>
      <point x="103" y="486"/>
      <point x="66" y="413"/>
    </contour>
  </outline>
</glyph>
<glyph name="c" format="2">
  <advance width="555"/>
  <unicode hex="0063"/>
  <anchor x="278" y="0" name="bottom"/>
  <anchor x="278" y="468" name="top"/>
  <outline>
    <contour>
      <point x="301" y="-10" type="curve" smooth="yes"/>
      <point x="413" y="-10"/>
      <point x="489" y="17"/>
      <point x="515" y="38" type="curve"/>
      <point x="505" y="118" type="line"/>
      <point x="505" y="148" type="line"/>
      <point x="483" y="124"/>
      <point x="419" y="93"/>
      <point x="325" y="93" type="curve" smooth="yes"/>
      <point x="212" y="93"/>
      <point x="171" y="133"/>
      <point x="171" y="232" type="curve" smooth="yes"/>
      <point x="171" y="332"/>
      <point x="211" y="377"/>
      <point x="298" y="377" type="curve" smooth="yes"/>
      <point x="405" y="377"/>
      <point x="485" y="339"/>
      <point x="515" y="311" type="curve"/>
      <point x="495" y="418" type="line"/>
      <point x="495" y="448" type="line"/>
      <point x="460" y="460"/>
      <point x="380" y="477"/>
      <point x="291" y="477" type="curve" smooth="yes"/>
      <point x="120" y="477"/>
      <point x="30" y="396"/>
      <point x="30" y="233" type="curve" smooth="yes"/>
      <point x="30" y="95"/>
      <point x="92" y="-10"/>
    </contour>
  </outline>
</glyph>
<glyph name="e" format="2">
  <advance width="566"/>
  <unicode hex="0065"/>
  <anchor x="283" y="0" name="bottom"/>
  <anchor x="430" y="16" name="ogonek"/>
  <anchor x="283" y="468" name="top"/>
  <outline>
    <contour>
      <point x="302" y="-10" type="curve" smooth="yes"/>
      <point x="416" y="-10"/>
      <point x="490" y="13"/>
      <point x="515" y="30" type="curve"/>
      <point x="505" y="106" type="line"/>
      <point x="505" y="136" type="line"/>
      <point x="474" y="117"/>
      <point x="402" y="91"/>
      <point x="317" y="91" type="curve" smooth="yes"/>
      <point x="216" y="91"/>
      <point x="174" y="128"/>
      <point x="174" y="201" type="curve"/>
      <point x="406" y="201" type="line" smooth="yes"/>
      <point x="493" y="201"/>
      <point x="526" y="195"/>
      <point x="526" y="191" type="curve" smooth="yes"/>
      <point x="526" y="238" type="line" smooth="yes"/>
      <point x="526" y="352"/>
      <point x="489" y="478"/>
      <point x="286" y="478" type="curve" smooth="yes"/>
      <point x="113" y="478"/>
      <point x="30" y="384"/>
      <point x="30" y="233" type="curve" smooth="yes"/>
      <point x="30" y="81"/>
      <point x="91" y="-10"/>
    </contour>
    <contour>
      <point x="211" y="287" type="line" smooth="yes"/>
      <point x="190" y="287"/>
      <point x="183" y="293"/>
      <point x="183" y="307" type="curve" smooth="yes"/>
      <point x="183" y="340"/>
      <point x="212" y="378"/>
      <point x="286" y="378" type="curve" smooth="yes"/>
      <point x="359" y="378"/>
      <point x="384" y="331"/>
      <point x="384" y="287" type="curve"/>
    </contour>
  </outline>
</glyph>
<glyph name="f" format="2">
  <advance width="424"/>
  <unicode hex="0066"/>
  <outline>
    <contour>
      <point x="70" y="0" type="curve" smooth="yes"/>
      <point x="254" y="0" type="line" smooth="yes"/>
      <point x="245" y="0"/>
      <point x="234" y="17"/>
      <point x="234" y="60" type="curve" smooth="yes"/>
      <point x="234" y="368" type="line"/>
      <point x="385" y="368" type="line"/>
      <point x="385" y="421"/>
      <point x="396" y="456"/>
      <point x="405" y="468" type="curve"/>
      <point x="255" y="468" type="line" smooth="yes"/>
      <point x="224" y="468"/>
      <point x="224" y="469"/>
      <point x="224" y="498" type="curve" smooth="yes"/>
      <point x="224" y="560" type="line" smooth="yes"/>
      <point x="224" y="598"/>
      <point x="240" y="619"/>
      <point x="283" y="619" type="curve" smooth="yes"/>
      <point x="346" y="619"/>
      <point x="417" y="585"/>
      <point x="454" y="560" type="curve"/>
      <point x="434" y="669" type="line"/>
      <point x="434" y="700" type="line"/>
      <point x="405" y="709"/>
      <point x="335" y="720"/>
      <point x="250" y="720" type="curve" smooth="yes"/>
      <point x="144" y="720"/>
      <point x="80" y="676"/>
      <point x="80" y="571" type="curve" smooth="yes"/>
      <point x="80" y="519"/>
      <point x="97" y="476"/>
      <point x="101" y="470" type="curve"/>
      <point x="100" y="468" type="line"/>
      <point x="0" y="468" type="line"/>
      <point x="0" y="368" type="line"/>
      <point x="90" y="368" type="line"/>
      <point x="90" y="60" type="line" smooth="yes"/>
      <point x="90" y="17"/>
      <point x="79" y="0"/>
    </contour>
  </outline>
</glyph>
<glyph name="j" format="2">
  <advance width="264"/>
  <unicode hex="006A"/>
  <outline>
    <contour>
      <point x="3" y="-244" type="curve" smooth="yes"/>
      <point x="142" y="-244"/>
      <point x="206" y="-189"/>
      <point x="206" y="-11" type="curve" smooth="yes"/>
      <point x="206" y="468" type="line"/>
      <point x="44" y="468" type="line" smooth="yes"/>
      <point x="53" y="468"/>
      <point x="64" y="451"/>
      <point x="64" y="408" type="curve" smooth="yes"/>
      <point x="64" y="-11" type="line" smooth="yes"/>
      <point x="64" y="-103"/>
      <point x="48" y="-145"/>
      <point x="5" y="-145" type="curve" smooth="yes"/>
      <point x="-42" y="-145"/>
      <point x="-75" y="-110"/>
      <point x="-87" y="-84" type="curve"/>
      <point x="-87" y="-114" type="line"/>
      <point x="-107" y="-224" type="line"/>
      <point x="-93" y="-233"/>
      <point x="-53" y="-244"/>
    </contour>
    <contour>
      <point x="124" y="544" type="curve" smooth="yes"/>
      <point x="174" y="544"/>
      <point x="205" y="572"/>
      <point x="205" y="619" type="curve" smooth="yes"/>
      <point x="205" y="666"/>
      <point x="175" y="694"/>
      <point x="124" y="694" type="curve" smooth="yes"/>
      <point x="73" y="694"/>
      <point x="43" y="666"/>
      <point x="43" y="619" type="curve" smooth="yes"/>
      <point x="43" y="572"/>
      <point x="74" y="544"/>
    </contour>
  </outline>
</glyph>
<glyph name="l" format="2">
  <advance width="283"/>
  <unicode hex="006C"/>
  <anchor x="141" y="0" name="bottom"/>
  <anchor x="141" y="364" name="center"/>
  <anchor x="141" y="668" name="top"/>
  <anchor x="212" y="468" name="topright"/>
  <outline>
    <contour>
      <point x="50" y="0" type="curve" smooth="yes"/>
      <point x="233" y="0" type="line" smooth="yes"/>
      <point x="224" y="0"/>
      <point x="213" y="17"/>
      <point x="213" y="60" type="curve" smooth="yes"/>
      <point x="213" y="710" type="line"/>
      <point x="195" y="701"/>
      <point x="139" y="690"/>
      <point x="51" y="690" type="curve" smooth="yes"/>
      <point x="60" y="690"/>
      <point x="71" y="673"/>
      <point x="71" y="630" type="curve" smooth="yes"/>
      <point x="71" y="60" type="line" smooth="yes"/>
      <point x="71" y="17"/>
      <point x="59" y="0"/>
    </contour>
  </outline>
</glyph>
<glyph name="m" format="2">
  <advance width="925"/>
  <unicode hex="006D"/>
  <outline>
    <contour>
      <point x="44" y="0" type="curve" smooth="yes"/>
      <point x="226" y="0" type="line" smooth="yes"/>
      <point x="217" y="0"/>
      <point x="206" y="17"/>
      <point x="206" y="60" type="curve" smooth="yes"/>
      <point x="206" y="247" type="line" smooth="yes"/>
      <point x="206" y="340"/>
      <point x="260" y="378"/>
      <point x="317" y="378" type="curve" smooth="yes"/>
      <point x="362" y="378"/>
      <point x="395" y="350"/>
      <point x="395" y="256" type="curve" smooth="yes"/>
      <point x="395" y="60" type="line" smooth="yes"/>
      <point x="395" y="17"/>
      <point x="384" y="0"/>
      <point x="375" y="0" type="curve" smooth="yes"/>
      <point x="557" y="0" type="line" smooth="yes"/>
      <point x="548" y="0"/>
      <point x="537" y="17"/>
      <point x="537" y="60" type="curve" smooth="yes"/>
      <point x="537" y="259" type="line" smooth="yes"/>
      <point x="537" y="410"/>
      <point x="469" y="478"/>
      <point x="345" y="478" type="curve" smooth="yes"/>
      <point x="257" y="478"/>
      <point x="211" y="415"/>
      <point x="206" y="402" type="curve"/>
      <point x="204" y="404" type="line"/>
      <point x="206" y="417" type="line"/>
      <point x="206" y="478" type="line"/>
      <point x="171" y="469"/>
      <point x="102" y="458"/>
      <point x="44" y="458" type="curve"/>
      <point x="53" y="457"/>
      <point x="64" y="440"/>
      <point x="64" y="398" type="curve" smooth="yes"/>
      <point x="64" y="60" type="line" smooth="yes"/>
      <point x="64" y="17"/>
      <point x="53" y="0"/>
    </contour>
    <contour>
      <point x="705" y="0" type="curve"/>
      <point x="887" y="0" type="line"/>
      <point x="878" y="1"/>
      <point x="867" y="18"/>
      <point x="867" y="60" type="curve" smooth="yes"/>
      <point x="867" y="249" type="line" smooth="yes"/>
      <point x="867" y="420"/>
      <point x="795" y="478"/>
      <point x="675" y="478" type="curve" smooth="yes"/>
      <point x="549" y="478"/>
      <point x="464" y="366"/>
      <point x="464" y="237" type="curve"/>
      <point x="537" y="237" type="line"/>
      <point x="537" y="331"/>
      <point x="581" y="378"/>
      <point x="647" y="378" type="curve" smooth="yes"/>
      <point x="704" y="378"/>
      <point x="725" y="327"/>
      <point x="725" y="247" type="curve" smooth="yes"/>
      <point x="725" y="60" type="line" smooth="yes"/>
      <point x="725" y="18"/>
      <point x="714" y="1"/>
    </contour>
  </outline>
</glyph>
<glyph name="n" format="2">
  <advance width="595"/>
  <unicode hex="006E"/>
  <anchor x="292" y="0" name="bottom"/>
  <anchor x="302" y="468" name="top"/>
  <outline>
    <contour>
      <point x="44" y="0" type="curve" smooth="yes"/>
      <point x="226" y="0" type="line" smooth="yes"/>
      <point x="217" y="0"/>
      <point x="206" y="17"/>
      <point x="206" y="60" type="curve" smooth="yes"/>
      <point x="206" y="247" type="line" smooth="yes"/>
      <point x="206" y="340"/>
      <point x="260" y="378"/>
      <point x="317" y="378" type="curve" smooth="yes"/>
      <point x="362" y="378"/>
      <point x="395" y="350"/>
      <point x="395" y="256" type="curve" smooth="yes"/>
      <point x="395" y="60" type="line" smooth="yes"/>
      <point x="395" y="17"/>
      <point x="384" y="0"/>
      <point x="375" y="0" type="curve" smooth="yes"/>
      <point x="557" y="0" type="line" smooth="yes"/>
      <point x="548" y="0"/>
      <point x="537" y="17"/>
      <point x="537" y="60" type="curve" smooth="yes"/>
      <point x="537" y="259" type="line" smooth="yes"/>
      <point x="537" y="410"/>
      <point x="469" y="478"/>
      <point x="345" y="478" type="curve" smooth="yes"/>
      <point x="257" y="478"/>
      <point x="211" y="415"/>
      <point x="206" y="402" type="curve"/>
      <point x="204" y="404" type="line"/>
      <point x="206" y="417" type="line"/>
      <point x="206" y="478" type="line"/>
      <point x="171" y="469"/>
      <point x="102" y="458"/>
      <point x="44" y="458" type="curve"/>
      <point x="53" y="457"/>
      <point x="64" y="440"/>
      <point x="64" y="398" type="curve" smooth="yes"/>
      <point x="64" y="60" type="line" smooth="yes"/>
      <point x="64" y="17"/>
      <point x="53" y="0"/>
    </contour>
  </outline>
</glyph>
<glyph name="o" format="2">
  <advance width="576"/>
  <unicode hex="006F"/>
  <anchor x="288" y="0" name="bottom"/>
  <anchor x="288" y="234" name="center"/>
  <anchor x="373" y="10" name="ogonek"/>
  <anchor x="288" y="468" name="top"/>
  <anchor x="566" y="378" name="topright"/>
  <outline>
    <contour>
      <point x="288" y="-10" type="curve" smooth="yes"/>
      <point x="489" y="-10"/>
      <point x="546" y="94"/>
      <point x="546" y="233" type="curve" smooth="yes"/>
      <point x="546" y="372"/>
      <point x="486" y="478"/>
      <point x="288" y="478" type="curve" smooth="yes"/>
      <point x="90" y="478"/>
      <point x="30" y="372"/>
      <point x="30" y="233" type="curve" smooth="yes"/>
      <point x="30" y="94"/>
      <point x="87" y="-10"/>
    </contour>
    <contour>
      <point x="288" y="91" type="curve" smooth="yes"/>
      <point x="204" y="91"/>
      <point x="172" y="125"/>
      <point x="172" y="232" type="curve" smooth="yes"/>
      <point x="172" y="339"/>
      <point x="205" y="378"/>
      <point x="288" y="378" type="curve" smooth="yes"/>
      <point x="371" y="378"/>
      <point x="404" y="343"/>
      <point x="404" y="233" type="curve" smooth="yes"/>
      <point x="404" y="123"/>
      <point x="372" y="91"/>
    </contour>
  </outline>
</glyph>
<glyph name="q" format="2">
  <advance width="606"/>
  <unicode hex="0071"/>
  <outline>
    <contour>
      <point x="384" y="-244" type="curve"/>
      <point x="422" y="-235"/>
      <point x="494" y="-224"/>
      <point x="555" y="-224" type="curve" smooth="yes"/>
      <point x="547" y="-224"/>
      <point x="536" y="-207"/>
      <point x="536" y="-164" type="curve" smooth="yes"/>
      <point x="536" y="406" type="line" smooth="yes"/>
      <point x="536" y="450"/>
      <point x="547" y="467"/>
      <point x="556" y="468" type="curve"/>
      <point x="394" y="468" type="line"/>
      <point x="394" y="458" type="line"/>
      <point x="396" y="439" type="line"/>
      <point x="394" y="438" type="line"/>
      <point x="364" y="463"/>
      <point x="320" y="478"/>
      <point x="261" y="478" type="curve" smooth="yes"/>
      <point x="82" y="478"/>
      <point x="30" y="372"/>
      <point x="30" y="233" type="curve" smooth="yes"/>
      <point x="30" y="94"/>
      <point x="82" y="-10"/>
      <point x="261" y="-10" type="curve" smooth="yes"/>
      <point x="319" y="-10"/>
      <point x="363" y="7"/>
      <point x="394" y="33" type="curve"/>
      <point x="396" y="32" type="line"/>
      <point x="394" y="13" type="line"/>
      <point x="394" y="-164" type="line" smooth="yes"/>
      <point x="394" y="-205"/>
      <point x="388" y="-234"/>
    </contour>
    <contour>
      <point x="278" y="91" type="curve" smooth="yes"/>
      <point x="211" y="91"/>
      <point x="171" y="125"/>
      <point x="171" y="232" type="curve" smooth="yes"/>
      <point x="171" y="339"/>
      <point x="214" y="378"/>
      <point x="278" y="378" type="curve" smooth="yes"/>
      <point x="366" y="378"/>
      <point x="394" y="319"/>
      <point x="394" y="233" type="curve" smooth="yes"/>
      <point x="394" y="147"/>
      <point x="367" y="91"/>
    </contour>
  </outline>
</glyph>
<glyph name="r" format="2">
  <advance width="487"/>
  <unicode hex="0072"/>
  <anchor x="262" y="0" name="bottom"/>
  <anchor x="262" y="468" name="top"/>
  <outline>
    <contour>
      <point x="44" y="0" type="curve" smooth="yes"/>
      <point x="226" y="0" type="line" smooth="yes"/>
      <point x="217" y="0"/>
      <point x="206" y="17"/>
      <point x="206" y="60" type="curve" smooth="yes"/>
      <point x="206" y="260" type="line" smooth="yes"/>
      <point x="206" y="335"/>
      <point x="230" y="368"/>
      <point x="278" y="368" type="curve" smooth="yes"/>
      <point x="342" y="368"/>
      <point x="406" y="314"/>
      <point x="437" y="273" type="curve"/>
      <point x="437" y="303" type="line"/>
      <point x="467" y="437" type="line"/>
      <point x="445" y="455"/>
      <point x="391" y="478"/>
      <point x="326" y="478" type="curve" smooth="yes"/>
      <point x="259" y="478"/>
      <point x="220" y="440"/>
      <point x="206" y="419" type="curve"/>
      <point x="204" y="421" type="line"/>
      <point x="206" y="438" type="line"/>
      <point x="206" y="478" type="line"/>
      <point x="171" y="469"/>
      <point x="102" y="458"/>
      <point x="44" y="458" type="curve"/>
      <point x="53" y="457"/>
      <point x="64" y="440"/>
      <point x="64" y="398" type="curve" smooth="yes"/>
      <point x="64" y="60" type="line" smooth="yes"/>
      <point x="64" y="17"/>
      <point x="53" y="0"/>
    </contour>
  </outline>
</glyph>
<glyph name="t" format="2">
  <advance width="433"/>
  <unicode hex="0074"/>
  <anchor x="227" y="0" name="bottom"/>
  <anchor x="193" y="264" name="center"/>
  <anchor x="194" y="558" name="top"/>
  <anchor x="373" y="468" name="topright"/>
  <outline>
    <contour>
      <point x="241" y="-10" type="curve" smooth="yes"/>
      <point x="325" y="-10"/>
      <point x="388" y="17"/>
      <point x="412" y="38" type="curve"/>
      <point x="402" y="135" type="line"/>
      <point x="402" y="166" type="line"/>
      <point x="375" y="134"/>
      <point x="326" y="91"/>
      <point x="292" y="91" type="curve" smooth="yes"/>
      <point x="257" y="91"/>
      <point x="252" y="109"/>
      <point x="252" y="171" type="curve" smooth="yes"/>
      <point x="252" y="368" type="line"/>
      <point x="403" y="368" type="line"/>
      <point x="403" y="396"/>
      <point x="414" y="441"/>
      <point x="423" y="468" type="curve"/>
      <point x="252" y="468" type="line"/>
      <point x="252" y="601" type="line"/>
      <point x="140" y="601" type="line"/>
      <point x="140" y="497"/>
      <point x="111" y="468"/>
      <point x="20" y="468" type="curve"/>
      <point x="20" y="368" type="line"/>
      <point x="110" y="368" type="line"/>
      <point x="110" y="116" type="line" smooth="yes"/>
      <point x="110" y="26"/>
      <point x="149" y="-10"/>
    </contour>
  </outline>
</glyph>
<glyph name="u" format="2">
  <advance width="596"/>
  <unicode hex="0075"/>
  <anchor x="301" y="0" name="bottom"/>
  <anchor x="501" y="10" name="ogonek"/>
  <anchor x="311" y="468" name="top"/>
  <anchor x="598" y="468" name="topright"/>
  <outline>
    <contour>
      <point x="246" y="-10" type="curve" smooth="yes"/>
      <point x="316" y="-10"/>
      <point x="369" y="20"/>
      <point x="396" y="61" type="curve"/>
      <point x="398" y="59" type="line"/>
      <point x="396" y="39" type="line"/>
      <point x="396" y="0" type="line"/>
      <point x="558" y="0" type="line" smooth="yes"/>
      <point x="549" y="0"/>
      <point x="538" y="17"/>
      <point x="538" y="60" type="curve" smooth="yes"/>
      <point x="538" y="468" type="line"/>
      <point x="376" y="468" type="line"/>
      <point x="385" y="467"/>
      <point x="396" y="450"/>
      <point x="396" y="408" type="curve" smooth="yes"/>
      <point x="396" y="236" type="line" smooth="yes"/>
      <point x="396" y="161"/>
      <point x="371" y="91"/>
      <point x="284" y="91" type="curve" smooth="yes"/>
      <point x="243" y="91"/>
      <point x="206" y="124"/>
      <point x="206" y="208" type="curve" smooth="yes"/>
      <point x="206" y="408" type="line" smooth="yes"/>
      <point x="206" y="451"/>
      <point x="219" y="468"/>
      <point x="228" y="468" type="curve" smooth="yes"/>
      <point x="44" y="468" type="line" smooth="yes"/>
      <point x="53" y="468"/>
      <point x="64" y="451"/>
      <point x="64" y="408" type="curve" smooth="yes"/>
      <point x="64" y="222" type="line" smooth="yes"/>
      <point x="64" y="42"/>
      <point x="129" y="-10"/>
    </contour>
  </outline>
</glyph>
<glyph name="v" format="2">
  <advance width="590"/>
  <unicode hex="0076"/>
  <outline>
    <contour>
      <point x="184" y="0" type="curve" smooth="yes"/>
      <point x="408" y="0" type="line" smooth="yes"/>
      <point x="399" y="0"/>
      <point x="393" y="15"/>
      <point x="408" y="60" type="curve" smooth="yes"/>
      <point x="427" y="117"/>
      <point x="529" y="349"/>
      <point x="553" y="409" type="curve" smooth="yes"/>
      <point x="571" y="452"/>
      <point x="590" y="468"/>
      <point x="600" y="468" type="curve" smooth="yes"/>
      <point x="401" y="468" type="line" smooth="yes"/>
      <point x="410" y="468"/>
      <point x="416" y="451"/>
      <point x="401" y="408" type="curve" smooth="yes"/>
      <point x="366" y="305"/>
      <point x="332" y="202"/>
      <point x="297" y="99" type="curve"/>
      <point x="296" y="99" type="line"/>
      <point x="261" y="204"/>
      <point x="208" y="360"/>
      <point x="193" y="406" type="curve" smooth="yes"/>
      <point x="178" y="451"/>
      <point x="184" y="468"/>
      <point x="193" y="468" type="curve" smooth="yes"/>
      <point x="-10" y="468" type="line" smooth="yes"/>
      <point x="1" y="468"/>
      <point x="22" y="451"/>
      <point x="41" y="406" type="curve" smooth="yes"/>
      <point x="68" y="343"/>
      <point x="169" y="103"/>
      <point x="184" y="60" type="curve" smooth="yes"/>
      <point x="200" y="16"/>
      <point x="193" y="0"/>
    </contour>
  </outline>
</glyph>
<glyph name="x" format="2">
  <advance width="602"/>
  <unicode hex="0078"/>
  <outline>
    <contour>
      <point x="-8" y="0" type="curve" smooth="yes"/>
      <point x="208" y="0" type="line" smooth="yes"/>
      <point x="199" y="0"/>
      <point x="199" y="16"/>
      <point x="229" y="60" type="curve" smooth="yes"/>
      <point x="251" y="92"/>
      <point x="280" y="140"/>
      <point x="296" y="167" type="curve"/>
      <point x="298" y="167" type="line"/>
      <point x="318" y="140"/>
      <point x="353" y="93"/>
      <point x="374" y="62" type="curve" smooth="yes"/>
      <point x="405" y="17"/>
      <point x="403" y="0"/>
      <point x="394" y="0" type="curve" smooth="yes"/>
      <point x="610" y="0" type="line" smooth="yes"/>
      <point x="603" y="0"/>
      <point x="578" y="17"/>
      <point x="538" y="62" type="curve" smooth="yes"/>
      <point x="486" y="120"/>
      <point x="435" y="177"/>
      <point x="383" y="235" type="curve"/>
      <point x="424" y="284"/>
      <point x="493" y="364"/>
      <point x="532" y="409" type="curve" smooth="yes"/>
      <point x="569" y="451"/>
      <point x="597" y="468"/>
      <point x="609" y="468" type="curve" smooth="yes"/>
      <point x="390" y="468" type="line" smooth="yes"/>
      <point x="398" y="468"/>
      <point x="398" y="452"/>
      <point x="370" y="408" type="curve" smooth="yes"/>
      <point x="347" y="374"/>
      <point x="318" y="330"/>
      <point x="302" y="307" type="curve"/>
      <point x="300" y="307" type="line"/>
      <point x="282" y="333"/>
      <point x="249" y="378"/>
      <point x="229" y="406" type="curve" smooth="yes"/>
      <point x="198" y="450"/>
      <point x="199" y="467"/>
      <point x="208" y="468" type="curve"/>
      <point x="-8" y="468" type="line" smooth="yes"/>
      <point x="-1" y="468"/>
      <point x="23" y="451"/>
      <point x="63" y="406" type="curve" smooth="yes"/>
      <point x="101" y="364"/>
      <point x="171" y="284"/>
      <point x="213" y="235" type="curve"/>
      <point x="174" y="186"/>
      <point x="108" y="104"/>
      <point x="70" y="59" type="curve" smooth="yes"/>
      <point x="34" y="17"/>
      <point x="4" y="0"/>
    </contour>
  </outline>
</glyph>
<glyph name="z" format="2">
  <advance width="536"/>
  <unicode hex="007A"/>
  <anchor x="268" y="0" name="bottom"/>
  <anchor x="288" y="468" name="top"/>
  <outline>
    <contour>
      <point x="21" y="0" type="curve"/>
      <point x="496" y="0" type="line"/>
      <point x="496" y="31" type="line"/>
      <point x="516" y="123" type="line"/>
      <point x="504" y="114"/>
      <point x="458" y="102"/>
      <point x="376" y="102" type="curve" smooth="yes"/>
      <point x="248" y="102" type="line"/>
      <point x="248" y="105" type="line"/>
      <point x="308" y="189"/>
      <point x="408" y="331"/>
      <point x="463" y="412" type="curve" smooth="yes"/>
      <point x="481" y="438"/>
      <point x="493" y="459"/>
      <point x="496" y="468" type="curve"/>
      <point x="377" y="468"/>
      <point x="193" y="468"/>
      <point x="120" y="468" type="curve" smooth="yes"/>
      <point x="20" y="468" type="line"/>
      <point x="20" y="346" type="line"/>
      <point x="22" y="355"/>
      <point x="55" y="366"/>
      <point x="140" y="366" type="curve" smooth="yes"/>
      <point x="269" y="366" type="line"/>
      <point x="269" y="364" type="line"/>
      <point x="202" y="269"/>
      <point x="98" y="120"/>
      <point x="55" y="56" type="curve" smooth="yes"/>
      <point x="37" y="30"/>
      <point x="25" y="9"/>
    </contour>
  </outline>
</glyph>
<glyph name="bar" format="2">
  <advance width="252"/>
  <unicode hex="007C"/>
  <outline>
    <contour>
      <point x="70" y="-170" type="line"/>
      <point x="180" y="-170" type="line"/>
      <point x="180" y="690" type="line"/>
      <point x="70" y="690" type="line"/>
    </contour>
  </outline>
</glyph>
<glyph name="braceright" format="2">
  <advance width="311"/>
  <unicode hex="007D"/>
  <outline>
    <contour>
      <point x="40" y="-80" type="curve"/>
      <point x="129" y="-80" type="line" smooth="yes"/>
      <point x="186" y="-80"/>
      <point x="209" y="-40"/>
      <point x="209" y="20" type="curve" smooth="yes"/>
      <point x="209" y="209" type="line" smooth="yes"/>
      <point x="209" y="280"/>
      <point x="252" y="299"/>
      <point x="281" y="289" type="curve"/>
      <point x="281" y="329" type="line"/>
      <point x="251" y="319"/>
      <point x="209" y="343"/>
      <point x="209" y="419" type="curve" smooth="yes"/>
      <point x="209" y="588" type="line" smooth="yes"/>
      <point x="209" y="649"/>
      <point x="186" y="689"/>
      <point x="129" y="689" type="curve" smooth="yes"/>
      <point x="40" y="689" type="line"/>
      <point x="40" y="658"/>
      <point x="34" y="636"/>
      <point x="30" y="629" type="curve"/>
      <point x="37" y="633"/>
      <point x="53" y="639"/>
      <point x="70" y="639" type="curve" smooth="yes"/>
      <point x="93" y="639"/>
      <point x="110" y="629"/>
      <point x="110" y="569" type="curve" smooth="yes"/>
      <point x="110" y="429" type="line" smooth="yes"/>
      <point x="110" y="358"/>
      <point x="140" y="319"/>
      <point x="163" y="310" type="curve"/>
      <point x="163" y="308" type="line"/>
      <point x="140" y="300"/>
      <point x="110" y="265"/>
      <point x="110" y="199" type="curve" smooth="yes"/>
      <point x="110" y="40" type="line" smooth="yes"/>
      <point x="110" y="-19"/>
      <point x="94" y="-30"/>
      <point x="70" y="-30" type="curve" smooth="yes"/>
      <point x="52" y="-30"/>
      <point x="37" y="-24"/>
      <point x="30" y="-20" type="curve"/>
      <point x="34" y="-32"/>
      <point x="40" y="-57"/>
    </contour>
  </outline>
</glyph>
<glyph name="exclamdown" format="2">
  <advance width="322"/>
  <unicode hex="00A1"/>
  <outline>
    <contour>
      <point x="159" y="-140" type="curve" smooth="yes"/>
      <point x="215" y="-140"/>
      <point x="240" y="-117"/>
      <point x="240" y="-70" type="curve" smooth="yes"/>
      <point x="240" y="51"/>
      <point x="185" y="283"/>
      <point x="161" y="283" type="curve" smooth="yes"/>
      <point x="137" y="283"/>
      <point x="80" y="48"/>
      <point x="80" y="-69" type="curve" smooth="yes"/>
      <point x="80" y="-117"/>
      <point x="103" y="-140"/>
    </contour>
    <component base="period" xOffset="30" yOffset="380"/>
  </outline>
</glyph>
<glyph name="cent" format="2">
  <advance width="555"/>
  <unicode hex="00A2"/>
  <outline>
    <contour>
      <point x="301" y="-10" type="curve" smooth="yes"/>
      <point x="413" y="-10"/>
      <point x="489" y="17"/>
      <point x="515" y="38" type="curve"/>
      <point x="505" y="138" type="line"/>
      <point x="505" y="168" type="line"/>
      <point x="483" y="136"/>
      <point x="419" y="93"/>
      <point x="325" y="93" type="curve" smooth="yes"/>
      <point x="212" y="93"/>
      <point x="171" y="133"/>
      <point x="171" y="232" type="curve" smooth="yes"/>
      <point x="171" y="332"/>
      <point x="211" y="377"/>
      <point x="298" y="377" type="curve" smooth="yes"/>
      <point x="405" y="377"/>
      <point x="485" y="339"/>
      <point x="515" y="311" type="curve"/>
      <point x="495" y="428" type="line"/>
      <point x="495" y="458" type="line"/>
      <point x="460" y="466"/>
      <point x="380" y="477"/>
      <point x="291" y="477" type="curve" smooth="yes"/>
      <point x="120" y="477"/>
      <point x="30" y="396"/>
      <point x="30" y="233" type="curve" smooth="yes"/>
      <point x="30" y="95"/>
      <point x="92" y="-10"/>
    </contour>
    <contour>
      <point x="260" y="-60" type="curve"/>
      <point x="393" y="-60" type="line"/>
      <point x="384" y="-55"/>
      <point x="372" y="-36"/>
      <point x="372" y="0" type="curve" smooth="yes"/>
      <point x="372" y="479" type="line" smooth="yes"/>
      <point x="372" y="516"/>
      <point x="384" y="536"/>
      <point x="393" y="540" type="curve"/>
      <point x="270" y="540" type="line"/>
      <point x="274" y="535"/>
      <point x="280" y="516"/>
      <point x="280" y="480" type="curve" smooth="yes"/>
      <point x="280" y="0" type="line" smooth="yes"/>
      <point x="280" y="-37"/>
      <point x="269" y="-56"/>
    </contour>
  </outline>
</glyph>
<glyph name="sterling" format="2">
  <advance width="627"/>
  <unicode hex="00A3"/>
  <outline>
    <contour>
      <point x="50" y="270" type="curve"/>
      <point x="59" y="274"/>
      <point x="97" y="280"/>
      <point x="170" y="280" type="curve" smooth="yes"/>
      <point x="426" y="280" type="line"/>
      <point x="426" y="315"/>
      <point x="437" y="352"/>
      <point x="446" y="370" type="curve"/>
      <point x="439" y="366"/>
      <point x="407" y="360"/>
      <point x="346" y="360" type="curve" smooth="yes"/>
      <point x="70" y="360" type="line"/>
      <point x="70" y="327"/>
      <point x="59" y="289"/>
    </contour>
    <contour>
      <point x="70" y="0" type="curve"/>
      <point x="557" y="0" type="line"/>
      <point x="557" y="31" type="line"/>
      <point x="577" y="151" type="line"/>
      <point x="558" y="134"/>
      <point x="507" y="111"/>
      <point x="437" y="111" type="curve" smooth="yes"/>
      <point x="268" y="111" type="line"/>
      <point x="268" y="114" type="line"/>
      <point x="278" y="122"/>
      <point x="292" y="156"/>
      <point x="292" y="220" type="curve" smooth="yes"/>
      <point x="292" y="390" type="line" smooth="yes"/>
      <point x="292" y="469"/>
      <point x="328" y="500"/>
      <point x="381" y="500" type="curve" smooth="yes"/>
      <point x="425" y="500"/>
      <point x="460" y="466"/>
      <point x="475" y="440" type="curve"/>
      <point x="475" y="470" type="line"/>
      <point x="485" y="580" type="line"/>
      <point x="463" y="593"/>
      <point x="412" y="610"/>
      <point x="351" y="610" type="curve" smooth="yes"/>
      <point x="231" y="610"/>
      <point x="140" y="532"/>
      <point x="140" y="390" type="curve" smooth="yes"/>
      <point x="140" y="160" type="line" smooth="yes"/>
      <point x="140" y="53"/>
      <point x="111" y="18"/>
    </contour>
  </outline>
</glyph>
<glyph name="currency" format="2">
  <advance width="539"/>
  <unicode hex="00A4"/>
  <outline>
    <contour>
      <point x="269" y="117" type="curve" smooth="yes"/>
      <point x="415" y="117"/>
      <point x="486" y="187"/>
      <point x="486" y="297" type="curve" smooth="yes"/>
      <point x="486" y="412"/>
      <point x="409" y="482"/>
      <point x="269" y="482" type="curve" smooth="yes"/>
      <point x="129" y="482"/>
      <point x="53" y="412"/>
      <point x="53" y="297" type="curve" smooth="yes"/>
      <point x="53" y="187"/>
      <point x="123" y="117"/>
    </contour>
    <contour>
      <point x="269" y="220" type="curve" smooth="yes"/>
      <point x="217" y="220"/>
      <point x="194" y="240"/>
      <point x="194" y="297" type="curve" smooth="yes"/>
      <point x="194" y="358"/>
      <point x="218" y="380"/>
      <point x="269" y="380" type="curve" smooth="yes"/>
      <point x="320" y="380"/>
      <point x="344" y="361"/>
      <point x="344" y="298" type="curve" smooth="yes"/>
      <point x="344" y="238"/>
      <point x="321" y="220"/>
    </contour>
    <contour>
      <point x="103" y="80" type="line"/>
      <point x="157" y="145" type="line"/>
      <point x="115" y="187" type="line"/>
      <point x="50" y="133" type="line"/>
    </contour>
    <contour>
      <point x="115" y="411" type="line"/>
      <point x="157" y="453" type="line"/>
      <point x="103" y="518" type="line"/>
      <point x="50" y="465" type="line"/>
    </contour>
    <contour>
      <point x="436" y="80" type="line"/>
      <point x="489" y="133" type="line"/>
      <point x="424" y="187" type="line"/>
      <point x="382" y="145" type="line"/>
    </contour>
    <contour>
      <point x="424" y="411" type="line"/>
      <point x="489" y="465" type="line"/>
      <point x="436" y="518" type="line"/>
      <point x="382" y="453" type="line"/>
    </contour>
  </outline>
</glyph>
<glyph name="yen" format="2">
  <advance width="742"/>
  <unicode hex="00A5"/>
  <outline>
    <contour>
      <point x="259" y="0" type="curve" smooth="yes"/>
      <point x="468" y="0" type="line" smooth="yes"/>
      <point x="459" y="0"/>
      <point x="448" y="16"/>
      <point x="448" y="60" type="curve" smooth="yes"/>
      <point x="448" y="280" type="line"/>
      <point x="506" y="366"/>
      <point x="596" y="496"/>
      <point x="635" y="541" type="curve" smooth="yes"/>
      <point x="671" y="583"/>
      <point x="689" y="599"/>
      <point x="692" y="600" type="curve"/>
      <point x="442" y="600" type="line"/>
      <point x="455" y="599"/>
      <point x="467" y="582"/>
      <point x="452" y="540" type="curve" smooth="yes"/>
      <point x="432" y="485"/>
      <point x="395" y="394"/>
      <point x="372" y="342" type="curve"/>
      <point x="371" y="342" type="line"/>
      <point x="348" y="400"/>
      <point x="312" y="493"/>
      <point x="296" y="538" type="curve" smooth="yes"/>
      <point x="281" y="582"/>
      <point x="287" y="599"/>
      <point x="296" y="600" type="curve"/>
      <point x="50" y="600" type="line" smooth="yes"/>
      <point x="54" y="600"/>
      <point x="74" y="583"/>
      <point x="112" y="538" type="curve" smooth="yes"/>
      <point x="148" y="495"/>
      <point x="237" y="366"/>
      <point x="294" y="280" type="curve"/>
      <point x="294" y="187"/>
      <point x="295" y="62"/>
      <point x="295" y="60" type="curve" smooth="yes"/>
      <point x="295" y="16"/>
      <point x="274" y="0"/>
    </contour>
    <contour>
      <point x="120" y="180" type="curve"/>
      <point x="129" y="184"/>
      <point x="167" y="190"/>
      <point x="240" y="190" type="curve" smooth="yes"/>
      <point x="626" y="190" type="line"/>
      <point x="626" y="225"/>
      <point x="637" y="262"/>
      <point x="646" y="280" type="curve"/>
      <point x="639" y="276"/>
      <point x="607" y="270"/>
      <point x="546" y="270" type="curve" smooth="yes"/>
      <point x="140" y="270" type="line"/>
      <point x="140" y="237"/>
      <point x="129" y="199"/>
    </contour>
    <contour>
      <point x="100" y="330" type="curve"/>
      <point x="109" y="334"/>
      <point x="147" y="340"/>
      <point x="220" y="340" type="curve" smooth="yes"/>
      <point x="316" y="340" type="line"/>
      <point x="316" y="420" type="line"/>
      <point x="120" y="420" type="line"/>
      <point x="120" y="380"/>
      <point x="109" y="345"/>
    </contour>
    <contour>
      <point x="420" y="340" type="line"/>
      <point x="626" y="340" type="line"/>
      <point x="626" y="375"/>
      <point x="637" y="412"/>
      <point x="646" y="430" type="curve"/>
      <point x="639" y="426"/>
      <point x="607" y="420"/>
      <point x="546" y="420" type="curve" smooth="yes"/>
      <point x="420" y="420" type="line"/>
    </contour>
  </outline>
</glyph>
<glyph name="section" format="2">
  <advance width="465"/>
  <unicode hex="00A7"/>
  <outline>
    <contour>
      <point x="219" y="-50" type="curve" smooth="yes"/>
      <point x="334" y="-50"/>
      <point x="397" y="-8"/>
      <point x="397" y="72" type="curve" smooth="yes"/>
      <point x="397" y="118"/>
      <point x="384" y="139"/>
      <point x="370" y="155" type="curve"/>
      <point x="393" y="171"/>
      <point x="415" y="215"/>
      <point x="415" y="261" type="curve" smooth="yes"/>
      <point x="415" y="345"/>
      <point x="380" y="384"/>
      <point x="272" y="430" type="curve" smooth="yes"/>
      <point x="199" y="461"/>
      <point x="182" y="475"/>
      <point x="182" y="498" type="curve" smooth="yes"/>
      <point x="182" y="512"/>
      <point x="196" y="522"/>
      <point x="229" y="522" type="curve" smooth="yes"/>
      <point x="290" y="522"/>
      <point x="343" y="499"/>
      <point x="366" y="481" type="curve"/>
      <point x="366" y="510" type="line"/>
      <point x="376" y="601" type="line"/>
      <point x="351" y="610"/>
      <point x="294" y="623"/>
      <point x="229" y="623" type="curve" smooth="yes"/>
      <point x="121" y="623"/>
      <point x="60" y="573"/>
      <point x="60" y="496" type="curve" smooth="yes"/>
      <point x="60" y="460"/>
      <point x="82" y="420"/>
      <point x="124" y="398" type="curve"/>
      <point x="124" y="395" type="line"/>
      <point x="96" y="390"/>
      <point x="50" y="363"/>
      <point x="50" y="302" type="curve" smooth="yes"/>
      <point x="50" y="237"/>
      <point x="84" y="202"/>
      <point x="173" y="160" type="curve" smooth="yes"/>
      <point x="265" y="117"/>
      <point x="274" y="102"/>
      <point x="274" y="80" type="curve" smooth="yes"/>
      <point x="274" y="62"/>
      <point x="259" y="50"/>
      <point x="229" y="50" type="curve" smooth="yes"/>
      <point x="164" y="50"/>
      <point x="106" y="77"/>
      <point x="80" y="98" type="curve"/>
      <point x="80" y="68" type="line"/>
      <point x="70" y="-29" type="line"/>
      <point x="92" y="-38"/>
      <point x="147" y="-50"/>
    </contour>
    <contour>
      <point x="297" y="212" type="curve"/>
      <point x="280" y="222"/>
      <point x="265" y="227"/>
      <point x="231" y="246" type="curve" smooth="yes"/>
      <point x="189" y="269"/>
      <point x="172" y="286"/>
      <point x="172" y="309" type="curve" smooth="yes"/>
      <point x="172" y="341"/>
      <point x="228" y="336"/>
      <point x="261" y="318" type="curve" smooth="yes"/>
      <point x="294" y="301"/>
      <point x="303" y="276"/>
      <point x="303" y="246" type="curve" smooth="yes"/>
      <point x="303" y="234"/>
      <point x="301" y="223"/>
    </contour>
  </outline>
</glyph>
<glyph name="copyright" format="2">
  <advance width="776"/>
  <unicode hex="00A9"/>
  <anchor x="382.178" y="170" name="bottom"/>
  <anchor x="382.178" y="427.868" name="top"/>
  <outline>
    <contour>
      <point x="394" y="164" type="curve" smooth="yes"/>
      <point x="456" y="164"/>
      <point x="498" y="179"/>
      <point x="512" y="191" type="curve"/>
      <point x="506" y="250" type="line"/>
      <point x="506" y="267" type="line"/>
      <point x="494" y="254"/>
      <point x="459" y="236"/>
      <point x="407" y="236" type="curve" smooth="yes"/>
      <point x="355" y="236"/>
      <point x="337" y="253"/>
      <point x="337" y="298" type="curve" smooth="yes"/>
      <point x="337" y="343"/>
      <point x="354" y="363"/>
      <point x="392" y="363" type="curve" smooth="yes"/>
      <point x="451" y="363"/>
      <point x="495" y="342"/>
      <point x="512" y="326" type="curve"/>
      <point x="501" y="400" type="line"/>
      <point x="501" y="417" type="line"/>
      <point x="482" y="424"/>
      <point x="438" y="433"/>
      <point x="388" y="433" type="curve" smooth="yes"/>
      <point x="294" y="433"/>
      <point x="245" y="388"/>
      <point x="245" y="298" type="curve" smooth="yes"/>
      <point x="245" y="222"/>
      <point x="279" y="164"/>
    </contour>
    <component base="circle" xOffset="20"/>
  </outline>
</glyph>
<glyph name="ordfeminine" format="2">
  <advance width="302"/>
  <unicode hex="00AA"/>
  <outline>
    <contour>
      <point x="123.5" y="325.0" type="curve" smooth="yes"/>
      <point x="171.0" y="325.0"/>
      <point x="201.0" y="339.5"/>
      <point x="211.5" y="351.0" type="curve"/>
      <point x="212.5" y="350.0" type="line"/>
      <point x="211.5" y="340.5" type="line"/>
      <point x="211.5" y="330.0" type="line"/>
      <point x="292.5" y="330.0" type="line"/>
      <point x="288.0" y="334.5"/>
      <point x="282.5" y="341.0"/>
      <point x="282.5" y="360.0" type="curve" smooth="yes"/>
      <point x="282.5" y="450.0" type="line" smooth="yes"/>
      <point x="282.5" y="525.0"/>
      <point x="260.0" y="569.0"/>
      <point x="161.5" y="569.0" type="curve" smooth="yes"/>
      <point x="89.5" y="569.0"/>
      <point x="46.5" y="553.0"/>
      <point x="40.0" y="549.5" type="curve"/>
      <point x="45.0" y="500.5" type="line"/>
      <point x="45.0" y="485.5" type="line"/>
      <point x="56.0" y="496.5"/>
      <point x="96.0" y="519.0"/>
      <point x="157.5" y="519.0" type="curve" smooth="yes"/>
      <point x="199.5" y="519.0"/>
      <point x="211.0" y="500.5"/>
      <point x="211.0" y="459.0" type="curve"/>
      <point x="204.5" y="463.0"/>
      <point x="178.5" y="478.0"/>
      <point x="132.5" y="478.0" type="curve" smooth="yes"/>
      <point x="70.5" y="478.0"/>
      <point x="25.0" y="454.5"/>
      <point x="25.0" y="400.0" type="curve" smooth="yes"/>
      <point x="25.0" y="347.0"/>
      <point x="63.5" y="325.0"/>
    </contour>
    <contour>
      <point x="147.0" y="375.5" type="curve" smooth="yes"/>
      <point x="114.0" y="375.5"/>
      <point x="95.5" y="380.0"/>
      <point x="95.5" y="400.0" type="curve" smooth="yes"/>
      <point x="95.5" y="416.0"/>
      <point x="109.5" y="428.0"/>
      <point x="147.5" y="428.0" type="curve" smooth="yes"/>
      <point x="187.0" y="428.0"/>
      <point x="211.5" y="416.5"/>
      <point x="211.5" y="401.5" type="curve" smooth="yes"/>
      <point x="211.5" y="386.0"/>
      <point x="188.5" y="375.5"/>
    </contour>
  </outline>
</glyph>
<glyph name="logicalnot" format="2">
  <advance width="526"/>
  <unicode hex="00AC"/>
  <outline>
    <contour>
      <point x="375" y="160" type="line"/>
      <point x="476" y="160" type="line"/>
      <point x="476" y="380" type="line"/>
      <point x="50" y="380" type="line"/>
      <point x="50" y="280" type="line"/>
      <point x="375" y="280" type="line"/>
    </contour>
  </outline>
</glyph>
<glyph name="registered" format="2">
  <advance width="361"/>
  <unicode hex="00AE"/>
  <anchor x="181.114" y="470" name="bottom"/>
  <outline>
    <contour>
      <point x="111.209" y="470" type="curve" smooth="yes"/>
      <point x="157.653" y="470" type="line" smooth="yes"/>
      <point x="155" y="470"/>
      <point x="153" y="474"/>
      <point x="152.626" y="484.364" type="curve" smooth="yes"/>
      <point x="152.626" y="513.092" type="line" smooth="yes"/>
      <point x="152.626" y="519.556"/>
      <point x="152.626" y="520.274"/>
      <point x="162.441" y="520.274" type="curve" smooth="yes"/>
      <point x="165.074" y="520.274" type="line" smooth="yes"/>
      <point x="187" y="520"/>
      <point x="202" y="506"/>
      <point x="212" y="483" type="curve" smooth="yes"/>
      <point x="216" y="474"/>
      <point x="212" y="470"/>
      <point x="208" y="470" type="curve" smooth="yes"/>
      <point x="263" y="470" type="line"/>
      <point x="262" y="473"/>
      <point x="259" y="481"/>
      <point x="252" y="493" type="curve" smooth="yes"/>
      <point x="241" y="512"/>
      <point x="230" y="524"/>
      <point x="215" y="529" type="curve"/>
      <point x="215" y="530" type="line"/>
      <point x="232" y="533"/>
      <point x="246.949" y="545.89"/>
      <point x="246.949" y="567.675" type="curve" smooth="yes"/>
      <point x="246.949" y="597.6"/>
      <point x="231.388" y="613.64"/>
      <point x="189.493" y="613.64" type="curve" smooth="yes"/>
      <point x="110.97" y="613.64" type="line"/>
      <point x="113" y="613"/>
      <point x="116" y="609"/>
      <point x="115.997" y="599.276" type="curve" smooth="yes"/>
      <point x="115.997" y="484.364" type="line" smooth="yes"/>
      <point x="116" y="474"/>
      <point x="113" y="470"/>
    </contour>
    <contour>
      <point x="162.441" y="544.453" type="line" smooth="yes"/>
      <point x="152.626" y="544.453"/>
      <point x="152.626" y="544.453"/>
      <point x="152.626" y="550.917" type="curve" smooth="yes"/>
      <point x="152.626" y="580.363" type="line" smooth="yes"/>
      <point x="152.626" y="586.588"/>
      <point x="152.626" y="586.588"/>
      <point x="162.441" y="586.588" type="curve" smooth="yes"/>
      <point x="184.466" y="586.588" type="line" smooth="yes"/>
      <point x="204.575" y="586.588"/>
      <point x="210.56" y="578.688"/>
      <point x="210.56" y="567.675" type="curve" smooth="yes"/>
      <point x="210.56" y="551.157"/>
      <point x="202.181" y="544.453"/>
      <point x="182.072" y="544.453" type="curve" smooth="yes"/>
    </contour>
    <component base="circle" xScale="0.4444" yScale="0.4444" xOffset="17" yOffset="410"/>
  </outline>
</glyph>
<glyph name="threesuperior" format="2">
  <advance width="328"/>
  <unicode hex="00B3"/>
  <outline>
    <contour>
      <point x="167.0" y="440.0" type="curve" smooth="yes"/>
      <point x="254.0" y="440.0"/>
      <point x="288.0" y="477.0"/>
      <point x="288.0" y="527.5" type="curve" smooth="yes"/>
      <point x="288.0" y="568.0"/>
      <point x="264.0" y="594.0"/>
      <point x="224.0" y="601.0" type="curve"/>
      <point x="224.0" y="602.0" type="line"/>
      <point x="250.0" y="613.5"/>
      <point x="268.0" y="640.0"/>
      <point x="268.0" y="674.5" type="curve" smooth="yes"/>
      <point x="268.0" y="719.5"/>
      <point x="245.5" y="750.0"/>
      <point x="161.5" y="750.0" type="curve" smooth="yes"/>
      <point x="100.0" y="750.0"/>
      <point x="59.0" y="733.0"/>
      <point x="45.0" y="720.0" type="curve"/>
      <point x="55.0" y="663.5" type="line"/>
      <point x="55.0" y="648.5" type="line"/>
      <point x="72.5" y="668.5"/>
      <point x="114.0" y="695.0"/>
      <point x="162.5" y="695.0" type="curve" smooth="yes"/>
      <point x="183.5" y="695.0"/>
      <point x="192.0" y="685.5"/>
      <point x="192.0" y="665.5" type="curve" smooth="yes"/>
      <point x="192.0" y="633.5"/>
      <point x="180.0" y="620.0"/>
      <point x="147.5" y="620.0" type="curve" smooth="yes"/>
      <point x="100.0" y="620.0" type="line"/>
      <point x="100.0" y="567.5" type="line"/>
      <point x="147.5" y="567.5" type="line" smooth="yes"/>
      <point x="194.5" y="567.5"/>
      <point x="212.0" y="556.0"/>
      <point x="212.0" y="531.0" type="curve" smooth="yes"/>
      <point x="212.0" y="508.0"/>
      <point x="197.5" y="495.0"/>
      <point x="158.0" y="495.0" type="curve" smooth="yes"/>
      <point x="102.0" y="495.0"/>
      <point x="64.0" y="517.0"/>
      <point x="50.5" y="533.5" type="curve"/>
      <point x="50.5" y="518.5" type="line"/>
      <point x="40.0" y="460.0" type="line"/>
      <point x="54.5" y="451.5"/>
      <point x="99.0" y="440.0"/>
    </contour>
  </outline>
</glyph>
<glyph name="micro" format="2">
  <advance width="594"/>
  <unicode hex="00B5"/>
  <outline>
    <contour>
      <point x="122" y="-191" type="curve" smooth="yes"/>
      <point x="162" y="-191"/>
      <point x="182" y="-173"/>
      <point x="182" y="-131" type="curve" smooth="yes"/>
      <point x="182" y="-35"/>
      <point x="90" y="55"/>
      <point x="64" y="252" type="curve"/>
      <point x="64" y="-120" type="line" smooth="yes"/>
      <point x="64" y="-163"/>
      <point x="86" y="-191"/>
    </contour>
    <component base="u"/>
  </outline>
</glyph>
<glyph name="paragraph" format="2">
  <advance width="565"/>
  <unicode hex="00B6"/>
  <outline>
    <contour>
      <point x="186" y="-80" type="curve" smooth="yes"/>
      <point x="337" y="-80" type="line" smooth="yes"/>
      <point x="328" y="-80"/>
      <point x="316" y="-63"/>
      <point x="316" y="-20" type="curve" smooth="yes"/>
      <point x="316" y="520" type="line"/>
      <point x="385" y="520" type="line"/>
      <point x="385" y="-20" type="line" smooth="yes"/>
      <point x="385" y="-63"/>
      <point x="374" y="-80"/>
      <point x="365" y="-80" type="curve" smooth="yes"/>
      <point x="515" y="-80" type="line" smooth="yes"/>
      <point x="506" y="-80"/>
      <point x="494" y="-63"/>
      <point x="494" y="-20" type="curve" smooth="yes"/>
      <point x="494" y="539" type="line" smooth="yes"/>
      <point x="494" y="583"/>
      <point x="506" y="600"/>
      <point x="515" y="600" type="curve" smooth="yes"/>
      <point x="206" y="600" type="line" smooth="yes"/>
      <point x="99" y="600"/>
      <point x="50" y="562"/>
      <point x="50" y="463" type="curve" smooth="yes"/>
      <point x="50" y="455" type="line" smooth="yes"/>
      <point x="50" y="365"/>
      <point x="98" y="322"/>
      <point x="206" y="322" type="curve"/>
      <point x="206" y="-20" type="line" smooth="yes"/>
      <point x="206" y="-63"/>
      <point x="195" y="-80"/>
    </contour>
  </outline>
</glyph>
<glyph name="questiondown" format="2">
  <advance width="476"/>
  <unicode hex="00BF"/>
  <outline>
    <contour>
      <point x="233" y="-130" type="curve" smooth="yes"/>
      <point x="333" y="-130"/>
      <point x="402" y="-96"/>
      <point x="426" y="-70" type="curve"/>
      <point x="406" y="33" type="line"/>
      <point x="406" y="63" type="line"/>
      <point x="386" y="19"/>
      <point x="332" y="-40"/>
      <point x="258" y="-40" type="curve" smooth="yes"/>
      <point x="221" y="-40"/>
      <point x="202" y="-14"/>
      <point x="202" y="11" type="curve" smooth="yes"/>
      <point x="202" y="68"/>
      <point x="252" y="91"/>
      <point x="303" y="144" type="curve" smooth="yes"/>
      <point x="322" y="164"/>
      <point x="329" y="180"/>
      <point x="329" y="214" type="curve" smooth="yes"/>
      <point x="329" y="257"/>
      <point x="303" y="292"/>
      <point x="290" y="292" type="curve" smooth="yes"/>
      <point x="280" y="292"/>
      <point x="275" y="257"/>
      <point x="253" y="229" type="curve" smooth="yes"/>
      <point x="231" y="201"/>
      <point x="210" y="188"/>
      <point x="155" y="155" type="curve" smooth="yes"/>
      <point x="90" y="115"/>
      <point x="50" y="72"/>
      <point x="50" y="6" type="curve" smooth="yes"/>
      <point x="50" y="-62"/>
      <point x="99" y="-130"/>
    </contour>
    <component base="period" xOffset="140" yOffset="380"/>
  </outline>
</glyph>
<glyph name="AE" format="2">
  <advance width="1053"/>
  <unicode hex="00C6"/>
  <anchor x="516" y="0" name="bottom"/>
  <anchor x="516" y="600" name="top"/>
  <outline>
    <contour>
      <point x="-2" y="0" type="curve"/>
      <point x="208" y="0" type="line"/>
      <point x="200" y="1"/>
      <point x="193" y="18"/>
      <point x="202" y="61" type="curve" smooth="yes"/>
      <point x="203" y="68"/>
      <point x="206" y="80"/>
      <point x="207" y="87" type="curve" smooth="yes"/>
      <point x="213" y="114"/>
      <point x="218" y="116"/>
      <point x="273" y="116" type="curve" smooth="yes"/>
      <point x="448" y="116" type="line"/>
      <point x="448" y="226" type="line"/>
      <point x="299" y="226" type="line" smooth="yes"/>
      <point x="259" y="226"/>
      <point x="263" y="234"/>
      <point x="272" y="256" type="curve"/>
      <point x="272" y="257"/>
      <point x="321" y="390"/>
      <point x="358" y="490" type="curve"/>
      <point x="448" y="490" type="line"/>
      <point x="448" y="600" type="line"/>
      <point x="250" y="600" type="line" smooth="yes"/>
      <point x="256" y="600"/>
      <point x="257" y="583"/>
      <point x="240" y="540" type="curve" smooth="yes"/>
      <point x="215" y="477"/>
      <point x="68" y="119"/>
      <point x="38" y="61" type="curve" smooth="yes"/>
      <point x="16" y="19"/>
      <point x="2" y="1"/>
    </contour>
    <component base="E" xOffset="358"/>
  </outline>
</glyph>
<glyph name="multiply" format="2">
  <advance width="388"/>
  <unicode hex="00D7"/>
  <outline>
    <contour>
      <point x="101" y="135" type="line"/>
      <point x="30" y="206" type="line"/>
      <point x="291" y="466" type="line"/>
      <point x="362" y="396" type="line"/>
    </contour>
    <contour>
      <point x="291" y="135" type="line"/>
      <point x="30" y="396" type="line"/>
      <point x="101" y="466" type="line"/>
      <point x="362" y="206" type="line"/>
    </contour>
  </outline>
</glyph>
<glyph name="Thorn" format="2">
  <advance width="658"/>
  <unicode hex="00DE"/>
  <outline>
    <contour>
      <point x="51" y="0" type="curve" smooth="yes"/>
      <point x="246" y="0" type="line" smooth="yes"/>
      <point x="237" y="0"/>
      <point x="225" y="17"/>
      <point x="225" y="60" type="curve" smooth="yes"/>
      <point x="225" y="97" type="line"/>
      <point x="378" y="97" type="line" smooth="yes"/>
      <point x="584" y="97"/>
      <point x="618" y="176"/>
      <point x="618" y="300" type="curve" smooth="yes"/>
      <point x="618" y="419"/>
      <point x="560" y="485"/>
      <point x="378" y="485" type="curve" smooth="yes"/>
      <point x="225" y="485" type="line"/>
      <point x="225" y="600" type="line"/>
      <point x="50" y="600" type="line"/>
      <point x="59" y="599"/>
      <point x="71" y="582"/>
      <point x="71" y="540" type="curve" smooth="yes"/>
      <point x="71" y="60" type="line" smooth="yes"/>
      <point x="71" y="17"/>
      <point x="60" y="0"/>
    </contour>
    <contour>
      <point x="266" y="207" type="line" smooth="yes"/>
      <point x="225" y="207"/>
      <point x="225" y="207"/>
      <point x="225" y="234" type="curve" smooth="yes"/>
      <point x="225" y="344" type="line" smooth="yes"/>
      <point x="225" y="371"/>
      <point x="225" y="371"/>
      <point x="266" y="371" type="curve" smooth="yes"/>
      <point x="337" y="371" type="line" smooth="yes"/>
      <point x="404" y="371"/>
      <point x="466" y="374"/>
      <point x="466" y="300" type="curve" smooth="yes"/>
      <point x="466" y="226"/>
      <point x="442" y="207"/>
      <point x="337" y="207" type="curve" smooth="yes"/>
    </contour>
  </outline>
</glyph>
<glyph name="germandbls" format="2">
  <advance width="677"/>
  <unicode hex="00DF"/>
  <outline>
    <contour>
      <point x="93" y="-110" type="curve" smooth="yes"/>
      <point x="183" y="-110"/>
      <point x="284" y="-87"/>
      <point x="284" y="70" type="curve" smooth="yes"/>
      <point x="284" y="454" type="line" smooth="yes"/>
      <point x="284" y="534"/>
      <point x="310" y="571"/>
      <point x="357" y="571" type="curve" smooth="yes"/>
      <point x="405" y="571"/>
      <point x="425" y="540"/>
      <point x="425" y="502" type="curve" smooth="yes"/>
      <point x="425" y="488" type="line"/>
      <point x="393" y="469"/>
      <point x="354" y="426"/>
      <point x="354" y="369" type="curve" smooth="yes"/>
      <point x="354" y="311"/>
      <point x="373" y="281"/>
      <point x="428" y="238" type="curve" smooth="yes"/>
      <point x="490" y="190"/>
      <point x="515" y="165"/>
      <point x="515" y="138" type="curve" smooth="yes"/>
      <point x="515" y="111"/>
      <point x="499" y="92"/>
      <point x="464" y="92" type="curve" smooth="yes"/>
      <point x="408" y="92"/>
      <point x="364" y="121"/>
      <point x="347" y="143" type="curve"/>
      <point x="347" y="123" type="line"/>
      <point x="337" y="41" type="line"/>
      <point x="354" y="19"/>
      <point x="403" y="-10"/>
      <point x="477" y="-10" type="curve" smooth="yes"/>
      <point x="604" y="-10"/>
      <point x="647" y="60"/>
      <point x="647" y="138" type="curve" smooth="yes"/>
      <point x="647" y="205"/>
      <point x="624" y="250"/>
      <point x="557" y="302" type="curve" smooth="yes"/>
      <point x="513" y="336"/>
      <point x="492" y="359"/>
      <point x="492" y="391" type="curve" smooth="yes"/>
      <point x="492" y="426"/>
      <point x="512" y="450"/>
      <point x="563" y="468" type="curve"/>
      <point x="556" y="468"/>
      <point x="547" y="480"/>
      <point x="547" y="511" type="curve" smooth="yes"/>
      <point x="547" y="598"/>
      <point x="498" y="671"/>
      <point x="365" y="671" type="curve" smooth="yes"/>
      <point x="232" y="671"/>
      <point x="142" y="587"/>
      <point x="142" y="431" type="curve" smooth="yes"/>
      <point x="142" y="92" type="line" smooth="yes"/>
      <point x="142" y="12"/>
      <point x="109" y="-7"/>
      <point x="65" y="-7" type="curve" smooth="yes"/>
      <point x="47" y="-7"/>
      <point x="29" y="-1"/>
      <point x="20" y="4" type="curve"/>
      <point x="20" y="-100" type="line"/>
      <point x="28" y="-104"/>
      <point x="53" y="-110"/>
    </contour>
    <contour>
      <point x="70" y="378" type="line"/>
      <point x="190" y="378" type="line"/>
      <point x="190" y="468" type="line"/>
      <point x="70" y="468" type="line"/>
    </contour>
  </outline>
</glyph>
<glyph name="ae" format="2">
  <advance width="926"/>
  <unicode hex="00E6"/>
  <anchor x="483" y="0" name="bottom"/>
  <anchor x="483" y="468" name="top"/>
  <outline>
    <contour>
      <point x="236" y="-10" type="curve" smooth="yes"/>
      <point x="330" y="-10"/>
      <point x="405" y="13"/>
      <point x="451" y="42" type="curve" smooth="yes"/>
      <point x="497" y="71"/>
      <point x="544" y="109"/>
      <point x="544" y="200" type="curve" smooth="yes"/>
      <point x="544" y="240" type="line" smooth="yes"/>
      <point x="544" y="390"/>
      <point x="501" y="478"/>
      <point x="302" y="478" type="curve" smooth="yes"/>
      <point x="189" y="478"/>
      <point x="103" y="461"/>
      <point x="69" y="449" type="curve"/>
      <point x="79" y="341" type="line"/>
      <point x="79" y="311" type="line"/>
      <point x="108" y="340"/>
      <point x="187" y="378"/>
      <point x="294" y="378" type="curve" smooth="yes"/>
      <point x="388" y="378"/>
      <point x="401" y="340"/>
      <point x="401" y="268" type="curve"/>
      <point x="384" y="277"/>
      <point x="339" y="296"/>
      <point x="244" y="296" type="curve" smooth="yes"/>
      <point x="120" y="296"/>
      <point x="40" y="245"/>
      <point x="40" y="137" type="curve" smooth="yes"/>
      <point x="40" y="30"/>
      <point x="118" y="-10"/>
    </contour>
    <contour>
      <point x="279" y="91" type="curve" smooth="yes"/>
      <point x="213" y="91"/>
      <point x="181" y="102"/>
      <point x="181" y="142" type="curve" smooth="yes"/>
      <point x="181" y="174"/>
      <point x="204" y="196"/>
      <point x="280" y="196" type="curve" smooth="yes"/>
      <point x="367" y="196"/>
      <point x="402" y="175"/>
      <point x="402" y="145" type="curve" smooth="yes"/>
      <point x="402" y="114"/>
      <point x="362" y="91"/>
    </contour>
    <component base="e" xOffset="360"/>
  </outline>
</glyph>
<glyph name="eth" format="2">
  <advance width="596"/>
  <unicode hex="00F0"/>
  <outline>
    <contour>
      <point x="283" y="-10" type="curve" smooth="yes"/>
      <point x="441" y="-10"/>
      <point x="546" y="93"/>
      <point x="546" y="334" type="curve" smooth="yes"/>
      <point x="546" y="598"/>
      <point x="439" y="708"/>
      <point x="242" y="708" type="curve" smooth="yes"/>
      <point x="138" y="708"/>
      <point x="60" y="674"/>
      <point x="30" y="648" type="curve"/>
      <point x="50" y="548" type="line"/>
      <point x="50" y="518" type="line"/>
      <point x="83" y="561"/>
      <point x="161" y="618"/>
      <point x="254" y="618" type="curve" smooth="yes"/>
      <point x="384" y="618"/>
      <point x="392" y="497"/>
      <point x="394" y="407" type="curve"/>
      <point x="396" y="387" type="line"/>
      <point x="394" y="386" type="line"/>
      <point x="387" y="401"/>
      <point x="347" y="445"/>
      <point x="272" y="445" type="curve" smooth="yes"/>
      <point x="137" y="445"/>
      <point x="50" y="368"/>
      <point x="50" y="223" type="curve" smooth="yes"/>
      <point x="50" y="93"/>
      <point x="133" y="-10"/>
    </contour>
    <contour>
      <point x="290" y="91" type="curve" smooth="yes"/>
      <point x="236" y="91"/>
      <point x="202" y="138"/>
      <point x="202" y="223" type="curve" smooth="yes"/>
      <point x="202" y="310"/>
      <point x="230" y="345"/>
      <point x="280" y="345" type="curve" smooth="yes"/>
      <point x="358" y="345"/>
      <point x="384" y="286"/>
      <point x="384" y="222" type="curve" smooth="yes"/>
      <point x="384" y="144"/>
      <point x="358" y="91"/>
    </contour>
    <contour>
      <point x="320" y="499" type="line"/>
      <point x="500" y="679" type="line"/>
      <point x="448" y="731" type="line"/>
      <point x="268" y="551" type="line"/>
    </contour>
  </outline>
</glyph>
<glyph name="thorn" format="2">
  <advance width="600"/>
  <unicode hex="00FE"/>
  <outline>
    <contour>
      <point x="44" y="-222" type="curve" smooth="yes"/>
      <point x="226" y="-222" type="line" smooth="yes"/>
      <point x="217" y="-222"/>
      <point x="206" y="-205"/>
      <point x="206" y="-162" type="curve" smooth="yes"/>
      <point x="206" y="6" type="line"/>
      <point x="204" y="26" type="line"/>
      <point x="206" y="27" type="line"/>
      <point x="233" y="3"/>
      <point x="280" y="-10"/>
      <point x="332" y="-10" type="curve" smooth="yes"/>
      <point x="520" y="-10"/>
      <point x="570" y="94"/>
      <point x="570" y="233" type="curve" smooth="yes"/>
      <point x="570" y="372"/>
      <point x="517" y="478"/>
      <point x="332" y="478" type="curve" smooth="yes"/>
      <point x="280" y="478"/>
      <point x="225" y="457"/>
      <point x="206" y="440" type="curve"/>
      <point x="204" y="441" type="line"/>
      <point x="206" y="460" type="line"/>
      <point x="206" y="689" type="line"/>
      <point x="44" y="689" type="line"/>
      <point x="53" y="688"/>
      <point x="64" y="671"/>
      <point x="64" y="629" type="curve" smooth="yes"/>
      <point x="64" y="-162" type="line" smooth="yes"/>
      <point x="64" y="-205"/>
      <point x="53" y="-222"/>
    </contour>
    <contour>
      <point x="312" y="91" type="curve" smooth="yes"/>
      <point x="246" y="91"/>
      <point x="206" y="128"/>
      <point x="206" y="232" type="curve" smooth="yes"/>
      <point x="206" y="334"/>
      <point x="245" y="378"/>
      <point x="312" y="378" type="curve" smooth="yes"/>
      <point x="395" y="378"/>
      <point x="428" y="343"/>
      <point x="428" y="233" type="curve" smooth="yes"/>
      <point x="428" y="123"/>
      <point x="396" y="91"/>
    </contour>
  </outline>
</glyph>
<glyph name="idotless" format="2">
  <advance width="273"/>
  <unicode hex="0131"/>
  <anchor x="127" y="0" name="bottom"/>
  <anchor x="179" y="10" name="ogonek"/>
  <anchor x="127" y="468" name="top"/>
  <outline>
    <contour>
      <point x="44" y="0" type="curve" smooth="yes"/>
      <point x="227" y="0" type="line" smooth="yes"/>
      <point x="218" y="0"/>
      <point x="207" y="17"/>
      <point x="207" y="60" type="curve" smooth="yes"/>
      <point x="207" y="468" type="line"/>
      <point x="45" y="468" type="line" smooth="yes"/>
      <point x="54" y="468"/>
      <point x="65" y="451"/>
      <point x="65" y="408" type="curve" smooth="yes"/>
      <point x="65" y="60" type="line" smooth="yes"/>
      <point x="65" y="17"/>
      <point x="53" y="0"/>
    </contour>
  </outline>
</glyph>
<glyph name="kgreenlandic" format="2">
  <advance width="589"/>
  <unicode hex="0138"/>
  <outline>
    <contour>
      <point x="44" y="0" type="curve" smooth="yes"/>
      <point x="226" y="0" type="line" smooth="yes"/>
      <point x="217" y="0"/>
      <point x="206" y="17"/>
      <point x="206" y="60" type="curve" smooth="yes"/>
      <point x="206" y="159" type="line" smooth="yes"/>
      <point x="206" y="189"/>
      <point x="206" y="189"/>
      <point x="227" y="189" type="curve" smooth="yes"/>
      <point x="281" y="189"/>
      <point x="343" y="145"/>
      <point x="381" y="70" type="curve" smooth="yes"/>
      <point x="406" y="20"/>
      <point x="405" y="1"/>
      <point x="397" y="0" type="curve"/>
      <point x="599" y="0" type="line" smooth="yes"/>
      <point x="590" y="0"/>
      <point x="568" y="17"/>
      <point x="541" y="60" type="curve" smooth="yes"/>
      <point x="501" y="124"/>
      <point x="456" y="202"/>
      <point x="363" y="242" type="curve"/>
      <point x="416" y="269"/>
      <point x="457" y="324"/>
      <point x="498" y="407" type="curve" smooth="yes"/>
      <point x="520" y="452"/>
      <point x="540" y="468"/>
      <point x="549" y="468" type="curve" smooth="yes"/>
      <point x="346" y="468" type="line" smooth="yes"/>
      <point x="352" y="468"/>
      <point x="355" y="451"/>
      <point x="346" y="407" type="curve" smooth="yes"/>
      <point x="329" y="328"/>
      <point x="272" y="281"/>
      <point x="227" y="281" type="curve" smooth="yes"/>
      <point x="207" y="281"/>
      <point x="206" y="282"/>
      <point x="206" y="312" type="curve" smooth="yes"/>
      <point x="206" y="468" type="line"/>
      <point x="44" y="468" type="line"/>
      <point x="53" y="467"/>
      <point x="64" y="450"/>
      <point x="64" y="408" type="curve" smooth="yes"/>
      <point x="64" y="60" type="line" smooth="yes"/>
      <point x="64" y="17"/>
      <point x="53" y="0"/>
    </contour>
  </outline>
</glyph>
<glyph name="Eng" format="2">
  <advance width="746"/>
  <unicode hex="014A"/>
  <outline>
    <contour>
      <point x="50" y="0" type="curve" smooth="yes"/>
      <point x="246" y="0" type="line" smooth="yes"/>
      <point x="237" y="0"/>
      <point x="225" y="17"/>
      <point x="225" y="60" type="curve" smooth="yes"/>
      <point x="225" y="387" type="line"/>
      <point x="228" y="387" type="line"/>
      <point x="330" y="264"/>
      <point x="470" y="93"/>
      <point x="506" y="47" type="curve" smooth="yes"/>
      <point x="524" y="24"/>
      <point x="529" y="8"/>
      <point x="529" y="-16" type="curve" smooth="yes"/>
      <point x="529" y="-48"/>
      <point x="507" y="-72"/>
      <point x="466" y="-72" type="curve"/>
      <point x="466" y="-173" type="line"/>
      <point x="507" y="-173" type="line" smooth="yes"/>
      <point x="610" y="-173"/>
      <point x="675" y="-109"/>
      <point x="675" y="0" type="curve" smooth="yes"/>
      <point x="675" y="539" type="line" smooth="yes"/>
      <point x="675" y="583"/>
      <point x="687" y="600"/>
      <point x="696" y="600" type="curve" smooth="yes"/>
      <point x="500" y="600" type="line"/>
      <point x="509" y="599"/>
      <point x="521" y="582"/>
      <point x="521" y="540" type="curve" smooth="yes"/>
      <point x="521" y="255" type="line"/>
      <point x="519" y="255" type="line"/>
      <point x="438" y="349"/>
      <point x="356" y="444"/>
      <point x="275" y="538" type="curve" smooth="yes"/>
      <point x="236" y="583"/>
      <point x="236" y="600"/>
      <point x="246" y="600" type="curve" smooth="yes"/>
      <point x="50" y="600" type="line"/>
      <point x="59" y="599"/>
      <point x="71" y="582"/>
      <point x="71" y="540" type="curve" smooth="yes"/>
      <point x="71" y="60" type="line" smooth="yes"/>
      <point x="71" y="17"/>
      <point x="59" y="0"/>
    </contour>
  </outline>
</glyph>
<glyph name="eng" format="2">
  <advance width="575"/>
  <unicode hex="014B"/>
  <outline>
    <contour>
      <point x="44" y="0" type="curve" smooth="yes"/>
      <point x="226" y="0" type="line" smooth="yes"/>
      <point x="217" y="0"/>
      <point x="206" y="17"/>
      <point x="206" y="60" type="curve" smooth="yes"/>
      <point x="206" y="247" type="line" smooth="yes"/>
      <point x="206" y="340"/>
      <point x="260" y="378"/>
      <point x="317" y="378" type="curve" smooth="yes"/>
      <point x="362" y="378"/>
      <point x="395" y="350"/>
      <point x="395" y="256" type="curve" smooth="yes"/>
      <point x="395" y="251"/>
      <point x="395" y="119"/>
      <point x="395" y="60" type="curve" smooth="yes"/>
      <point x="395" y="0" type="line"/>
      <point x="537" y="0" type="line"/>
      <point x="537" y="7"/>
      <point x="537" y="29"/>
      <point x="537" y="60" type="curve" smooth="yes"/>
      <point x="537" y="259" type="line" smooth="yes"/>
      <point x="537" y="410"/>
      <point x="469" y="478"/>
      <point x="345" y="478" type="curve" smooth="yes"/>
      <point x="257" y="478"/>
      <point x="211" y="415"/>
      <point x="206" y="402" type="curve"/>
      <point x="204" y="404" type="line"/>
      <point x="206" y="417" type="line"/>
      <point x="206" y="478" type="line"/>
      <point x="171" y="469"/>
      <point x="102" y="458"/>
      <point x="44" y="458" type="curve"/>
      <point x="53" y="457"/>
      <point x="64" y="440"/>
      <point x="64" y="398" type="curve" smooth="yes"/>
      <point x="64" y="60" type="line" smooth="yes"/>
      <point x="64" y="17"/>
      <point x="53" y="0"/>
    </contour>
    <contour>
      <point x="335" y="-173" type="line"/>
      <point x="396" y="-173" type="line" smooth="yes"/>
      <point x="499" y="-173"/>
      <point x="537" y="-109"/>
      <point x="537" y="0" type="curve" smooth="yes"/>
      <point x="537" y="60" type="line"/>
      <point x="395" y="60" type="line"/>
      <point x="395" y="-10" type="line" smooth="yes"/>
      <point x="395" y="-58"/>
      <point x="382" y="-83"/>
      <point x="335" y="-83" type="curve"/>
    </contour>
  </outline>
</glyph>
<glyph name="OE" format="2">
  <advance width="1155"/>
  <unicode hex="0152"/>
  <outline>
    <contour>
      <point x="383" y="-10" type="curve" smooth="yes"/>
      <point x="536" y="-10"/>
      <point x="600" y="19"/>
      <point x="606" y="40" type="curve"/>
      <point x="606" y="191" type="line"/>
      <point x="591" y="152"/>
      <point x="528" y="101"/>
      <point x="414" y="101" type="curve" smooth="yes"/>
      <point x="242" y="101"/>
      <point x="192" y="166"/>
      <point x="192" y="300" type="curve" smooth="yes"/>
      <point x="192" y="434"/>
      <point x="247" y="500"/>
      <point x="385" y="500" type="curve" smooth="yes"/>
      <point x="511" y="500"/>
      <point x="585" y="454"/>
      <point x="606" y="420" type="curve"/>
      <point x="606" y="580" type="line"/>
      <point x="585" y="593"/>
      <point x="510" y="610"/>
      <point x="383" y="610" type="curve" smooth="yes"/>
      <point x="140" y="610"/>
      <point x="40" y="485"/>
      <point x="40" y="300" type="curve" smooth="yes"/>
      <point x="40" y="85"/>
      <point x="153" y="-10"/>
    </contour>
    <component base="E" xOffset="460"/>
  </outline>
</glyph>
<glyph name="Schwa" format="2">
  <advance width="614"/>
  <unicode hex="018F"/>
  <outline>
    <contour>
      <point x="304" y="-10" type="curve" smooth="yes"/>
      <point x="470" y="-10"/>
      <point x="576" y="98"/>
      <point x="576" y="304" type="curve" smooth="yes"/>
      <point x="576" y="486"/>
      <point x="494" y="608"/>
      <point x="284" y="608" type="curve" smooth="yes"/>
      <point x="171" y="608"/>
      <point x="95" y="585"/>
      <point x="70" y="568" type="curve"/>
      <point x="80" y="468" type="line"/>
      <point x="80" y="438" type="line"/>
      <point x="122" y="468"/>
      <point x="207" y="508"/>
      <point x="284" y="508" type="curve" smooth="yes"/>
      <point x="419" y="508"/>
      <point x="424" y="392"/>
      <point x="424" y="305" type="curve"/>
      <point x="40" y="305" type="line"/>
      <point x="40" y="233" type="line" smooth="yes"/>
      <point x="40" y="91"/>
      <point x="117" y="-10"/>
    </contour>
    <contour>
      <point x="304" y="91" type="curve" smooth="yes"/>
      <point x="218" y="91"/>
      <point x="192" y="129"/>
      <point x="192" y="193" type="curve" smooth="yes"/>
      <point x="192" y="205" type="line"/>
      <point x="424" y="205" type="line"/>
      <point x="424" y="125"/>
      <point x="388" y="91"/>
    </contour>
  </outline>
</glyph>
<glyph name="florin" format="2">
  <advance width="589"/>
  <unicode hex="0192"/>
  <outline>
    <contour>
      <point x="147" y="-90" type="curve" smooth="yes"/>
      <point x="289" y="-90"/>
      <point x="376" y="-22"/>
      <point x="376" y="150" type="curve" smooth="yes"/>
      <point x="376" y="467" type="line" smooth="yes"/>
      <point x="376" y="596"/>
      <point x="396" y="619"/>
      <point x="437" y="619" type="curve" smooth="yes"/>
      <point x="487" y="619"/>
      <point x="541" y="573"/>
      <point x="569" y="539" type="curve"/>
      <point x="569" y="569" type="line"/>
      <point x="579" y="679" type="line"/>
      <point x="554" y="696"/>
      <point x="495" y="719"/>
      <point x="425" y="719" type="curve" smooth="yes"/>
      <point x="294" y="719"/>
      <point x="224" y="655"/>
      <point x="224" y="467" type="curve" smooth="yes"/>
      <point x="224" y="160" type="line" smooth="yes"/>
      <point x="224" y="48"/>
      <point x="207" y="11"/>
      <point x="135" y="11" type="curve" smooth="yes"/>
      <point x="82" y="11"/>
      <point x="44" y="46"/>
      <point x="30" y="73" type="curve"/>
      <point x="30" y="43" type="line"/>
      <point x="10" y="-59" type="line"/>
      <point x="28" y="-72"/>
      <point x="77" y="-90"/>
    </contour>
    <contour>
      <point x="130" y="378" type="curve"/>
      <point x="139" y="382"/>
      <point x="177" y="388"/>
      <point x="250" y="388" type="curve" smooth="yes"/>
      <point x="486" y="388" type="line"/>
      <point x="486" y="423"/>
      <point x="497" y="460"/>
      <point x="506" y="478" type="curve"/>
      <point x="499" y="474"/>
      <point x="467" y="468"/>
      <point x="406" y="468" type="curve" smooth="yes"/>
      <point x="150" y="468" type="line"/>
      <point x="150" y="435"/>
      <point x="139" y="397"/>
    </contour>
  </outline>
</glyph>
<glyph name="Nhookleft" format="2">
  <advance width="679"/>
  <unicode hex="019D"/>
  <outline>
    <contour>
      <point x="-33" y="-182" type="curve" smooth="yes"/>
      <point x="93" y="-182"/>
      <point x="158" y="-141"/>
      <point x="158" y="-29" type="curve" smooth="yes"/>
      <point x="158" y="387" type="line"/>
      <point x="161" y="387" type="line"/>
      <point x="214" y="323"/>
      <point x="363" y="144"/>
      <point x="427" y="62" type="curve" smooth="yes"/>
      <point x="474" y="2"/>
      <point x="459" y="0"/>
      <point x="457" y="0" type="curve" smooth="yes"/>
      <point x="629" y="0" type="line" smooth="yes"/>
      <point x="620" y="0"/>
      <point x="608" y="17"/>
      <point x="608" y="60" type="curve" smooth="yes"/>
      <point x="608" y="539" type="line" smooth="yes"/>
      <point x="608" y="583"/>
      <point x="620" y="600"/>
      <point x="629" y="600" type="curve" smooth="yes"/>
      <point x="433" y="600" type="line"/>
      <point x="442" y="599"/>
      <point x="454" y="582"/>
      <point x="454" y="540" type="curve" smooth="yes"/>
      <point x="454" y="255" type="line"/>
      <point x="452" y="255" type="line"/>
      <point x="371" y="349"/>
      <point x="289" y="444"/>
      <point x="208" y="538" type="curve" smooth="yes"/>
      <point x="169" y="583"/>
      <point x="169" y="600"/>
      <point x="179" y="600" type="curve" smooth="yes"/>
      <point x="-17" y="600" type="line"/>
      <point x="-8" y="599"/>
      <point x="4" y="582"/>
      <point x="4" y="540" type="curve" smooth="yes"/>
      <point x="4" y="-18" type="line" smooth="yes"/>
      <point x="4" y="-51"/>
      <point x="4" y="-72"/>
      <point x="-45" y="-72" type="curve" smooth="yes"/>
      <point x="-67" y="-72"/>
      <point x="-93" y="-61"/>
      <point x="-107" y="-52" type="curve"/>
      <point x="-97" y="-82" type="line"/>
      <point x="-97" y="-172" type="line"/>
      <point x="-82" y="-177"/>
      <point x="-64" y="-182"/>
    </contour>
  </outline>
</glyph>
<glyph name="jdotless" format="2">
  <advance width="264"/>
  <unicode hex="0237"/>
  <anchor x="49" y="0" name="bottom"/>
  <anchor x="129" y="468" name="top"/>
  <outline>
    <contour>
      <point x="3" y="-244" type="curve" smooth="yes"/>
      <point x="142" y="-244"/>
      <point x="206" y="-189"/>
      <point x="206" y="-11" type="curve" smooth="yes"/>
      <point x="206" y="468" type="line"/>
      <point x="44" y="468" type="line" smooth="yes"/>
      <point x="53" y="468"/>
      <point x="64" y="451"/>
      <point x="64" y="408" type="curve" smooth="yes"/>
      <point x="64" y="-11" type="line" smooth="yes"/>
      <point x="64" y="-70"/>
      <point x="69" y="-145"/>
      <point x="5" y="-145" type="curve" smooth="yes"/>
      <point x="-42" y="-145"/>
      <point x="-75" y="-110"/>
      <point x="-87" y="-84" type="curve"/>
      <point x="-87" y="-114" type="line"/>
      <point x="-107" y="-224" type="line"/>
      <point x="-93" y="-233"/>
      <point x="-53" y="-244"/>
    </contour>
  </outline>
</glyph>
<glyph name="schwa" format="2">
  <advance width="584"/>
  <unicode hex="0259"/>
  <outline>
    <contour>
      <point x="293" y="-10" type="curve" smooth="yes"/>
      <point x="459" y="-10"/>
      <point x="546" y="89"/>
      <point x="546" y="234" type="curve" smooth="yes"/>
      <point x="546" y="371"/>
      <point x="483" y="478"/>
      <point x="284" y="478" type="curve" smooth="yes"/>
      <point x="169" y="478"/>
      <point x="94" y="455"/>
      <point x="70" y="438" type="curve"/>
      <point x="80" y="338" type="line"/>
      <point x="80" y="308" type="line"/>
      <point x="117" y="338"/>
      <point x="199" y="378"/>
      <point x="284" y="378" type="curve" smooth="yes"/>
      <point x="378" y="378"/>
      <point x="394" y="314"/>
      <point x="394" y="255" type="curve"/>
      <point x="40" y="255" type="line"/>
      <point x="40" y="193" type="line" smooth="yes"/>
      <point x="40" y="80"/>
      <point x="111" y="-10"/>
    </contour>
    <contour>
      <point x="293" y="91" type="curve" smooth="yes"/>
      <point x="213" y="91"/>
      <point x="192" y="129"/>
      <point x="192" y="163" type="curve" smooth="yes"/>
      <point x="192" y="175" type="line"/>
      <point x="394" y="175" type="line"/>
      <point x="394" y="134"/>
      <point x="372" y="91"/>
    </contour>
  </outline>
</glyph>
<glyph name="nhookleft" format="2">
  <advance width="545"/>
  <unicode hex="0272"/>
  <outline>
    <contour>
      <point x="14" y="0" type="line"/>
      <point x="156" y="0" type="line"/>
      <point x="156" y="60" type="line"/>
      <point x="156" y="247" type="line" smooth="yes"/>
      <point x="156" y="340"/>
      <point x="210" y="378"/>
      <point x="267" y="378" type="curve" smooth="yes"/>
      <point x="312" y="378"/>
      <point x="345" y="350"/>
      <point x="345" y="256" type="curve" smooth="yes"/>
      <point x="345" y="60" type="line" smooth="yes"/>
      <point x="345" y="17"/>
      <point x="334" y="0"/>
      <point x="325" y="0" type="curve" smooth="yes"/>
      <point x="507" y="0" type="line" smooth="yes"/>
      <point x="498" y="0"/>
      <point x="487" y="17"/>
      <point x="487" y="60" type="curve" smooth="yes"/>
      <point x="487" y="259" type="line" smooth="yes"/>
      <point x="487" y="410"/>
      <point x="419" y="478"/>
      <point x="295" y="478" type="curve" smooth="yes"/>
      <point x="207" y="478"/>
      <point x="161" y="415"/>
      <point x="156" y="402" type="curve"/>
      <point x="154" y="404" type="line"/>
      <point x="156" y="417" type="line"/>
      <point x="156" y="478" type="line"/>
      <point x="121" y="469"/>
      <point x="52" y="458"/>
      <point x="-6" y="458" type="curve"/>
      <point x="3" y="457"/>
      <point x="14" y="440"/>
      <point x="14" y="398" type="curve" smooth="yes"/>
      <point x="14" y="60" type="line"/>
    </contour>
    <contour>
      <point x="-32" y="-182" type="curve" smooth="yes"/>
      <point x="90" y="-182"/>
      <point x="156" y="-125"/>
      <point x="156" y="-19" type="curve" smooth="yes"/>
      <point x="156" y="1" type="line"/>
      <point x="14" y="1" type="line"/>
      <point x="14" y="-18" type="line" smooth="yes"/>
      <point x="14" y="-59"/>
      <point x="8" y="-81"/>
      <point x="-44" y="-81" type="curve" smooth="yes"/>
      <point x="-67" y="-81"/>
      <point x="-93" y="-70"/>
      <point x="-107" y="-61" type="curve"/>
      <point x="-96" y="-93" type="line"/>
      <point x="-96" y="-173" type="line"/>
      <point x="-86" y="-177"/>
      <point x="-62" y="-182"/>
    </contour>
  </outline>
</glyph>
<glyph name="apostrophemod" format="2">
  <advance width="270"/>
  <unicode hex="02BC"/>
  <outline>
    <contour>
      <point x="70" y="520" type="line"/>
      <point x="137" y="537"/>
      <point x="220" y="587"/>
      <point x="220" y="670" type="curve" smooth="yes"/>
      <point x="220" y="722"/>
      <point x="187" y="760"/>
      <point x="130" y="760" type="curve" smooth="yes"/>
      <point x="90" y="760"/>
      <point x="58" y="743"/>
      <point x="58" y="705" type="curve" smooth="yes"/>
      <point x="58" y="680" type="line"/>
      <point x="90" y="680"/>
      <point x="110" y="664"/>
      <point x="110" y="631" type="curve" smooth="yes"/>
      <point x="110" y="598"/>
      <point x="82" y="571"/>
      <point x="50" y="555" type="curve"/>
    </contour>
  </outline>
</glyph>
<glyph name="acutecomb" format="2">
  <unicode hex="0301"/>
  <anchor x="-272" y="488" name="_top"/>
  <anchor x="-272" y="750" name="top"/>
  <outline>
    <contour>
      <point x="-335" y="560" type="curve" smooth="yes"/>
      <point x="-306" y="560"/>
      <point x="-218" y="653"/>
      <point x="-175" y="710" type="curve" smooth="yes"/>
      <point x="-156" y="735"/>
      <point x="-163" y="750"/>
      <point x="-199" y="750" type="curve" smooth="yes"/>
      <point x="-217" y="750" type="line" smooth="yes"/>
      <point x="-252" y="750"/>
      <point x="-273" y="740"/>
      <point x="-292" y="710" type="curve" smooth="yes"/>
      <point x="-331" y="649"/>
      <point x="-356" y="560"/>
    </contour>
  </outline>
</glyph>
<glyph name="circumflexcomb" format="2">
  <unicode hex="0302"/>
  <anchor x="-255" y="468" name="_top"/>
  <anchor x="-256" y="646" name="top"/>
  <outline>
    <contour>
      <point x="-400" y="556" type="curve"/>
      <point x="-310" y="556" type="line"/>
      <point x="-256" y="624" type="line"/>
      <point x="-210" y="556" type="line"/>
      <point x="-119" y="556" type="line"/>
      <point x="-148" y="590"/>
      <point x="-191" y="640"/>
      <point x="-203" y="655" type="curve" smooth="yes"/>
      <point x="-212" y="667"/>
      <point x="-216" y="674"/>
      <point x="-216" y="676" type="curve"/>
      <point x="-297" y="676" type="line"/>
      <point x="-297" y="674"/>
      <point x="-300" y="667"/>
      <point x="-311" y="655" type="curve" smooth="yes"/>
      <point x="-333" y="632"/>
      <point x="-375" y="585"/>
    </contour>
  </outline>
</glyph>
<glyph name="tildecomb" format="2">
  <unicode hex="0303"/>
  <anchor x="-295" y="478" name="_top"/>
  <anchor x="-295" y="676" name="top"/>
  <outline>
    <contour>
      <point x="-480" y="546" type="curve"/>
      <point x="-419" y="546" type="line"/>
      <point x="-428" y="549"/>
      <point x="-439" y="560"/>
      <point x="-439" y="577" type="curve" smooth="yes"/>
      <point x="-439" y="598"/>
      <point x="-425" y="616"/>
      <point x="-395" y="616" type="curve" smooth="yes"/>
      <point x="-338" y="616"/>
      <point x="-307" y="546"/>
      <point x="-220" y="546" type="curve" smooth="yes"/>
      <point x="-150" y="546"/>
      <point x="-119" y="595"/>
      <point x="-119" y="686" type="curve"/>
      <point x="-180" y="686" type="line"/>
      <point x="-171" y="683"/>
      <point x="-160" y="673"/>
      <point x="-160" y="655" type="curve" smooth="yes"/>
      <point x="-160" y="631"/>
      <point x="-174" y="616"/>
      <point x="-202" y="616" type="curve" smooth="yes"/>
      <point x="-261" y="616"/>
      <point x="-287" y="686"/>
      <point x="-380" y="686" type="curve" smooth="yes"/>
      <point x="-447" y="686"/>
      <point x="-480" y="629"/>
    </contour>
  </outline>
</glyph>
<glyph name="macroncomb" format="2">
  <unicode hex="0304"/>
  <anchor x="-300" y="468" name="_top"/>
  <anchor x="-300" y="696" name="top"/>
  <outline>
    <contour>
      <point x="-478" y="550" type="curve"/>
      <point x="-469" y="554"/>
      <point x="-431" y="560"/>
      <point x="-358" y="560" type="curve" smooth="yes"/>
      <point x="-142" y="560" type="line"/>
      <point x="-142" y="588"/>
      <point x="-131" y="616"/>
      <point x="-122" y="630" type="curve" smooth="yes"/>
      <point x="-125" y="626"/>
      <point x="-154" y="620"/>
      <point x="-222" y="620" type="curve" smooth="yes"/>
      <point x="-458" y="620" type="line"/>
      <point x="-458" y="594"/>
      <point x="-469" y="565"/>
    </contour>
  </outline>
</glyph>
<glyph name="brevecomb" format="2">
  <unicode hex="0306"/>
  <anchor x="-225" y="468" name="_top"/>
  <anchor x="-225" y="646" name="top"/>
  <outline>
    <contour>
      <point x="-225" y="536" type="curve" smooth="yes"/>
      <point x="-78" y="536"/>
      <point x="-70" y="611"/>
      <point x="-70" y="686" type="curve"/>
      <point x="-141" y="686" type="line"/>
      <point x="-132" y="683"/>
      <point x="-121" y="673"/>
      <point x="-121" y="655" type="curve" smooth="yes"/>
      <point x="-121" y="632"/>
      <point x="-141" y="616"/>
      <point x="-225" y="616" type="curve" smooth="yes"/>
      <point x="-309" y="616"/>
      <point x="-331" y="630"/>
      <point x="-331" y="657" type="curve" smooth="yes"/>
      <point x="-331" y="675"/>
      <point x="-320" y="684"/>
      <point x="-311" y="686" type="curve"/>
      <point x="-380" y="686" type="line"/>
      <point x="-380" y="618"/>
      <point x="-372" y="536"/>
    </contour>
  </outline>
</glyph>
<glyph name="hookabovecomb" format="2">
  <unicode hex="0309"/>
  <anchor x="-276" y="548" name="_top"/>
  <anchor x="-280" y="730" name="top"/>
  <outline>
    <contour>
      <point x="-310" y="600" type="line"/>
      <point x="-251" y="600" type="line"/>
      <point x="-251" y="633" type="line"/>
      <point x="-190" y="647"/>
      <point x="-160" y="686"/>
      <point x="-160" y="735" type="curve" smooth="yes"/>
      <point x="-160" y="785"/>
      <point x="-195" y="820"/>
      <point x="-256" y="820" type="curve" smooth="yes"/>
      <point x="-306" y="820"/>
      <point x="-356" y="803"/>
      <point x="-380" y="790" type="curve"/>
      <point x="-380" y="700" type="line"/>
      <point x="-362" y="717"/>
      <point x="-323" y="740"/>
      <point x="-286" y="740" type="curve" smooth="yes"/>
      <point x="-265" y="740"/>
      <point x="-256" y="729"/>
      <point x="-256" y="712" type="curve" smooth="yes"/>
      <point x="-256" y="689"/>
      <point x="-278" y="672"/>
      <point x="-310" y="665" type="curve"/>
    </contour>
  </outline>
</glyph>
<glyph name="ringcomb" format="2">
  <unicode hex="030A"/>
  <anchor x="-341" y="468" name="_top"/>
  <anchor x="-341" y="685" name="top"/>
  <outline>
    <contour>
      <point x="-341" y="520" type="curve" smooth="yes"/>
      <point x="-281" y="520"/>
      <point x="-232" y="569"/>
      <point x="-232" y="629" type="curve" smooth="yes"/>
      <point x="-232" y="689"/>
      <point x="-281" y="738"/>
      <point x="-341" y="738" type="curve" smooth="yes"/>
      <point x="-401" y="738"/>
      <point x="-450" y="689"/>
      <point x="-450" y="629" type="curve" smooth="yes"/>
      <point x="-450" y="569"/>
      <point x="-401" y="520"/>
    </contour>
    <contour>
      <point x="-341" y="596" type="curve" smooth="yes"/>
      <point x="-359" y="596"/>
      <point x="-374" y="611"/>
      <point x="-374" y="629" type="curve" smooth="yes"/>
      <point x="-374" y="647"/>
      <point x="-359" y="662"/>
      <point x="-341" y="662" type="curve" smooth="yes"/>
      <point x="-323" y="662"/>
      <point x="-308" y="647"/>
      <point x="-308" y="629" type="curve" smooth="yes"/>
      <point x="-308" y="611"/>
      <point x="-323" y="596"/>
    </contour>
  </outline>
</glyph>
<glyph name="dblgravecomb" format="2">
  <unicode hex="030F"/>
  <anchor x="-294" y="468" name="_top"/>
  <anchor x="-302" y="752" name="top"/>
  <outline>
    <contour>
      <point x="-356" y="560" type="curve" smooth="yes"/>
      <point x="-385" y="560"/>
      <point x="-473" y="653"/>
      <point x="-516" y="710" type="curve" smooth="yes"/>
      <point x="-535" y="735"/>
      <point x="-528" y="750"/>
      <point x="-492" y="750" type="curve" smooth="yes"/>
      <point x="-474" y="750" type="line" smooth="yes"/>
      <point x="-439" y="750"/>
      <point x="-418" y="740"/>
      <point x="-399" y="710" type="curve" smooth="yes"/>
      <point x="-360" y="649"/>
      <point x="-335" y="560"/>
    </contour>
    <contour>
      <point x="-186" y="562" type="curve" smooth="yes"/>
      <point x="-215" y="562"/>
      <point x="-303" y="655"/>
      <point x="-346" y="712" type="curve" smooth="yes"/>
      <point x="-365" y="737"/>
      <point x="-358" y="752"/>
      <point x="-322" y="752" type="curve" smooth="yes"/>
      <point x="-304" y="752" type="line" smooth="yes"/>
      <point x="-269" y="752"/>
      <point x="-248" y="742"/>
      <point x="-229" y="712" type="curve" smooth="yes"/>
      <point x="-190" y="651"/>
      <point x="-165" y="562"/>
    </contour>
  </outline>
</glyph>
<glyph name="commaturnedabovecomb" format="2">
  <unicode hex="0312"/>
  <anchor x="-225" y="468" name="_top"/>
  <anchor x="-225" y="760" name="top"/>
  <outline>
    <contour>
      <point x="-215.63628" y="782.81806" type="line"/>
      <point x="-281.99985" y="776.45443"/>
      <point x="-341.99978999999996" y="725.54539"/>
      <point x="-341.99978999999996" y="651.9091" type="curve" smooth="yes"/>
      <point x="-341.99978999999996" y="595.54552"/>
      <point x="-311.09073" y="555.54556"/>
      <point x="-251.09079" y="555.54556" type="curve" smooth="yes"/>
      <point x="-202.90902" y="555.54556"/>
      <point x="-177.4545" y="584.63644"/>
      <point x="-177.4545" y="623.72731" type="curve" smooth="yes"/>
      <point x="-177.4545" y="656.45455"/>
      <point x="-200.18175" y="673.72726"/>
      <point x="-231.9999" y="673.72726" type="curve" smooth="yes"/>
      <point x="-252.90897" y="673.72726"/>
      <point x="-266.54532" y="666.45454"/>
      <point x="-273.81804" y="661.0" type="curve"/>
      <point x="-273.81804" y="705.54541"/>
      <point x="-237.45443999999998" y="730.99993"/>
      <point x="-186.5454" y="735.54538" type="curve"/>
    </contour>
  </outline>
</glyph>
<glyph name="cedillacomb" format="2">
  <unicode hex="0327"/>
  <anchor x="-222" y="0" name="_bottom"/>
  <anchor x="-225" y="-210" name="bottom"/>
  <outline>
    <contour>
      <point x="-226" y="-220" type="curve" smooth="yes"/>
      <point x="-160" y="-220"/>
      <point x="-120" y="-183"/>
      <point x="-120" y="-135" type="curve" smooth="yes"/>
      <point x="-120" y="-85"/>
      <point x="-154" y="-55"/>
      <point x="-202" y="-48" type="curve"/>
      <point x="-177" y="0" type="line"/>
      <point x="-260" y="0" type="line"/>
      <point x="-280" y="-90" type="line"/>
      <point x="-234" y="-90"/>
      <point x="-205" y="-99"/>
      <point x="-205" y="-118" type="curve" smooth="yes"/>
      <point x="-205" y="-135"/>
      <point x="-220" y="-140"/>
      <point x="-234" y="-140" type="curve" smooth="yes"/>
      <point x="-282" y="-140"/>
      <point x="-317" y="-120"/>
      <point x="-330" y="-105" type="curve"/>
      <point x="-330" y="-185" type="line"/>
      <point x="-318" y="-200"/>
      <point x="-281" y="-220"/>
    </contour>
  </outline>
</glyph>
<glyph name="ogonekcomb" format="2">
  <unicode hex="0328"/>
  <anchor x="-174" y="10" name="_ogonek"/>
  <outline>
    <contour>
      <point x="-226" y="-170" type="curve" smooth="yes"/>
      <point x="-167" y="-170"/>
      <point x="-117" y="-149"/>
      <point x="-94" y="-130" type="curve"/>
      <point x="-94" y="-50" type="line"/>
      <point x="-124" y="-72"/>
      <point x="-172" y="-90"/>
      <point x="-205" y="-90" type="curve" smooth="yes"/>
      <point x="-227" y="-90"/>
      <point x="-240" y="-81"/>
      <point x="-240" y="-64" type="curve" smooth="yes"/>
      <point x="-240" y="-34"/>
      <point x="-202" y="-10"/>
      <point x="-164" y="3" type="curve"/>
      <point x="-272" y="3" type="line"/>
      <point x="-293" y="-9"/>
      <point x="-330" y="-37"/>
      <point x="-330" y="-83" type="curve" smooth="yes"/>
      <point x="-330" y="-136"/>
      <point x="-289" y="-170"/>
    </contour>
  </outline>
</glyph>
<glyph name="slashshortcomb" format="2">
  <unicode hex="0337"/>
  <anchor x="-318" y="144" name="_center"/>
  <outline>
    <contour>
      <point x="-500" y="-36" type="line"/>
      <point x="-134" y="232" type="line"/>
      <point x="-134" y="324" type="line"/>
      <point x="-500" y="56" type="line"/>
    </contour>
  </outline>
</glyph>
<glyph name="slashlongcomb" format="2">
  <unicode hex="0338"/>
  <anchor x="-320" y="300" name="_center"/>
  <outline>
    <contour>
      <point x="-610" y="-60" type="line"/>
      <point x="-515" y="-60" type="line"/>
      <point x="-31" y="660" type="line"/>
      <point x="-126" y="660" type="line"/>
    </contour>
  </outline>
</glyph>
<glyph name="Delta" format="2">
  <advance width="719"/>
  <unicode hex="0394"/>
  <outline>
    <contour>
      <point x="-2" y="0" type="curve"/>
      <point x="717" y="0" type="line"/>
      <point x="712" y="1"/>
      <point x="698" y="19"/>
      <point x="678" y="61" type="curve" smooth="yes"/>
      <point x="647" y="125"/>
      <point x="456" y="570"/>
      <point x="427" y="630" type="curve" smooth="yes"/>
      <point x="407" y="672"/>
      <point x="409" y="689"/>
      <point x="416" y="690" type="curve"/>
      <point x="302" y="690" type="line"/>
      <point x="310" y="689"/>
      <point x="312" y="672"/>
      <point x="292" y="630" type="curve" smooth="yes"/>
      <point x="262" y="569"/>
      <point x="67" y="120"/>
      <point x="38" y="61" type="curve" smooth="yes"/>
      <point x="17" y="18"/>
      <point x="3" y="1"/>
    </contour>
    <contour>
      <point x="236" y="111" type="line" smooth="yes"/>
      <point x="205" y="111"/>
      <point x="200" y="121"/>
      <point x="209" y="141" type="curve" smooth="yes"/>
      <point x="234" y="196"/>
      <point x="309" y="360"/>
      <point x="358" y="469" type="curve"/>
      <point x="360" y="469" type="line"/>
      <point x="409" y="363"/>
      <point x="482" y="201"/>
      <point x="507" y="141" type="curve" smooth="yes"/>
      <point x="515" y="119"/>
      <point x="506" y="111"/>
      <point x="478" y="111" type="curve" smooth="yes"/>
    </contour>
  </outline>
</glyph>
<glyph name="Omega" format="2">
  <advance width="756"/>
  <unicode hex="03A9"/>
  <outline>
    <contour>
      <point x="69" y="0" type="line"/>
      <point x="347" y="0" type="line"/>
      <point x="347" y="204" type="line" smooth="yes"/>
      <point x="347" y="227"/>
      <point x="353" y="236"/>
      <point x="357" y="236" type="curve" smooth="yes"/>
      <point x="257" y="236"/>
      <point x="192" y="296"/>
      <point x="192" y="413" type="curve" smooth="yes"/>
      <point x="192" y="520"/>
      <point x="241" y="590"/>
      <point x="381" y="590" type="curve" smooth="yes"/>
      <point x="520" y="590"/>
      <point x="564" y="523"/>
      <point x="564" y="413" type="curve" smooth="yes"/>
      <point x="564" y="293"/>
      <point x="504" y="236"/>
      <point x="402" y="236" type="curve" smooth="yes"/>
      <point x="406" y="236"/>
      <point x="412" y="228"/>
      <point x="412" y="204" type="curve" smooth="yes"/>
      <point x="412" y="0" type="line"/>
      <point x="696" y="0" type="line"/>
      <point x="696" y="31" type="line"/>
      <point x="716" y="152" type="line"/>
      <point x="695" y="135"/>
      <point x="646" y="112"/>
      <point x="586" y="112" type="curve" smooth="yes"/>
      <point x="486" y="112" type="line"/>
      <point x="486" y="164" type="line"/>
      <point x="608" y="164"/>
      <point x="716" y="242"/>
      <point x="716" y="413" type="curve" smooth="yes"/>
      <point x="716" y="582"/>
      <point x="610" y="700"/>
      <point x="381" y="700" type="curve" smooth="yes"/>
      <point x="151" y="700"/>
      <point x="40" y="581"/>
      <point x="40" y="413" type="curve" smooth="yes"/>
      <point x="40" y="243"/>
      <point x="151" y="164"/>
      <point x="271" y="164" type="curve"/>
      <point x="271" y="112" type="line"/>
      <point x="179" y="112" type="line" smooth="yes"/>
      <point x="119" y="112"/>
      <point x="70" y="135"/>
      <point x="49" y="152" type="curve"/>
      <point x="69" y="31" type="line"/>
    </contour>
  </outline>
</glyph>
<glyph name="mu" format="2">
  <advance width="596"/>
  <unicode hex="03BC"/>
  <outline>
    <contour>
      <point x="67" y="-200" type="line"/>
      <point x="208" y="-200" type="line"/>
      <point x="168" y="193" type="line"/>
      <point x="67" y="193" type="line"/>
    </contour>
    <component base="u"/>
  </outline>
</glyph>
<glyph name="pi" format="2">
  <advance width="602"/>
  <unicode hex="03C0"/>
  <outline>
    <contour>
      <point x="69" y="0" type="curve" smooth="yes"/>
      <point x="265" y="0" type="line" smooth="yes"/>
      <point x="256" y="0"/>
      <point x="244" y="17"/>
      <point x="244" y="60" type="curve" smooth="yes"/>
      <point x="244" y="455" type="line" smooth="yes"/>
      <point x="244" y="484"/>
      <point x="245" y="485"/>
      <point x="285" y="485" type="curve" smooth="yes"/>
      <point x="320" y="485" type="line" smooth="yes"/>
      <point x="359" y="485"/>
      <point x="360" y="485"/>
      <point x="360" y="455" type="curve" smooth="yes"/>
      <point x="360" y="60" type="line" smooth="yes"/>
      <point x="360" y="17"/>
      <point x="348" y="0"/>
      <point x="339" y="0" type="curve" smooth="yes"/>
      <point x="533" y="0" type="line" smooth="yes"/>
      <point x="524" y="0"/>
      <point x="512" y="17"/>
      <point x="512" y="60" type="curve" smooth="yes"/>
      <point x="512" y="498" type="line" smooth="yes"/>
      <point x="512" y="556"/>
      <point x="535" y="590"/>
      <point x="552" y="599" type="curve"/>
      <point x="50" y="599" type="line"/>
      <point x="67" y="590"/>
      <point x="90" y="557"/>
      <point x="90" y="499" type="curve" smooth="yes"/>
      <point x="90" y="60" type="line" smooth="yes"/>
      <point x="90" y="17"/>
      <point x="78" y="0"/>
    </contour>
  </outline>
</glyph>
<glyph name="Germandbls" format="2">
  <advance width="717"/>
  <unicode hex="1E9E"/>
  <outline>
    <contour>
      <point x="465" y="-10" type="curve" smooth="yes"/>
      <point x="626" y="-10"/>
      <point x="677" y="72"/>
      <point x="677" y="164" type="curve" smooth="yes"/>
      <point x="677" y="245"/>
      <point x="637" y="291"/>
      <point x="577" y="336" type="curve" smooth="yes"/>
      <point x="520" y="378"/>
      <point x="472" y="417"/>
      <point x="472" y="451" type="curve" smooth="yes"/>
      <point x="472" y="500"/>
      <point x="516" y="527"/>
      <point x="567" y="539" type="curve"/>
      <point x="567" y="631" type="line"/>
      <point x="534" y="648"/>
      <point x="454" y="671"/>
      <point x="355" y="671" type="curve" smooth="yes"/>
      <point x="193" y="671"/>
      <point x="71" y="610"/>
      <point x="71" y="404" type="curve" smooth="yes"/>
      <point x="71" y="60" type="line" smooth="yes"/>
      <point x="71" y="17"/>
      <point x="59" y="0"/>
      <point x="50" y="0" type="curve" smooth="yes"/>
      <point x="245" y="0" type="line" smooth="yes"/>
      <point x="236" y="0"/>
      <point x="225" y="17"/>
      <point x="225" y="60" type="curve" smooth="yes"/>
      <point x="225" y="397" type="line" smooth="yes"/>
      <point x="225" y="532"/>
      <point x="264" y="561"/>
      <point x="347" y="561" type="curve" smooth="yes"/>
      <point x="385" y="561"/>
      <point x="408" y="556"/>
      <point x="415" y="553" type="curve"/>
      <point x="415" y="550" type="line"/>
      <point x="368" y="522"/>
      <point x="344" y="479"/>
      <point x="344" y="426" type="curve" smooth="yes"/>
      <point x="344" y="376"/>
      <point x="365" y="341"/>
      <point x="422" y="289" type="curve" smooth="yes"/>
      <point x="466" y="249"/>
      <point x="525" y="208"/>
      <point x="525" y="156" type="curve" smooth="yes"/>
      <point x="525" y="122"/>
      <point x="507" y="103"/>
      <point x="467" y="103" type="curve" smooth="yes"/>
      <point x="390" y="103"/>
      <point x="326" y="143"/>
      <point x="299" y="173" type="curve"/>
      <point x="299" y="144" type="line"/>
      <point x="279" y="51" type="line"/>
      <point x="306" y="25"/>
      <point x="375" y="-10"/>
    </contour>
  </outline>
</glyph>
<glyph name="endash" format="2">
  <advance width="556"/>
  <unicode hex="2013"/>
  <outline>
    <contour>
      <point x="30" y="180" type="curve"/>
      <point x="39" y="184"/>
      <point x="77" y="190"/>
      <point x="150" y="190" type="curve" smooth="yes"/>
      <point x="506" y="190" type="line"/>
      <point x="506" y="225"/>
      <point x="517" y="273"/>
      <point x="526" y="300" type="curve"/>
      <point x="523" y="296"/>
      <point x="494" y="290"/>
      <point x="426" y="290" type="curve" smooth="yes"/>
      <point x="50" y="290" type="line"/>
      <point x="50" y="264"/>
      <point x="39" y="212"/>
    </contour>
  </outline>
</glyph>
<glyph name="emdash" format="2">
  <advance width="896"/>
  <unicode hex="2014"/>
  <outline>
    <contour>
      <point x="30" y="180" type="curve"/>
      <point x="39" y="184"/>
      <point x="77" y="190"/>
      <point x="150" y="190" type="curve" smooth="yes"/>
      <point x="846" y="190" type="line"/>
      <point x="846" y="218"/>
      <point x="857" y="269"/>
      <point x="866" y="300" type="curve"/>
      <point x="863" y="296"/>
      <point x="834" y="290"/>
      <point x="766" y="290" type="curve" smooth="yes"/>
      <point x="50" y="290" type="line"/>
      <point x="50" y="257"/>
      <point x="39" y="208"/>
    </contour>
  </outline>
</glyph>
<glyph name="quoteleft" format="2">
  <advance width="250"/>
  <unicode hex="2018"/>
  <outline>
    <contour>
      <point x="190" y="710" type="line"/>
      <point x="125" y="707"/>
      <point x="40" y="653"/>
      <point x="40" y="570" type="curve" smooth="yes"/>
      <point x="40" y="519"/>
      <point x="66" y="470"/>
      <point x="130" y="470" type="curve" smooth="yes"/>
      <point x="170" y="470"/>
      <point x="202" y="487"/>
      <point x="202" y="525" type="curve" smooth="yes"/>
      <point x="202" y="550" type="line"/>
      <point x="170" y="550"/>
      <point x="150" y="562"/>
      <point x="150" y="599" type="curve" smooth="yes"/>
      <point x="150" y="636"/>
      <point x="183" y="665"/>
      <point x="210" y="675" type="curve"/>
    </contour>
  </outline>
</glyph>
<glyph name="quoteright" format="2">
  <advance width="250"/>
  <unicode hex="2019"/>
  <outline>
    <contour>
      <point x="60" y="480" type="line"/>
      <point x="125" y="483"/>
      <point x="210" y="537"/>
      <point x="210" y="620" type="curve" smooth="yes"/>
      <point x="210" y="671"/>
      <point x="184" y="720"/>
      <point x="120" y="720" type="curve" smooth="yes"/>
      <point x="80" y="720"/>
      <point x="48" y="703"/>
      <point x="48" y="665" type="curve" smooth="yes"/>
      <point x="48" y="640" type="line"/>
      <point x="80" y="640"/>
      <point x="100" y="628"/>
      <point x="100" y="591" type="curve" smooth="yes"/>
      <point x="100" y="554"/>
      <point x="67" y="525"/>
      <point x="40" y="515" type="curve"/>
    </contour>
  </outline>
</glyph>
<glyph name="dagger" format="2">
  <advance width="396"/>
  <unicode hex="2020"/>
  <outline>
    <contour>
      <point x="123" y="-60" type="curve" smooth="yes"/>
      <point x="274" y="-60" type="line" smooth="yes"/>
      <point x="265" y="-60"/>
      <point x="253" y="-43"/>
      <point x="253" y="0" type="curve" smooth="yes"/>
      <point x="253" y="539" type="line" smooth="yes"/>
      <point x="253" y="583"/>
      <point x="265" y="600"/>
      <point x="274" y="600" type="curve" smooth="yes"/>
      <point x="122" y="600" type="line"/>
      <point x="131" y="599"/>
      <point x="143" y="582"/>
      <point x="143" y="540" type="curve" smooth="yes"/>
      <point x="143" y="0" type="line" smooth="yes"/>
      <point x="143" y="-43"/>
      <point x="132" y="-60"/>
    </contour>
    <contour>
      <point x="30" y="325" type="line"/>
      <point x="366" y="325" type="line"/>
      <point x="366" y="405" type="line"/>
      <point x="30" y="405" type="line"/>
    </contour>
  </outline>
</glyph>
<glyph name="perthousand" format="2">
  <advance width="990"/>
  <unicode hex="2030"/>
  <outline>
    <contour>
      <point x="800" y="-10" type="curve" smooth="yes"/>
      <point x="896" y="-10"/>
      <point x="940" y="44"/>
      <point x="940" y="110" type="curve" smooth="yes"/>
      <point x="940" y="176"/>
      <point x="896" y="230"/>
      <point x="800" y="230" type="curve" smooth="yes"/>
      <point x="702" y="230"/>
      <point x="660" y="176"/>
      <point x="660" y="110" type="curve" smooth="yes"/>
      <point x="660" y="44"/>
      <point x="702" y="-10"/>
    </contour>
    <contour>
      <point x="800" y="70" type="curve" smooth="yes"/>
      <point x="764" y="70"/>
      <point x="760" y="95"/>
      <point x="760" y="110" type="curve" smooth="yes"/>
      <point x="760" y="125"/>
      <point x="764" y="150"/>
      <point x="800" y="150" type="curve" smooth="yes"/>
      <point x="834" y="150"/>
      <point x="840" y="125"/>
      <point x="840" y="110" type="curve" smooth="yes"/>
      <point x="840" y="95"/>
      <point x="834" y="70"/>
    </contour>
    <component base="percent"/>
  </outline>
</glyph>
<glyph name="minute" format="2">
  <advance width="220"/>
  <unicode hex="2032"/>
  <outline>
    <contour>
      <point x="90" y="510" type="curve" smooth="yes"/>
      <point x="121" y="510"/>
      <point x="170" y="695"/>
      <point x="170" y="732" type="curve" smooth="yes"/>
      <point x="170" y="746"/>
      <point x="161" y="760"/>
      <point x="140" y="760" type="curve" smooth="yes"/>
      <point x="81" y="760" type="line" smooth="yes"/>
      <point x="59" y="760"/>
      <point x="50" y="750"/>
      <point x="50" y="731" type="curve" smooth="yes"/>
      <point x="50" y="683"/>
      <point x="59" y="510"/>
    </contour>
  </outline>
</glyph>
<glyph name="guilsinglright" format="2">
  <advance width="350"/>
  <unicode hex="203A"/>
  <outline>
    <contour>
      <point x="50" y="130" type="line"/>
      <point x="170" y="130" type="line"/>
      <point x="300" y="300" type="line"/>
      <point x="170" y="470" type="line"/>
      <point x="50" y="470" type="line"/>
      <point x="180" y="300" type="line"/>
    </contour>
  </outline>
</glyph>
<glyph name="fraction" format="2">
  <advance width="260"/>
  <unicode hex="2044"/>
  <outline>
    <contour>
      <point x="-150" y="0" type="curve"/>
      <point x="-7" y="0" type="line"/>
      <point x="-19" y="3"/>
      <point x="-25" y="21"/>
      <point x="2" y="60" type="curve" smooth="yes"/>
      <point x="42" y="117"/>
      <point x="304" y="475"/>
      <point x="348" y="539" type="curve" smooth="yes"/>
      <point x="379" y="583"/>
      <point x="401" y="600"/>
      <point x="410" y="600" type="curve" smooth="yes"/>
      <point x="266" y="600" type="line" smooth="yes"/>
      <point x="277" y="600"/>
      <point x="282" y="583"/>
      <point x="257" y="540" type="curve" smooth="yes"/>
      <point x="225" y="484"/>
      <point x="-49" y="114"/>
      <point x="-89" y="60" type="curve" smooth="yes"/>
      <point x="-120" y="18"/>
      <point x="-142" y="1"/>
    </contour>
  </outline>
</glyph>
<glyph name="foursuperior" format="2">
  <advance width="359"/>
  <unicode hex="2074"/>
  <outline>
    <contour>
      <point x="187.5" y="440.0" type="curve" smooth="yes"/>
      <point x="284.0" y="440.0" type="line" smooth="yes"/>
      <point x="279.5" y="440.0"/>
      <point x="273.5" y="448.5"/>
      <point x="273.5" y="470.0" type="curve" smooth="yes"/>
      <point x="273.5" y="487.5" type="line"/>
      <point x="339.0" y="487.5" type="line"/>
      <point x="339.0" y="502.5" type="line"/>
      <point x="349.0" y="553.0" type="line"/>
      <point x="342.0" y="548.5"/>
      <point x="318.0" y="542.5"/>
      <point x="279.0" y="542.5" type="curve" smooth="yes"/>
      <point x="273.5" y="542.5" type="line"/>
      <point x="274.0" y="709.5" type="line" smooth="yes"/>
      <point x="274.0" y="731.5"/>
      <point x="279.5" y="740.0"/>
      <point x="284.0" y="740.0" type="curve" smooth="yes"/>
      <point x="166.0" y="740.0" type="line"/>
      <point x="169.5" y="739.0"/>
      <point x="166.5" y="726.0"/>
      <point x="145.5" y="693.5" type="curve" smooth="yes"/>
      <point x="110.0" y="638.0"/>
      <point x="59.5" y="558.5"/>
      <point x="35.5" y="525.5" type="curve" smooth="yes"/>
      <point x="26.0" y="512.5"/>
      <point x="15.5" y="496.0"/>
      <point x="10.0" y="487.5" type="curve"/>
      <point x="197.5" y="487.5" type="line"/>
      <point x="197.5" y="470.0" type="line" smooth="yes"/>
      <point x="197.5" y="448.5"/>
      <point x="192.0" y="440.0"/>
    </contour>
    <contour>
      <point x="124.0" y="542.5" type="line"/>
      <point x="124.0" y="544.0" type="line"/>
      <point x="147.0" y="569.5"/>
      <point x="183.5" y="632.0"/>
      <point x="196.5" y="669.5" type="curve"/>
      <point x="197.5" y="669.5" type="line"/>
      <point x="197.5" y="542.5" type="line"/>
    </contour>
  </outline>
</glyph>
<glyph name="franc" format="2">
  <advance width="724"/>
  <unicode hex="20A3"/>
  <outline>
    <contour>
      <point x="130" y="0" type="curve" smooth="yes"/>
      <point x="326" y="0" type="line" smooth="yes"/>
      <point x="317" y="0"/>
      <point x="305" y="16"/>
      <point x="305" y="60" type="curve" smooth="yes"/>
      <point x="305" y="236" type="line" smooth="yes"/>
      <point x="305" y="266"/>
      <point x="306" y="266"/>
      <point x="345" y="266" type="curve" smooth="yes"/>
      <point x="549" y="266" type="line"/>
      <point x="549" y="295"/>
      <point x="560" y="357"/>
      <point x="569" y="396" type="curve"/>
      <point x="554" y="387"/>
      <point x="506" y="376"/>
      <point x="429" y="376" type="curve" smooth="yes"/>
      <point x="345" y="376" type="line" smooth="yes"/>
      <point x="306" y="376"/>
      <point x="305" y="376"/>
      <point x="305" y="406" type="curve" smooth="yes"/>
      <point x="305" y="460" type="line" smooth="yes"/>
      <point x="305" y="488"/>
      <point x="306" y="490"/>
      <point x="346" y="490" type="curve" smooth="yes"/>
      <point x="434" y="490" type="line" smooth="yes"/>
      <point x="552" y="490"/>
      <point x="640" y="469"/>
      <point x="674" y="454" type="curve"/>
      <point x="654" y="570" type="line"/>
      <point x="654" y="600" type="line"/>
      <point x="130" y="600" type="line"/>
      <point x="139" y="599"/>
      <point x="151" y="582"/>
      <point x="151" y="540" type="curve" smooth="yes"/>
      <point x="151" y="60" type="line" smooth="yes"/>
      <point x="151" y="17"/>
      <point x="139" y="0"/>
    </contour>
    <contour>
      <point x="50" y="80" type="curve"/>
      <point x="59" y="84"/>
      <point x="97" y="90"/>
      <point x="170" y="90" type="curve" smooth="yes"/>
      <point x="406" y="90" type="line"/>
      <point x="406" y="125"/>
      <point x="417" y="162"/>
      <point x="426" y="180" type="curve"/>
      <point x="419" y="176"/>
      <point x="387" y="170"/>
      <point x="326" y="170" type="curve" smooth="yes"/>
      <point x="70" y="170" type="line"/>
      <point x="70" y="137"/>
      <point x="59" y="99"/>
    </contour>
  </outline>
</glyph>
<glyph name="lira" format="2">
  <advance width="627"/>
  <unicode hex="20A4"/>
  <outline>
    <contour>
      <point x="50" y="190" type="curve"/>
      <point x="59" y="194"/>
      <point x="97" y="200"/>
      <point x="170" y="200" type="curve" smooth="yes"/>
      <point x="376" y="200" type="line"/>
      <point x="376" y="235"/>
      <point x="387" y="272"/>
      <point x="396" y="290" type="curve"/>
      <point x="389" y="286"/>
      <point x="351" y="280"/>
      <point x="276" y="280" type="curve" smooth="yes"/>
      <point x="70" y="280" type="line"/>
      <point x="70" y="247"/>
      <point x="59" y="209"/>
    </contour>
    <contour>
      <point x="50" y="320" type="curve"/>
      <point x="59" y="324"/>
      <point x="97" y="330"/>
      <point x="170" y="330" type="curve" smooth="yes"/>
      <point x="406" y="330" type="line"/>
      <point x="406" y="365"/>
      <point x="417" y="402"/>
      <point x="426" y="420" type="curve"/>
      <point x="419" y="416"/>
      <point x="387" y="410"/>
      <point x="326" y="410" type="curve" smooth="yes"/>
      <point x="70" y="410" type="line"/>
      <point x="70" y="377"/>
      <point x="59" y="339"/>
    </contour>
    <contour>
      <point x="70" y="0" type="curve"/>
      <point x="557" y="0" type="line"/>
      <point x="557" y="31" type="line"/>
      <point x="577" y="151" type="line"/>
      <point x="558" y="134"/>
      <point x="507" y="111"/>
      <point x="437" y="111" type="curve" smooth="yes"/>
      <point x="268" y="111" type="line"/>
      <point x="268" y="114" type="line"/>
      <point x="278" y="122"/>
      <point x="292" y="156"/>
      <point x="292" y="220" type="curve" smooth="yes"/>
      <point x="292" y="390" type="line" smooth="yes"/>
      <point x="292" y="469"/>
      <point x="328" y="500"/>
      <point x="381" y="500" type="curve" smooth="yes"/>
      <point x="425" y="500"/>
      <point x="460" y="466"/>
      <point x="475" y="440" type="curve"/>
      <point x="475" y="470" type="line"/>
      <point x="485" y="580" type="line"/>
      <point x="463" y="593"/>
      <point x="412" y="610"/>
      <point x="351" y="610" type="curve" smooth="yes"/>
      <point x="231" y="610"/>
      <point x="140" y="532"/>
      <point x="140" y="390" type="curve" smooth="yes"/>
      <point x="140" y="160" type="line" smooth="yes"/>
      <point x="140" y="53"/>
      <point x="111" y="18"/>
    </contour>
  </outline>
</glyph>
<glyph name="naira" format="2">
  <advance width="846"/>
  <unicode hex="20A6"/>
  <outline>
    <contour>
      <point x="130" y="0" type="curve" smooth="yes"/>
      <point x="326" y="0" type="line" smooth="yes"/>
      <point x="317" y="0"/>
      <point x="305" y="17"/>
      <point x="305" y="60" type="curve" smooth="yes"/>
      <point x="305" y="367" type="line"/>
      <point x="308" y="367" type="line"/>
      <point x="585" y="0" type="line"/>
      <point x="717" y="0" type="line" smooth="yes"/>
      <point x="708" y="0"/>
      <point x="696" y="17"/>
      <point x="696" y="60" type="curve" smooth="yes"/>
      <point x="696" y="539" type="line" smooth="yes"/>
      <point x="696" y="583"/>
      <point x="708" y="600"/>
      <point x="717" y="600" type="curve" smooth="yes"/>
      <point x="521" y="600" type="line"/>
      <point x="530" y="599"/>
      <point x="542" y="582"/>
      <point x="542" y="540" type="curve" smooth="yes"/>
      <point x="542" y="265" type="line"/>
      <point x="540" y="265" type="line"/>
      <point x="288" y="600" type="line"/>
      <point x="130" y="600" type="line"/>
      <point x="139" y="599"/>
      <point x="151" y="582"/>
      <point x="151" y="540" type="curve" smooth="yes"/>
      <point x="151" y="60" type="line" smooth="yes"/>
      <point x="151" y="17"/>
      <point x="139" y="0"/>
    </contour>
    <contour>
      <point x="50" y="180" type="curve"/>
      <point x="59" y="184"/>
      <point x="97" y="190"/>
      <point x="170" y="190" type="curve" smooth="yes"/>
      <point x="466" y="190" type="line"/>
      <point x="466" y="270" type="line"/>
      <point x="70" y="270" type="line"/>
      <point x="70" y="237"/>
      <point x="59" y="199"/>
    </contour>
    <contour>
      <point x="50" y="330" type="curve"/>
      <point x="59" y="334"/>
      <point x="97" y="340"/>
      <point x="170" y="340" type="curve" smooth="yes"/>
      <point x="266" y="340" type="line"/>
      <point x="266" y="420" type="line"/>
      <point x="70" y="420" type="line"/>
      <point x="70" y="380"/>
      <point x="59" y="345"/>
    </contour>
    <contour>
      <point x="600" y="190" type="line"/>
      <point x="776" y="190" type="line"/>
      <point x="776" y="232"/>
      <point x="787" y="266"/>
      <point x="796" y="280" type="curve"/>
      <point x="789" y="276"/>
      <point x="757" y="270"/>
      <point x="696" y="270" type="curve" smooth="yes"/>
      <point x="600" y="270" type="line"/>
    </contour>
    <contour>
      <point x="350" y="340" type="line"/>
      <point x="776" y="340" type="line"/>
      <point x="776" y="375"/>
      <point x="787" y="412"/>
      <point x="796" y="430" type="curve"/>
      <point x="789" y="426"/>
      <point x="757" y="420"/>
      <point x="696" y="420" type="curve" smooth="yes"/>
      <point x="350" y="420" type="line"/>
    </contour>
  </outline>
</glyph>
<glyph name="peseta" format="2">
  <advance width="786"/>
  <unicode hex="20A7"/>
  <outline>
    <contour>
      <point x="131" y="0" type="curve" smooth="yes"/>
      <point x="326" y="0" type="line" smooth="yes"/>
      <point x="317" y="0"/>
      <point x="305" y="17"/>
      <point x="305" y="60" type="curve" smooth="yes"/>
      <point x="305" y="106" type="line"/>
      <point x="374" y="106" type="line" smooth="yes"/>
      <point x="565" y="106"/>
      <point x="646" y="202"/>
      <point x="646" y="350" type="curve" smooth="yes"/>
      <point x="646" y="484"/>
      <point x="576" y="600"/>
      <point x="353" y="600" type="curve" smooth="yes"/>
      <point x="130" y="600" type="line"/>
      <point x="139" y="599"/>
      <point x="151" y="582"/>
      <point x="151" y="540" type="curve" smooth="yes"/>
      <point x="151" y="60" type="line" smooth="yes"/>
      <point x="151" y="17"/>
      <point x="140" y="0"/>
    </contour>
    <contour>
      <point x="50" y="308" type="curve"/>
      <point x="59" y="312"/>
      <point x="97" y="318"/>
      <point x="170" y="318" type="curve" smooth="yes"/>
      <point x="186" y="318" type="line"/>
      <point x="186" y="398" type="line"/>
      <point x="70" y="398" type="line"/>
      <point x="70" y="351"/>
      <point x="59" y="319"/>
    </contour>
    <contour>
      <point x="346" y="216" type="line" smooth="yes"/>
      <point x="312" y="216"/>
      <point x="306" y="217"/>
      <point x="305" y="234" type="curve" smooth="yes"/>
      <point x="305" y="471" type="line"/>
      <point x="307" y="487"/>
      <point x="313" y="488"/>
      <point x="346" y="488" type="curve" smooth="yes"/>
      <point x="353" y="488" type="line" smooth="yes"/>
      <point x="450" y="488"/>
      <point x="483" y="441"/>
      <point x="483" y="350" type="curve" smooth="yes"/>
      <point x="483" y="249"/>
      <point x="445" y="216"/>
      <point x="353" y="216" type="curve" smooth="yes"/>
    </contour>
    <contour>
      <point x="550" y="318" type="line"/>
      <point x="716" y="318" type="line"/>
      <point x="716" y="360"/>
      <point x="727" y="394"/>
      <point x="736" y="408" type="curve"/>
      <point x="729" y="404"/>
      <point x="697" y="398"/>
      <point x="636" y="398" type="curve" smooth="yes"/>
      <point x="550" y="398" type="line"/>
    </contour>
    <contour>
      <point x="241" y="328" type="line"/>
      <point x="510" y="328" type="line"/>
      <point x="510" y="388" type="line"/>
      <point x="241" y="388" type="line"/>
    </contour>
  </outline>
</glyph>
